<svg version="1.2" xmlns="http://www.w3.org/2000/svg" viewBox="0 0 4000 4000" width="4000" height="4000">
	<title>6000_6_10-ai</title>
	<style>
		.s0 { fill: #e81818 } 
		.s1 { fill: #371a45 } 
		.s2 { fill: #ff4545 } 
		.s3 { fill: #e52e2e } 
		.s4 { fill: #ffffff } 
		.s5 { fill: #5e3519 } 
		.s6 { fill: #c6c6c6 } 
		.s7 { fill: #a0a0a0 } 
		.s8 { fill: #bcbcbc } 
		.s9 { fill: #42b1fc } 
		.s10 { fill: #eaeaea } 
		.s11 { fill: #22a7f0 } 
		.s12 { fill: #1675db } 
		.s13 { fill: #d8d8d8 } 
		.s14 { fill: #220f2d } 
	</style>
	<g id="Layer 1">
		<g id="&lt;Group&gt;">
			<g id="&lt;Group&gt;">
				<g id="&lt;Group&gt;">
					<g id="&lt;Group&gt;">
						<g id="&lt;Group&gt;">
							<path id="&lt;Path&gt;" class="s0" d="m1273.8 3135.1c5.3 0.4 10.7-1.2 15.4-5.2l1.6-1.4c0.7-0.6 1.4-1.2 2.1-1.8 0.2-0.1 0.4-0.3 0.5-0.4l160.6-137.3-104.1-136.8-41.3 74-33.1 59.5c-22.3 40-30.1 86.5-22 131.5 1.9 10.7 10.8 17.4 20.3 17.9z"/>
						</g>
						<g id="&lt;Group&gt;" style="opacity: .3">
							<path id="&lt;Path&gt;" class="s1" d="m1293.4 3126.3l160.6-137.3-104.1-136.8-41.3 74c22.2 35.5 67.5 128.9-15.2 200.1z"/>
						</g>
						<g id="&lt;Group&gt;">
							<path id="&lt;Compound Path&gt;" fill-rule="evenodd" class="s1" d="m1275.1 3147.7c-3.9 0-7.8-0.6-11.7-2-11.7-4.2-20-14-22.2-26.3-8.6-47.8-0.3-97.4 23.3-139.7l83.8-150.3 122.8 161.5-173.8 148.5c-6.4 5.5-14.2 8.3-22.2 8.3zm76.4-272.7l-65.1 116.8c-20.8 37.4-28.1 81.1-20.6 123.2 0.9 4.8 4.5 6.6 6 7.1 1.6 0.6 5.5 1.5 9.2-1.7l155.9-133.2z"/>
						</g>
						<g id="&lt;Group&gt;">
							<path id="&lt;Path&gt;" class="s2" d="m1829.1 3068.8c6.5-3.3 11.3-9.8 11.8-18q0-0.8 0-1.6c-0.5-45.7-16.8-89.9-46.2-125l-98.1-117.2-76.7 153.9 73 41.7 115.4 65.8c6.9 4 14.6 3.7 20.8 0.4z"/>
						</g>
						<g id="&lt;Group&gt;">
							<path id="&lt;Path&gt;" class="s3" d="m1829.1 3068.8c6.5-3.3 11.3-9.8 11.8-18q0-0.8 0-1.6c-0.5-45.7-16.8-89.9-46.2-125l-98.1-117.2-76.7 153.9 73 41.7c17.7-19.3 54.2-51.3 87.9-33.3 29.9 16.1 33.9 69.2 48.3 99.5z"/>
						</g>
						<g id="&lt;Group&gt;">
							<path id="&lt;Compound Path&gt;" fill-rule="evenodd" class="s1" d="m1819.1 3089.6c-6.8 0-13.6-1.8-19.8-5.4l-203.3-116 96.7-194.2 115.9 138.6c32 38.1 49.9 86.6 50.5 136.4 0.2 14.5-7.2 27.6-19.7 35-6.3 3.7-13.3 5.6-20.3 5.6zm-175.2-136l173.4 99q1.8 1.1 3.7 0 1.8-1.1 1.8-3.2c-0.5-41.4-15.4-81.7-42-113.5l-80.3-96z"/>
						</g>
						<g id="&lt;Group&gt;">
							<path id="&lt;Path&gt;" class="s0" d="m1528 3095.6c30.9 1.8 61.9-7.1 87.6-25.9 5.1-3.8 9.3-8.5 12.3-14l87.9-162.2-257.4 28.4-112.8 12.5 121.2 139c4.2 4.7 9.3 8.5 15 11q0.8 0.4 1.5 0.7c14.4 6.1 29.5 9.6 44.7 10.5z"/>
						</g>
						<g id="&lt;Group&gt;" style="opacity: .3">
							<path id="&lt;Path&gt;" class="s1" d="m1528 3095.6c30.9 1.8 61.9-7.1 87.6-25.9 5.1-3.8 9.3-8.5 12.3-14l87.9-162.2-257.4 28.4c14.1 37.6 47.7 135.1 24.9 163.2 14.4 6.1 29.5 9.6 44.7 10.5z"/>
						</g>
						<g id="&lt;Group&gt;">
							<path id="&lt;Path&gt;" class="s1" d="m1535.8 3108.2c-20 0-40.1-4-59-12.3-7.4-3.2-14.1-8.2-19.4-14.2l-121.2-139.1c-4.5-5.2-4-13.1 1.2-17.7 5.2-4.5 13.1-4 17.7 1.3l121.2 139c2.9 3.3 6.5 6 10.6 7.8 39.8 17.4 86.3 12.3 121.3-13.4 3.6-2.6 6.6-6 8.7-9.9l87.9-162.2c3.3-6 10.9-8.3 17-5 6.1 3.3 8.3 10.9 5 17l-87.9 162.1c-3.9 7.1-9.3 13.4-15.8 18.2-25.7 18.8-56.4 28.4-87.3 28.4z"/>
						</g>
						<g id="&lt;Group&gt;">
							<path id="&lt;Path&gt;" class="s4" d="m1543.5 3030.1c73.5-8.1 113.4-48.8 113.4-48.8 134.6-160.6 248.6-559.3 207.7-930.4-17.4-157.4-65.6-289.6-126.9-395.3-122.1-211-295.9-316.7-379.8-307.5-126 13.9-393.3 325.1-341.3 796.4 41 371.1 239.3 735.3 405.6 862.7 0 0 13.1 8.4 35.9 15.4 21 6.3 50.3 11.4 85.4 7.5z"/>
						</g>
						<g id="&lt;Group&gt;">
							<path id="&lt;Path&gt;" class="s4" d="m1543.5 3030.1c73.5-8.1 113.4-48.7 113.4-48.7 134.6-160.7 248.6-559.4 207.7-930.6-17.4-157.3-65.6-289.5-126.9-395.3-122.1-210.9-295.9-316.6-379.8-307.3-113.4 12.4-341.3 265.7-347.7 659.9-0.8 43.7 1.3 89.3 6.5 136.4 17.1 155 61.6 308.8 119.8 444.6 81.2 189.4 188.9 343.9 285.8 418.1 0 0 13 8.4 35.8 15.4 21 6.3 50.3 11.4 85.4 7.5z"/>
						</g>
						<g id="&lt;Group&gt;">
							<path id="&lt;Path&gt;" class="s4" d="m1543.6 3030.1c73.4-8.1 113.3-48.7 113.3-48.7 134.6-160.7 248.6-559.4 207.7-930.6-17.4-157.3-65.6-289.5-126.9-395.3-122-210.9-295.9-316.7-379.8-307.3-111.2 12.2-332.3 255.8-347.1 636.8q-0.4 11.4-0.7 23.1c-0.7 43.8 1.4 89.3 6.6 136.4 17.1 155 61.6 308.8 119.8 444.6 8.4 19.6 17.1 38.8 26 57.6 77.3 162.9 172.9 294 259.8 360.5 0 0 12.9 8.4 35.8 15.4 21 6.3 50.3 11.4 85.5 7.5z"/>
						</g>
						<g id="&lt;Group&gt;" style="opacity: .3">
							<path id="&lt;Path&gt;" class="s1" d="m1543.5 3030.1c73.5-8.1 113.4-48.8 113.4-48.8 134.6-160.6 248.6-559.3 207.7-930.4-17.4-157.4-65.6-289.6-126.9-395.3-193.5 55-592.4 181.7-408.5 246 192.6 67.3 141.1 191.8-21.2 201.4-95.5 5.7 83.2 219.6 83.2 219.6 0 0-121.3 49.7-75.3 156.1 448.6 65.7 175.9 316.6 175.9 316.6 0 0 4.7 148.8-33.7 227.3 21 6.3 50.3 11.4 85.4 7.5z"/>
						</g>
						<g id="&lt;Group&gt;">
							<path id="&lt;Compound Path&gt;" fill-rule="evenodd" class="s1" d="m1519 3046.4c-63 0-103-25.3-104.9-26.6l-1-0.6c-85.9-65.9-178.5-191.7-254.1-345.3-82.3-167.2-138.2-354.6-157.3-527.8-22.9-207.4 14.6-412.9 105.6-578.6 72.4-131.7 172.4-225.8 248.9-234.3 76.5-8.5 194.6 61.7 294 174.4 125 141.8 206.4 334.1 229.3 541.6 19.1 173.2 5.5 368.3-38.3 549.4-40.3 166.4-103.3 309.4-172.8 392.4l-0.8 0.9c-1.8 1.8-44.5 44.5-122.4 53.1-9.1 1-17.9 1.4-26.2 1.4zm-88.2-51.5c4.7 2.8 47.8 27.2 111.1 20.3 63.3-7 100-40.3 104-44.1 129.7-155.5 244.4-550.5 203.8-918.6-22.3-201.4-101.1-387.8-222-525-102.3-116.1-212.4-170.6-268.2-164.4-55.8 6.1-151.3 83.3-225.9 218.9-88 160.3-124.3 359.4-102 560.8 40.6 368.1 238.7 728.6 399.2 852.1z"/>
						</g>
						<g id="&lt;Group&gt;">
							<path id="&lt;Path&gt;" class="s1" d="m1481.2 2899.5c-89.4 0-171.1-20.4-209.4-47.1-3.7-2.6-4.6-7.7-2.1-11.4 2.6-3.7 7.7-4.6 11.5-2 77.8 54.1 359.6 80.2 479.3-59.2 2.9-3.5 8.1-3.9 11.5-0.9 3.5 2.9 3.9 8.1 0.9 11.5-69 80.5-185.8 109.1-291.7 109.1z"/>
						</g>
						<g id="&lt;Group&gt;">
							<path id="&lt;Path&gt;" class="s5" d="m1040 1797.6q-2 0-4.1-0.5c-8.7-2.3-14-11.2-11.8-19.9 69.6-274.4 237.5-434.9 332-445.3 94.4-10.4 293.3 109.6 421.1 362.1 4.1 8.1 0.8 17.9-7.2 22-8.1 4.1-18 0.9-22.1-7.2-119.5-236.2-305.4-353.5-388.2-344.4-82.9 9.2-238.8 164.3-303.8 420.8-1.9 7.4-8.6 12.4-15.9 12.4z"/>
						</g>
						<g id="&lt;Group&gt;">
							<path id="&lt;Path&gt;" class="s0" d="m1329.2 1901.6c29.2 1.8 59.1 1.1 89.5-2.2 148.8-16.4 273.7-93.4 343.9-198-116.7-230.6-297.8-352-392-353.8-4.5-0.1-8.7 0.1-12.7 0.5-89.8 10-251.4 170.8-317.9 433.1 72.7 69.1 175.3 113.5 289.2 120.4z"/>
						</g>
						<g id="&lt;Group&gt;" style="opacity: .3">
							<path id="&lt;Path&gt;" class="s1" d="m1329.2 1901.6c29.2 1.8 59.1 1.1 89.5-2.2 148.8-16.4 273.7-93.4 343.9-198-116.7-230.6-297.8-352-392-353.8 130.2 77.6 114.8 491.8-41.4 554z"/>
						</g>
						<g id="&lt;Group&gt;">
							<path id="&lt;Path&gt;" class="s1" d="m1040 1797.6q-2 0-4.1-0.5c-8.7-2.3-14-11.2-11.8-19.9 69.6-274.4 237.5-434.9 332-445.3 94.4-10.4 293.3 109.6 421.1 362.1 4.1 8.1 0.8 17.9-7.2 22-8.1 4.1-18 0.9-22.1-7.2-119.5-236.2-305.4-353.5-388.2-344.4-82.9 9.2-238.8 164.3-303.8 420.8-1.9 7.4-8.6 12.4-15.9 12.4z"/>
						</g>
						<g id="&lt;Group&gt;">
							<path id="&lt;Path&gt;" class="s0" d="m1533.3 3135.4c22.1-2.7 30.7-81 19.3-174.9-11.5-94-38.7-167.9-60.8-165.3-22.1 2.7-30.7 81.1-19.3 175 11.5 94 38.7 167.9 60.8 165.2z"/>
						</g>
						<g id="&lt;Group&gt;" style="opacity: .3">
							<path id="&lt;Path&gt;" class="s4" d="m1533.3 3135.5q2.3-0.3 4.3-1.6c-17.5-32.8-33.9-93.9-42.6-164.9-8.8-72.7-7.3-137.3 2.4-172.9q-2.8-1.2-5.6-0.9c-22.1 2.7-30.7 81.1-19.3 175 11.5 94 38.7 167.9 60.8 165.3z"/>
						</g>
						<g id="&lt;Group&gt;" style="opacity: .3">
							<path id="&lt;Path&gt;" class="s1" d="m1533.3 3135.5c22.1-2.7 30.7-81.1 19.3-175-11.5-94-38.7-168-60.8-165.3-3.4 0.5-6.4 2.6-9.2 6.4 15.7 38.6 29.8 96.9 37.9 162.8 8 65.8 8.3 125.7 2.3 167 3.5 3.1 7.1 4.5 10.5 4.1z"/>
						</g>
						<g id="&lt;Group&gt;">
							<path id="&lt;Compound Path&gt;" fill-rule="evenodd" class="s1" d="m1531.9 3148c-16.5 0-31.2-17.9-44.7-54.6-11.8-32.1-21.4-75.3-27.1-121.7-8.2-67.7-11.2-183.8 30.2-188.9 17.8-2.1 33.4 15.7 47.6 54.5 11.8 32.1 21.4 75.3 27.1 121.7 8.3 67.7 11.2 183.8-30.2 188.9q-1.4 0.1-2.9 0.1zm-38.5-340c-9.5 8.6-19.9 67-8.4 160.7 11.4 93.8 35.5 147.9 46.7 154 9.5-8.6 19.9-67 8.5-160.7-11.5-93.8-35.6-148-46.8-154z"/>
						</g>
						<g id="&lt;Group&gt;">
							<path id="&lt;Path&gt;" class="s6" d="m1358.8 2483.3c12.9 0 26.1-1.2 39.3-3.7 107.9-21 179-123 158.7-228.1-18.5-95.4-106-160.5-202.8-155.9q-14.7 0.6-29.6 3.5c-108 21-179 123-158.7 228.1 17.9 92.2 100.2 156 193.1 156.1z"/>
						</g>
						<g id="&lt;Group&gt;">
							<path id="&lt;Path&gt;" class="s7" d="m1358.8 2483.3c12.9 0 26.1-1.2 39.3-3.7 107.9-21 179-123 158.7-228.1-18.5-95.4-106-160.5-202.8-155.9 0 0 96.7 45.8-1.9 88.6-19.1 8.2-9.8 261.7-9.8 261.7 0 0 44.5 8.4 16.5 37.4z"/>
						</g>
						<g id="&lt;Group&gt;">
							<path id="&lt;Compound Path&gt;" fill-rule="evenodd" class="s1" d="m1359.1 2495.8c-98.8 0-186.7-68.1-205.7-166.2-21.6-111.7 54.1-220.6 168.6-242.7 114.6-22.2 225.4 50.6 247 162.2 10.5 54.2-1.3 109.3-33.2 155.1-31.9 45.8-79.9 76.9-135.4 87.6-13.8 2.7-27.7 4-41.3 4zm36.6-28.5c49-9.5 91.5-37 119.6-77.4 28-40.2 38.4-88.6 29.2-136-19-98.1-116.7-162.1-217.7-142.5-101 19.6-167.8 115.3-148.8 213.4 19 98.1 116.6 162.1 217.7 142.5z"/>
						</g>
						<g id="&lt;Group&gt;">
							<path id="&lt;Path&gt;" class="s8" d="m1371.2 2442.8c18.4-4.1 35.1-12.2 49.3-23.1 6.3-4.9 12.2-10.4 17.5-16.3 28.1-31.4 41.1-76.4 30.8-121.7-16.5-73-87-119.3-157.5-103.3q-8.4 1.9-16.2 4.8-3.6 1.3-7.2 2.9c-56.4 25-88.9 88.8-74.3 153.4 16.6 73 87.1 119.3 157.6 103.3z"/>
						</g>
						<g id="&lt;Group&gt;">
							<path id="&lt;Compound Path&gt;" fill-rule="evenodd" class="s1" d="m1343 2454.2c-26.4 0-52.4-7.8-75.3-22.8-31.6-20.7-53.6-52.7-62.1-90.1-15.2-67.3 18-135.7 79-162.7q3.7-1.7 7.7-3.1c5.5-2.1 11.3-3.8 17.2-5.1 74.7-16.9 149.8 32.2 167.3 109.5 10.5 46.2-1.8 94.4-32.7 129-5.6 6.3-11.9 12.1-18.6 17.3-15.6 12-33.3 20.3-52.5 24.6-10 2.3-20.1 3.4-30 3.4zm-3.8-270.8c-8.6 0-17.4 1-26.1 3-5.2 1.1-10.2 2.6-15.1 4.5-2.3 0.8-4.5 1.7-6.7 2.7-53.9 23.8-83.2 84.4-69.7 144.1 7.5 33.2 27.1 61.6 55.1 80 27.8 18.3 60.8 24.4 92.6 17.2h0.1c16.9-3.9 32.4-11.2 46.1-21.7 5.9-4.6 11.4-9.7 16.4-15.2 27.4-30.7 38.2-73.4 28.9-114.5-13.4-59.4-65.1-100.1-121.6-100.1z"/>
						</g>
						<g id="&lt;Group&gt;">
							<path id="&lt;Path&gt;" class="s9" d="m1385.2 2427.1q8.6-0.8 17.3-2.7 8.3-1.9 16.2-4.8c6.3-4.9 12.2-10.4 17.4-16.3 28.2-31.4 41.1-76.4 30.9-121.7-1.7-7.3-3.9-14.4-6.6-21.1-9.1-23-23.9-42.4-42.2-56.9q-9.1-7.2-19.2-12.6c-18.4-10.1-39.3-15.8-60.8-15.9-9.5 0-19.1 1-28.7 3.2-5.6 1.2-11 2.8-16.2 4.8-39.9 30.7-60.5 84.1-48.3 137.9 2.7 12 6.8 23.1 12.2 33.5 10.7 20.8 26.4 38.2 45 50.7 6.4 4.2 13 7.9 19.9 11 19.5 8.8 41.1 12.8 63.1 10.9z"/>
						</g>
						<g id="&lt;Group&gt;" style="opacity: .3">
							<path id="&lt;Path&gt;" class="s4" d="m1302.2 2405.2l96.8-214.2c-18.4-10.1-39.3-15.8-60.8-15.9l-81 179.4c10.7 20.8 26.4 38.2 45 50.7z"/>
						</g>
						<g id="&lt;Group&gt;" style="opacity: .3">
							<path id="&lt;Path&gt;" class="s4" d="m1385.2 2427.1l75.2-166.6c-9.1-23-23.9-42.4-42.2-56.9l-96.1 212.6c19.5 8.8 41.1 12.8 63.1 10.9z"/>
						</g>
						<g id="&lt;Group&gt;">
							<path id="&lt;Compound Path&gt;" fill-rule="evenodd" class="s1" d="m1376.1 2435.8c-26.4 0-52.3-7.7-75.3-22.8-31.5-20.7-53.5-52.6-62-90-12.5-55.3 7.7-112.7 51.3-146.3l1-0.8 1.2-0.4c5.5-2.1 11.3-3.8 17.2-5.1 74.7-16.9 149.8 32.2 167.3 109.5 10.5 46.2-1.8 94.4-32.7 129-5.6 6.3-11.9 12.1-18.6 17.3l-1 0.7-1.2 0.4c-5.5 2.1-11.3 3.9-17.2 5.2-9.9 2.2-20 3.3-30 3.3zm-77-245.4c-37.9 29.8-55.3 80.3-44.3 128.9 7.5 33.3 27.1 61.7 55 80 27.9 18.3 60.8 24.4 92.7 17.2 4.7-1.1 9.4-2.4 13.9-4.1 5.6-4.4 10.8-9.2 15.5-14.4 27.4-30.7 38.2-73.4 28.9-114.5-15.5-68.5-81.8-112-147.7-97.1-4.7 1-9.4 2.4-14 4z"/>
						</g>
						<g id="&lt;Group&gt;" style="opacity: .5">
							<path id="&lt;Path&gt;" class="s4" d="m1260.5 1455.4c-51.1 21.9-131.8 146.8-142.1 223.1-13.2 96.9 59.5 38.1 92.8-21.6 44.2-79.5 100.4-223.4 49.3-201.5z"/>
						</g>
						<g id="&lt;Group&gt;" style="opacity: .3">
							<path id="&lt;Path&gt;" class="s4" d="m1303.7 1568.6c-25.5-1.5-62.2 69.5-64.8 118.5-2.7 48.8 29.3 38 47.5 2 21.5-42.7 31.9-119.7 17.3-120.5z"/>
						</g>
						<g id="&lt;Group&gt;">
							<path id="&lt;Path&gt;" class="s1" d="m1361.7 1918.9c-126.8 0-248.2-45.2-333-125.8-6.6-6.3-6.8-16.6-0.6-23.2 6.2-6.6 16.6-6.8 23.2-0.6 90.9 86.5 227.6 129 365.6 113.8 138-15.2 262.2-86.6 332.1-190.9 5-7.5 15.2-9.5 22.7-4.4 7.5 5 9.5 15.2 4.5 22.7-75.2 112.2-208.2 188.9-355.7 205.2-19.6 2.1-39.3 3.2-58.8 3.2z"/>
						</g>
					</g>
					<g id="&lt;Group&gt;">
						<path id="&lt;Path&gt;" class="s4" d="m2412.2 1806.5c0 0 119.5 71.6 190.6 287.5 123.3 374.4 83.1 679.6 43.5 773.9-47 111.7-167.4 79.6-167.4 79.6l-90.9-605.4"/>
					</g>
					<g id="&lt;Group&gt;">
						<path id="&lt;Path&gt;" class="s1" d="m2517 2968.5c-16.2 0-30.8-2.1-42.3-5.2-6.3-1.6-11-6.9-12-13.4l-90.9-605.4c-1.3-8.9 4.8-17.3 13.8-18.6 8.9-1.4 17.3 4.8 18.6 13.8l89.2 594c27.8 4.3 104.1 8 137.7-72.2 37.9-90.1 77-395.1-43.9-762.4-68-206.6-182.3-277.9-183.4-278.6-7.8-4.7-10.3-14.7-5.6-22.5 4.7-7.7 14.7-10.2 22.5-5.6 5 3.1 125.5 77.3 197.6 296.5 119.4 362.6 89.8 674.1 43.1 785.3-31.3 74.4-95 94.3-144.4 94.3z"/>
					</g>
					<g id="&lt;Group&gt;">
						<path id="&lt;Path&gt;" class="s1" d="m2418 2310.6c-5.5 0-10.9-2.8-14-7.9-4.7-7.7-2.2-17.8 5.5-22.5 5.7-3.5 141.2-84.4 243.2-43.5 8.4 3.4 12.4 12.9 9.1 21.3-3.4 8.4-12.9 12.5-21.3 9.1-86.8-34.8-212.7 40.4-214 41.1-2.7 1.6-5.6 2.4-8.5 2.4z"/>
					</g>
					<g id="&lt;Group&gt;">
						<g id="&lt;Group&gt;">
							<path id="&lt;Path&gt;" class="s4" d="m2648.8 2682.9c0 0 0 160.5-74.8 154.4-64.5-5.3-54.5-143-54.5-143"/>
						</g>
						<g id="&lt;Group&gt;">
							<path id="&lt;Path&gt;" class="s1" d="m2648.8 2682.9c13.6 50.1 9.6 122.8-32.4 159.6-37 29-84.1 10.6-100.7-30.9-13.1-30.2-15.4-62.9-14.5-94.9 0.3-7.9 0.9-15.3 2-23.6 1.2-8.9 9.4-15.3 18.4-14.1 8.4 1.1 14.4 8.3 14.3 16.5 0.7 27.6 2.8 56.9 9.5 82.3 5.1 16.8 10.1 32.3 24.4 39.1 14.1 5.3 27.5-2.6 35.7-14.8 22.6-35.3 28.9-77.7 43.3-119.2z"/>
						</g>
					</g>
					<g id="&lt;Group&gt;" style="opacity: .3">
						<path id="&lt;Path&gt;" class="s1" d="m1745.1 1987.3c81.5 49 203.2 92.4 378.7 92.4 142.4 0 248.4-43.2 326.2-99.3l-53.8-129.6c-348.1-615.9-438.8-84.9-438.8-84.9 0 0-122.2 62.1-212.3 221.4z"/>
					</g>
					<g id="&lt;Group&gt;" style="opacity: .3">
						<path id="&lt;Path&gt;" class="s1" d="m1786.1 1923.6c99.1 83.4 245.2 136.1 408 136.1 97.2 0 188.5-18.8 267.4-51.7l-65.3-157.2c-348.2-615.8-438.8-84.9-438.8-84.9 0 0-89.1 45.3-171.3 157.7z"/>
					</g>
					<g id="&lt;Group&gt;">
						<path id="&lt;Path&gt;" class="s4" d="m1883.5 2486.3c0 0 156.7 244.7 197.1 360.7 54.1 155.1-6 580.8 35.6 658.8 18.1 33.9 51.5 65.8 224.9 65.8 131.5 0 221.1 0.1 223.9-90.3 2.1-67.3-86.1-98.1-86.1-98.1l99.1-737.3"/>
					</g>
					<g id="&lt;Group&gt;">
						<path id="&lt;Path&gt;" class="s4" d="m2080.6 2847c54.1 155.2-6 580.7 35.6 658.7 18.1 34 51.5 65.9 224.9 65.9 131.5 0 221.1 0.1 223.9-90.3 0.1-2.1 0.1-4.1-0.1-6.1-3.1-63-86-92-86-92l71.7-533.5 27.4-203.8-694.5-159.6c0 0 156.7 244.7 197.1 360.7z"/>
					</g>
					<g id="&lt;Group&gt;" style="opacity: .3">
						<path id="&lt;Path&gt;" class="s1" d="m2080.6 2847c54.1 155.2-6 580.7 35.6 658.7 18.1 34 51.5 65.9 224.9 65.9 131.5 0 221.1 0.1 223.9-90.3 0.1-2.1 0.1-4.1-0.1-6.1-19.8 15.6-66.8 39.4-168.7 40.1-152.3 1-236.6-13.5-251.4-99.2-14.7-85.7-7.4-232.2 42-315.7 50-84.7 243-65.7 363.8-250.7l27.4-203.8-694.5-159.6c0 0 156.7 244.7 197.1 360.7z"/>
					</g>
					<g id="&lt;Group&gt;">
						<path id="&lt;Path&gt;" class="s1" d="m1897.3 2477.5c58 92.1 114.1 185 163.1 282.3 16 33.3 32.6 67.1 42 103.1 17.4 72.6 17.8 145.6 18.7 219.1 0.5 108.3-6.3 216-3.6 323.8 3.6 82.4 4 124 96.8 140.4 51.4 9.3 105.8 9.1 158.6 8.9 35-0.3 70.9-0.4 105-6.3 16.6-2.8 32.5-7.6 44.7-15.4 19.1-11.3 26.5-34.4 26-55.7-1.3-39-39.5-64.6-75.4-79.1-7.3-2.8-11.5-10.2-10.5-17.6l99-737.3c3.2-20.7 34.6-17.8 32.5 4.4 0 0-99 737.3-99 737.3l-10.9-17.7c10 3.7 18 7.6 27.1 12.6 48.1 26.2 81.5 70.2 66.5 127.9-22.3 86.2-135.2 77.4-204.8 79.7-55.2 0.2-109.5 0.5-164.8-9.5-40.6-6.8-87.4-24.5-106.5-64.7-15.5-33.3-15.1-71.3-17.1-106.8-1.1-36.6-0.7-72.8-0.1-109 1.8-108 7.1-215.4 0.5-322.9-3.2-44.1-7.1-87.3-22-128.1-22.1-58.1-52.4-112.7-82.6-167.1-35.2-62.5-72.5-124.2-110.9-184.8-10.8-17.6 14.8-36.1 27.7-17.5z"/>
					</g>
					<g id="&lt;Group&gt;">
						<path id="&lt;Path&gt;" class="s1" d="m2272.1 3190.3c-93.3 0-165.9-19.6-171.3-21.1-6.6-1.8-10.4-8.6-8.6-15.1 1.8-6.6 8.6-10.4 15.1-8.6 2.4 0.7 235.7 63.5 400.9-38.8 5.8-3.6 13.3-1.8 16.9 3.9 3.6 5.8 1.8 13.4-4 17-79.3 49.1-171.3 62.7-249 62.7z"/>
					</g>
					<g id="&lt;Group&gt;">
						<path id="&lt;Path&gt;" class="s4" d="m1654.9 2633.3q3.9 35.8 9.3 69.2c49.3 296.6 455.2 368.4 708.8 242.2l154-131.7c16.7-25.8 29.8-54 38.3-84.9 4.2-15.1 7.7-30.6 10.6-46.1 39.2-212.8-40.6-459.5-84.6-602.3l-95.1-228.9c-348.2-615.8-438.8-84.9-438.8-84.9 0 0-260.6 132.4-301.4 506.4-13.9 127.2-13 251.9-1.1 361z"/>
					</g>
					<g id="&lt;Group&gt;">
						<path id="&lt;Path&gt;" class="s4" d="m2575.9 2682c-2.9 15.5-6.4 31-10.6 46.2-8.6 30.8-21.6 59-38.3 84.7l-154 131.8c-253.6 126.2-659.5 54.4-708.8-242.3q-5.4-33.3-9.3-69.1c-11.9-109.1-12.8-233.8 1.1-361 14.6-133.7 57.2-236.4 106-313.3 87.8-138.4 195.4-193 195.4-193 0 0 90.7-531.1 438.8 84.8l49.2 118.5 45.9 110.4c44.1 142.8 123.8 389.5 84.6 602.3z"/>
					</g>
					<g id="&lt;Group&gt;" style="opacity: .3">
						<path id="&lt;Path&gt;" class="s1" d="m2445.4 1969.3c-262.7 139.8-526.2 63.6-683.4-10.3 87.8-138.4 195.4-193 195.4-193 0 0 90.7-531.1 438.8 84.8z"/>
					</g>
					<g id="&lt;Group&gt;" style="opacity: .3">
						<path id="&lt;Path&gt;" class="s1" d="m1901.4 1806.5l-56.2 187.3c-81.2-29.8-145.7-65.6-185.2-90.1 61.5-37.9 140.4-72.5 241.4-97.2z"/>
					</g>
					<g id="&lt;Group&gt;" style="opacity: .3">
						<path id="&lt;Path&gt;" class="s1" d="m1654.9 2633.3q3.9 35.8 9.3 69.2c49.3 296.6 455.2 368.4 708.8 242.2l154-131.7c16.7-25.8 29.8-54 38.3-84.9 4.2-15.1 7.7-30.6 10.6-46.1-203.3 127-616.1 154.6-921-48.7z"/>
					</g>
					<g id="&lt;Group&gt;">
						<path id="&lt;Path&gt;" class="s1" d="m2527 2813c12.7-29.4 20-59.9 22.9-90.1 38.3-150.5 14.6-309-18.8-458.7-14-61-30.9-121.4-47.6-182.1-1.3-4.3 1.3-8.8 5.7-10 4.2-1.2 8.5 1.1 9.9 5.2 20.6 59.5 40.7 119.4 57.3 180.5 41.8 152.9 67.8 317.7 24.7 473.7-13.6 30.6-32.5 58.1-54.1 81.5z"/>
					</g>
					<g id="&lt;Group&gt;">
						<path id="&lt;Path&gt;" class="s1" d="m2381.9 1858.8c-52.8-91.2-230-401.3-346.4-246.1-34.3 46.7-52.9 107.1-63.3 164-36.1 18.8-68.4 44.8-98.1 72.7-147.7 140.9-201.4 326.5-207.2 525.7-4.5 116.7-1.1 234.8 22.2 349.3 63.4 238 357.5 292.7 569.3 248.1 38.8-6.8 76.5-16.8 114.6-27.8-32.4 24.2-69.8 40.9-108.2 53.4-77.8 24.3-160.8 27.8-241.5 19-194-22.1-365.3-136.5-383.4-343.7-18.4-139.4-17.4-280.6-0.1-420 20-160.8 91.2-317.7 211.1-428.7 30.3-28 62.7-53.5 99.1-73.4 0 0-8.8 12-8.7 11.9 16.4-81.1 56.8-207.9 150-224.9 66.6-9.8 123.4 39.5 165.8 83.6 61.2 66.1 109 143.2 153.4 220.8 10.1 19.3-17.4 34.6-28.6 16.1z"/>
					</g>
					<g id="&lt;Group&gt;" style="opacity: .5">
						<path id="&lt;Path&gt;" class="s4" d="m1813.8 1567c1.7 26.3-15.5 48.9-38.4 50.5-22.8 1.6-42.8-18.4-44.5-44.7-1.7-26.3 15.5-48.9 38.4-50.5 22.9-1.6 42.8 18.4 44.5 44.7z"/>
					</g>
					<g id="&lt;Group&gt;">
						<path id="&lt;Path&gt;" class="s4" d="m2099.6 2981.6c-0.5 233.4-45.3 451.8-45.3 451.8 0 0 47.2 61 0.8 117.1-28.2 34.1-97.7 34.2-97.7 34.2h-196c0 0-53.6-5.2-74.2-64.4-10.1-29.3-6.3-420-18.4-675.9-3.6-78.1-11.7-117.7-17.8-199.8z"/>
					</g>
					<g id="&lt;Group&gt;">
						<path id="&lt;Path&gt;" class="s4" d="m1651 2644.6c6.1 82.1 14.2 121.7 17.8 199.8 2.9 60.1 4.8 127.8 6.3 196.4 4.8 223.3 4.3 457.1 12.1 479.5 20.6 59.2 74.2 64.4 74.2 64.4h196c0 0 69.5-0.1 97.7-34.3 46.4-56-0.8-117-0.8-117 0 0 35.9-175 43.8-379.1 0.9-23.9 1.4-48.2 1.5-72.7z"/>
					</g>
					<g id="&lt;Group&gt;" style="opacity: .3">
						<path id="&lt;Path&gt;" class="s1" d="m1683.2 3478c1 22.6 2.4 37.4 4 42.3 20.6 59.2 74.2 64.4 74.2 64.4h196c0 0 69.5-0.1 97.7-34.3 19.8-24 22.5-48.9 19.2-69.5q-1.8 2.6-4 5.1c-30.5 37.1-71 45.3-186.8 45.3-115.8 0-174-12.3-200.3-53.3z"/>
					</g>
					<g id="&lt;Group&gt;" style="opacity: .3">
						<path id="&lt;Path&gt;" class="s1" d="m1725.3 2700.4c-28.7-21.5-69.3 1.6-65.4 37.3 3.6 32.9 6.9 64 8.9 106.7 2.2 45.5 3.8 95.4 5.1 146.8 0.7 25.1 23.5 43.7 48.3 39.3 88.2-15.9 196.9-16.1 327.5 12.2 25.3 5.5 49.3-13.5 49.7-39.4q0-0.3 0-0.7c0.2-13.1-5.9-25.6-16.4-33.5z"/>
					</g>
					<g id="&lt;Group&gt;">
						<path id="&lt;Path&gt;" class="s1" d="m2107.8 2981.6c13 152.7-10.2 305.1-37.4 455.1 0 0-3.1-13.4-3.1-13.4 6.5 8.8 10.9 17.4 15.1 27.2 22.5 49.6 3.5 113-48.1 134.8-24.6 10.8-49.1 14.6-74.8 15.7-6.9 0-30 0.1-37.3 0.1-34.1 0-125.6-0.1-160.8 0-24.9-2.7-48-15.5-65-33.7-12.4-13.7-22-30.1-26.2-48-5.8-43-4.5-96.8-6.2-140.3-4.1-192-1.7-421.1-17.3-610.9-4.2-40.3-9.1-81.4-12.1-122.5-1-20.9 30.3-24.5 32.7-2.3 4.3 60.7 13.6 122 17 183.2 9.6 190.2 9.4 421.6 13.9 613 1 25.2 0.9 51 4.5 75.3 6.6 19.2 19.5 36.1 37.6 45.6 7.1 3.8 14.8 6.6 22.7 7.8h-1.6c35.7 0 126.4 0 160.8 0 8.7-0.1 31 0.2 39.4-0.2 27-1.8 56.9-6.5 77.1-24.2 15.4-15.3 23.1-37.2 19.6-59-2.2-14.5-8.5-29.6-17-41.6-2.9-3.9-3.9-8.8-3-13.2 7.1-36.6 13.3-73.9 18.4-111.2 10.2-73.4 17.1-150.8 24.1-224.6 3.7-37.6 6.6-75.1 10.6-112.9 0.9-9.3 15.4-10.1 16.4 0.2z"/>
					</g>
					<g id="&lt;Group&gt;">
						<path id="&lt;Path&gt;" class="s4" d="m2087.3 3199.2c0 0-130.6 59.7-406.4-7.7"/>
						<path id="&lt;Path&gt;" class="s1" d="m1924 3236.1c-63.4 0-145.1-8-246.1-32.6-6.5-1.6-10.6-8.3-9-14.9 1.6-6.6 8.3-10.6 14.9-9 267.4 65.3 397.2 9 398.4 8.5 6.2-2.8 13.5-0.1 16.3 6.1 2.8 6.1 0.1 13.4-6.1 16.2-3.5 1.6-58.1 25.7-168.4 25.7z"/>
					</g>
					<g id="&lt;Group&gt;">
						<g id="&lt;Group&gt;">
							<path id="&lt;Path&gt;" class="s4" d="m1756 3415c0 0 116.7-40.9 259 1.1"/>
						</g>
						<g id="&lt;Group&gt;">
							<path id="&lt;Path&gt;" class="s1" d="m1756 3415c75.4-41.6 183.6-39.5 259 1.1-5.7-0.1-11.2-0.5-16.7-0.9-81-7.4-161-7.3-242.3-0.2z"/>
						</g>
					</g>
					<g id="&lt;Group&gt;">
						<g id="&lt;Group&gt;">
							<path id="&lt;Path&gt;" class="s4" d="m2478.9 3383.2c0 0-98.8 19.8-181.8 13.8"/>
						</g>
						<g id="&lt;Group&gt;">
							<path id="&lt;Path&gt;" class="s1" d="m2481.3 3395.3c-30.9 3.7-61.4 5.7-92.4 6.3-30.7 0.5-61.5-0.6-91.8-4.6 45.8-0.1 90.8-6.7 135.5-15.7 14.8-3 29.7-6.4 44.1-10.2 16.8-3.8 21.8 21.4 4.6 24.2z"/>
						</g>
					</g>
					<g id="&lt;Group&gt;">
						<path id="&lt;Path&gt;" class="s4" d="m1901.4 1806.5c-401.6 98.2-453.1 352.1-453.1 352.1 0 0-88.1 151.2 26.7 302.3 132.9 174.9 258.2-93.8 258.2-93.8z"/>
					</g>
					<g id="&lt;Group&gt;" style="opacity: .3">
						<path id="&lt;Path&gt;" class="s1" d="m1901.4 1806.5l-56.2 187.3c-81.2-29.8-145.7-65.6-185.2-90.1 61.5-37.9 140.4-72.5 241.4-97.2z"/>
					</g>
					<g id="&lt;Group&gt;">
						<path id="&lt;Path&gt;" class="s1" d="m1569.6 2536.5c-38.3 0-74.5-22.1-107.6-65.7-112-147.4-40.1-297.2-29.1-318 3.1-13.2 20.2-73.5 78.8-143.9 59.1-71 174-166.6 385.8-218.3 8.8-2.2 17.7 3.2 19.8 12 2.2 8.8-3.2 17.6-12 19.8-201.8 49.4-311 139.1-367 205.8-60.5 71.9-73.8 133.1-73.9 133.7-0.4 1.8-1 3.5-1.9 5-3.3 5.8-81 143.8 25.6 284.1 28.8 37.9 58.7 55.5 88.9 52.3 77.5-8.3 140.8-141.7 141.4-143.1 3.8-8.2 13.6-11.7 21.8-7.9 8.2 3.8 11.7 13.6 7.9 21.8-2.9 6.2-71.8 151.5-167.6 161.8q-5.4 0.6-10.9 0.6z"/>
					</g>
					<g id="&lt;Group&gt;">
						<path id="&lt;Path&gt;" class="s10" d="m2378.3 1874.9c184.7 245.2 120.4 478.6 191.6 611.4 0 0 9 4.4 13.4-23.8 22.6-143.4-5.3-516.1-160.5-656-71.7-109.9-115.7-26.1-44.5 68.4z"/>
					</g>
					<g id="&lt;Group&gt;">
						<path id="&lt;Path&gt;" class="s11" d="m2583.3 2462.5c-4.4 28.2-13.4 23.8-13.4 23.8-62.3-116.2-20.8-309.5-133.3-520.4-16-30-35.2-60.4-58.3-91-71.2-94.5-27.2-178.2 44.5-68.4 35.1 31.6 63.6 75.2 86.7 125.3 78.5 171.4 91.3 419.7 73.8 530.7z"/>
					</g>
					<g id="&lt;Group&gt;">
						<path id="&lt;Path&gt;" class="s12" d="m2509.5 1931.8c-33.7-8.4-60.1 17.8-72.9 34.1-16-30-35.2-60.4-58.3-91-71.2-94.5-27.2-178.2 44.5-68.4 35.1 31.6 63.6 75.2 86.7 125.3z"/>
					</g>
					<g id="&lt;Group&gt;">
						<path id="&lt;Compound Path&gt;" fill-rule="evenodd" class="s1" d="m2571.2 2503c-3 0-5.9-0.7-8.5-2-3.1-1.5-5.6-3.9-7.3-6.9-28-52.4-35.8-117.2-44.9-192.2-14.4-119-32.2-267.1-145.3-417.1-34-45.2-47.8-95.4-34.5-125 5.8-12.8 16.5-20.7 29.5-21.7 23-1.7 49 18.1 75.1 57.6 165.6 151.6 184.6 539.8 164.2 669.4-1.9 12-5.9 28.9-18.4 35.4-3.2 1.6-6.6 2.5-9.9 2.5zm-208.2-732.2q-0.1 0-0.3 0c-0.2 0-1 0.1-2.1 2.5-6 13.2-0.3 50.4 30.8 91.8 118.3 157 136.8 310 151.6 432.9 6.7 55 12.6 104.3 26.4 145.4 18.7-157.6-17.5-498.4-157.6-624.7q-1.6-1.5-2.8-3.3c-24-36.8-41-44.6-46-44.6z"/>
					</g>
					<g id="&lt;Group&gt;">
						<g id="&lt;Group&gt;">
							<path id="&lt;Path&gt;" class="s4" d="m2487.5 2480.4c0 0 71.2 6.8 95.8-17.9 0 0 93.9 52.4 27.5 136.6-51 64.7-188 48.6-188 48.6"/>
						</g>
						<g id="&lt;Group&gt;" style="opacity: .3">
							<path id="&lt;Path&gt;" class="s1" d="m2422.8 2647.7c0 0 137 16.1 188-48.6 33.8-42.9 26.1-77.5 10.3-101.1-3.7 10.2-9.8 21-18.8 32.5-34.7 44.1-109.5 50.6-153.6 50.3z"/>
						</g>
						<g id="&lt;Group&gt;">
							<path id="&lt;Path&gt;" class="s1" d="m2459.9 2665.9c-21.8 0-37.2-1.7-39-1.9-9-1.1-15.5-9.2-14.4-18.2 1-9 9.2-15.4 18.2-14.4 1.3 0.2 128.6 14.2 173.3-42.4 16.4-20.8 22.8-40.8 19.2-59.3-4.4-22.3-22.4-38.9-33.4-47.1-33.2 19.6-90.6 14.8-97.8 14.1-9-0.8-15.6-8.8-14.8-17.9 0.9-9 8.9-15.6 17.9-14.7 26.4 2.5 69.5 0 82.6-13.2l8.8-8.8 10.8 6.1c2 1.1 48.5 27.5 58 75 5.7 28.3-2.9 57.3-25.6 86.1-38.3 48.6-116.4 56.6-163.8 56.6z"/>
						</g>
						<g id="&lt;Group&gt;">
							<path id="&lt;Path&gt;" class="s4" d="m2477 2741.1l-417.7 18.6c-49.5 2.2-91.8-36.5-94-86l-9.8-222.3c-2-43.3 27.4-81.1 68-91.3 5.8-1.5 11.7-2.3 17.9-2.6l417.7-18.6c49.5-2.2 91.7 36.5 93.9 86l7.8 176 2.1 46.3c2.2 49.5-36.5 91.7-85.9 93.9z"/>
						</g>
						<g id="&lt;Group&gt;">
							<path id="&lt;Path&gt;" class="s4" d="m2477 2741.1l-417.7 18.6c-49.5 2.2-91.8-36.5-94-86l-9.8-222.3c-2-43.3 27.4-81.1 68-91.3 5.8-1.5 11.7-2.3 17.9-2.6l417.7-18.6c49.5-2.2 91.7 36.5 93.9 86l7.8 176 2.1 46.3c2.2 49.5-36.5 91.7-85.9 93.9z"/>
						</g>
						<g id="&lt;Group&gt;">
							<path id="&lt;Path&gt;" class="s4" d="m1955.5 2451.4l4.2 96.5 5.6 125.8c2.2 49.5 44.5 88.2 94 86l417.7-18.6c49.4-2.2 88.1-44.4 85.9-93.9l-2-46.2-1.9-41.3-6-134.8c-2.2-49.5-44.4-88.2-93.9-86l-417.7 18.6c-6.2 0.3-12.2 1.1-17.9 2.6-40.5 10.2-70 48-68 91.3z"/>
						</g>
						<g id="&lt;Group&gt;" style="opacity: .3">
							<path id="&lt;Path&gt;" class="s1" d="m1959.7 2547.9l5.6 125.8c2.2 49.5 44.5 88.2 94 86l417.7-18.6c49.4-2.2 88.1-44.4 85.9-93.9l-2-46.2-1.9-41.3c-13 39.7-39.1 89.4-89.9 103.4-123 33.8-187.3-20.6-218.9-127.4 0 0-117.8-31.8-137.4-1.8-19.6 30-8.3 84.2-34.4 79.5-25.9-4.7-25.4-91.7-25.4-91.7z"/>
						</g>
						<g id="&lt;Group&gt;">
							<path id="&lt;Compound Path&gt;" fill-rule="evenodd" class="s1" d="m2035 2777.1c-45.3 0-83.1-35.8-85.1-81.5l-11.8-264.6c-2-47 34.5-86.9 81.4-89l460-20.4c46.9-2.1 86.9 34.4 89 81.4l11.7 264.6c1 22.7-6.9 44.4-22.3 61.3-15.4 16.8-36.4 26.7-59 27.7l-460.1 20.4q-1.9 0.1-3.8 0.1zm448.3-422.8q-1.1 0-2.3 0.1l-460 20.4c-28.9 1.3-51.4 25.8-50.1 54.7l11.8 264.7c1.2 28.9 25.8 51.3 54.7 50.1l460-20.5c13.9-0.6 26.8-6.7 36.3-17 9.5-10.4 14.4-23.8 13.8-37.7l-11.8-264.7c-1.2-28.1-24.5-50.1-52.4-50.1zm-445.2 406.3h0.1z"/>
						</g>
						<g id="&lt;Group&gt;">
							<path id="&lt;Path&gt;" class="s4" d="m1955.5 2451.4l1.2 29.1 2.8 61.9 1.5 32.6 4.4 98.7c0.5 13.2 4 25.7 9.7 36.8 15.5 30.5 47.9 50.7 84.2 49.2l106.8-6.3c-49.5 2.1-91.8-36.6-94-86l-3.5-79.5-1-22.8-5.3-120c-2-43.8 28.1-81.9 69.4-91.6l-90.3 4c-49.4 2.2-88.1 44.4-85.9 93.9z"/>
						</g>
						<g id="&lt;Group&gt;">
							<path id="&lt;Path&gt;" class="s13" d="m1956.7 2480.5l2.8 61.9 1.5 32.6 4.4 98.7c0.5 13.2 4 25.7 9.7 36.8 15.5 30.5 47.9 50.7 84.2 49.2l106.8-6.3c-49.5 2.1-91.8-36.6-94-86l-3.5-79.5c-7.1 5.1-15.8 7.9-22-1.5-12.4-18.6-20.6-101.2-49.8-111-9.7-3.2-24.6-0.3-40.1 5.1z"/>
						</g>
						<g id="&lt;Group&gt;">
							<path id="&lt;Compound Path&gt;" fill-rule="evenodd" class="s1" d="m2055.2 2776.2c-26.6 0-51.9-9.9-71.7-28-21-19.3-33.3-45.4-34.5-73.7l-9.9-222.3c-1.3-28.3 8.6-55.5 27.9-76.5 19.2-21.1 45.4-33.3 73.7-34.6l90.2-4 4.5 32.3c-34.4 8.1-58.3 39.7-56.7 74.9l9.8 222.4c0.9 19.5 9.4 37.6 24 51 14.5 13.3 33.3 20.2 52.8 19.3 2.6-0.2 250.3-11.2 268.8-12l17.5-0.9 0.8 16.5c0.5 11.7-6.7 15.4-15.8 16.7v0.4l-376.5 18.4q-2.5 0.1-4.9 0.1zm15.7-403.6l-28.8 1.2c-19.5 0.9-37.6 9.4-50.9 24-13.4 14.6-20.2 33.3-19.3 52.9l9.8 222.3c0.9 19.6 9.4 37.7 24 51 14.5 13.3 33.3 20.2 52.8 19.3l31.7-1.5c-20.9-19.3-33.2-45.4-34.4-73.7l-9.9-222.3c-1.2-27.5 8.2-53.4 25-73.2z"/>
						</g>
						<g id="&lt;Group&gt;">
							<path id="&lt;Path&gt;" class="s11" d="m2232 2550.7c0.3 8.2-8.7 75.1-8.7 75.1 0 0-21 0.8-46.8 1.8-32.3 1.2-59.7-31.2-61.3-72.4-1.6-41.2 23.3-75.6 55.5-76.8 21.8-0.9 46.9-1.8 46.9-1.8 0 0 13.9 60.7 14.4 74.1z"/>
						</g>
						<g id="&lt;Group&gt;">
							<path id="&lt;Path&gt;" class="s12" d="m2232 2550.7c0.3 8.2-8.7 75.1-8.7 75.1 0 0-21 0.8-46.8 1.8-32.3 1.2-59.7-31.2-61.3-72.4-1.6-41.2 23.3-75.6 55.5-76.8 21.8-0.9 46.9-1.8 46.9-1.8 0 0 13.9 60.7 14.4 74.1z"/>
						</g>
						<g id="&lt;Group&gt;">
							<path id="&lt;Compound Path&gt;" fill-rule="evenodd" class="s1" d="m2174.6 2639.9c-18.6 0-36.1-8.7-49.6-24.6-13.4-15.8-21.2-36.9-22.1-59.6-0.9-22.6 5.3-44.3 17.4-61.1 12.7-17.6 30.5-27.8 49.9-28.5l41.3-1.6c9.2-0.3 17.3 5.9 19.3 14.8 4.8 21.6 13 59.6 13.5 70.9 0.2 5.6-2.5 29.7-8 71.6-1.3 9.2-8.9 16.1-18.2 16.5l-41.1 1.6q-1.2 0-2.4 0zm33.2-150.7l-36.6 1.5c-11.8 0.4-22.8 6.9-31 18.3-8.9 12.3-13.4 28.6-12.7 45.8 0.6 17.1 6.4 33 16.2 44.6 9.1 10.7 20.6 16.4 32.3 15.9l36.5-1.4c5.1-38.6 7.3-59.3 7.2-62.7-0.2-6.3-4.9-30.4-11.9-62z"/>
						</g>
						<g id="&lt;Group&gt;">
							<path id="&lt;Path&gt;" class="s11" d="m2278.8 2548.9c1.6 41.2-23.2 75.6-55.5 76.9-32.2 1.2-59.7-31.2-61.3-72.4-1.6-41.2 23.3-75.6 55.6-76.8 32.2-1.3 59.6 31.1 61.2 72.3z"/>
						</g>
						<g id="&lt;Group&gt;">
							<path id="&lt;Path&gt;" class="s12" d="m2162 2553.4c1.6 41.2 29.1 73.6 61.3 72.4 32.3-1.3 57.2-35.7 55.5-76.9-0.2-5.6-0.9-11-2-16.2-7.2 28.6-27.8 49.6-52.9 50.5-27.8 1.1-52.1-22.9-59.2-56.1-2.1 8.3-3 17.1-2.7 26.3z"/>
						</g>
						<g id="&lt;Group&gt;">
							<path id="&lt;Path&gt;" class="s4" d="m2162 2553.4q0.2 4.2 0.8 8.3c5.1-32.5 27.1-57.3 54.4-58.3 30-1.1 55.9 26.9 60.5 64.1q1.5-9 1.1-18.6c-1.5-41.2-29-73.6-61.2-72.4-32.3 1.3-57.1 35.7-55.6 76.9z"/>
						</g>
						<g id="&lt;Group&gt;">
							<path id="&lt;Compound Path&gt;" fill-rule="evenodd" class="s1" d="m2221.5 2638.1c-18.6 0-36.2-8.7-49.7-24.6-13.3-15.8-21.2-36.9-22.1-59.6-0.8-22.7 5.3-44.4 17.4-61.1 12.8-17.6 30.5-27.8 50-28.5 39-1.6 72.2 36.2 74 84.1 1.9 47.9-28.3 88.1-67.3 89.6q-1.2 0.1-2.3 0.1zm-2.1-149.3q-0.7 0-1.4 0c-11.7 0.5-22.7 7-30.9 18.4-8.9 12.3-13.4 28.6-12.8 45.7 0.7 17.2 6.5 33.1 16.3 44.7 9 10.7 20.5 16.3 32.2 15.9 25.5-1 45.1-29.8 43.8-64.1-1.3-33.8-22.4-60.6-47.2-60.6z"/>
						</g>
						<g id="&lt;Group&gt;">
							<path id="&lt;Path&gt;" class="s1" d="m2347 2757.6c-6.6 0-12.1-5.4-12.2-12.1l-2.7-125.9c-0.4-21.9 10.1-42.5 28.1-54.9l22.2-15.4c11.5-8 18.1-21.1 17.5-35.1l-7.1-172.2c-0.2-6.8 5-12.5 11.8-12.8 6.8-0.3 12.5 5 12.8 11.8l7.1 172.2c0.9 22.4-9.6 43.5-28.1 56.3l-22.2 15.4c-11.2 7.7-17.8 20.5-17.5 34.2l2.6 125.9c0.2 6.8-5.2 12.4-12 12.6q-0.1 0-0.3 0z"/>
						</g>
						<g id="&lt;Group&gt;">
							<path id="&lt;Path&gt;" class="s4" d="m1645.8 2492.7c0 0 103 14.1 310.2 8.4 0 0 63.2 2 68.8 64.8 5.9 66.7-61.6 89.1-61.6 89.1 0 0-177.1 33.2-308.3-21.7-79.7-33.4-9.1-140.6-9.1-140.6z"/>
						</g>
						<g id="&lt;Group&gt;">
							<path id="&lt;Path&gt;" class="s4" d="m1654.9 2633.3c131.2 55 308.3 21.7 308.3 21.7 0 0 64.5-21.5 61.8-84.7q0-2.2-0.2-4.4c-5.6-62.8-68.8-64.8-68.8-64.8-57.1 1.6-106.4 1.7-147.7 0.9-108.5-1.9-162.5-9.3-162.5-9.3 0 0-70.6 107.2 9.1 140.6z"/>
						</g>
						<g id="&lt;Group&gt;" style="opacity: .3">
							<path id="&lt;Path&gt;" class="s1" d="m1654.9 2633.3c131.2 55 308.3 21.7 308.3 21.7 0 0 64.5-21.5 61.8-84.7-31.9 19.6-87.1 44-149.7 31.1-53.1-11-66.9-56-67-99.4-108.5-1.9-162.5-9.3-162.5-9.3 0 0-70.6 107.2 9.1 140.6z"/>
						</g>
						<g id="&lt;Group&gt;">
							<path id="&lt;Compound Path&gt;" fill-rule="evenodd" class="s1" d="m1840.8 2681.5c-59.2 0-130.2-7.1-192.2-33.1-23-9.7-38-25.4-44.5-46.8-15.6-50.9 26.2-115.2 28-117.9 3.5-5.3 9.7-8.1 15.9-7.2 1 0.1 104.5 13.8 307.6 8.2q0.4 0 0.9 0c26.9 0.8 79.2 18.6 84.6 79.7 5.6 63-45.1 97-72.7 106.2q-1 0.3-2.1 0.5c-4 0.8-56.8 10.4-125.5 10.4zm-186.4-171.3c-11 19.6-26.8 56.3-19 81.9 3.6 11.8 12.1 20.3 25.9 26.1 119.4 50 282 23.6 297.7 20.9 7.5-2.8 53.8-22.4 49.5-71.8-4.1-46-47.6-49.6-52.6-49.8-170.6 4.7-270.1-3.9-301.5-7.3z"/>
						</g>
					</g>
					<g id="&lt;Group&gt;">
						<path id="&lt;Path&gt;" class="s10" d="m1844.8 1875.8c65.7 87.8 394.1 662.1-184.9 861.9 0 0-57.8-79.1-10.9-149.4 213.5-99.9 352.8-279.6 70.2-706.6 0 0-5.3-59.6 64-59.6 69.3 0 61.6 53.7 61.6 53.7z"/>
					</g>
					<g id="&lt;Group&gt;">
						<path id="&lt;Path&gt;" class="s11" d="m1659.9 2737.7c0 0-57.8-79.2-10.9-149.4 195.8-91.7 329.2-250.3 132-605.3-17.8-32.1-38.4-65.9-61.8-101.3 0 0-5.3-59.5 64-59.5 69.3 0 61.6 53.6 61.6 53.6 15.8 21 46.6 69.9 76.4 135 94.6 206.5 179.1 575-261.3 726.9z"/>
					</g>
					<g id="&lt;Group&gt;">
						<path id="&lt;Path&gt;" class="s12" d="m1921.2 2010.8c-46.5-38.5-103.8-35.4-140.2-27.8-17.8-32.1-38.4-65.9-61.8-101.3 0 0-5.3-59.5 64-59.5 69.3 0 61.6 53.6 61.6 53.6 15.8 21 46.6 69.9 76.4 135z"/>
					</g>
					<g id="&lt;Group&gt;">
						<path id="&lt;Compound Path&gt;" fill-rule="evenodd" class="s1" d="m1659.9 2754.1c-5.1 0-10-2.4-13.2-6.7-2.6-3.7-64-89.3-11.3-168.2 1.7-2.5 4-4.5 6.7-5.7 116.7-54.7 185.2-123 209.4-209 33.1-117.9-16-277.3-146-473.8-1.5-2.2-2.4-4.9-2.6-7.6-0.3-3.1-2.2-31.6 18.1-53.8 14.2-15.6 35.2-23.5 62.2-23.5 28.4 0 49.7 8 63.4 23.7 12.7 14.7 14.9 31.7 14.9 41.3 60.5 83.9 203.4 353.2 132.6 583.6-42.3 137.6-153 238.1-328.8 298.8-1.8 0.6-3.6 0.9-5.4 0.9zm0.4-153c-27.8 45.9-5.6 95.8 6.5 116.8 158.3-57.4 257.9-149.3 296-273.2 69.4-225.8-85.7-498.4-131.1-559.1-2.5-3.4-3.7-7.7-3.1-12 0.1-0.6 1.3-13.5-7-22.8-7.2-8.1-20.1-12.3-38.4-12.3-17.3 0-30 4.3-37.9 12.7-7.8 8.5-9.5 19.8-9.8 25.5 135.4 205.7 183.7 368.2 147.5 496.6-26.6 94.7-99.5 169.2-222.7 227.8z"/>
					</g>
					<g id="&lt;Group&gt;">
						<path id="&lt;Path&gt;" class="s4" d="m1487.8 2298.8c81.3-68.7 133.3-70.9 187.1-105.5 58.8-37.8 74.6-72.5 153.2-86.2 16.2-2.8 23.9 60.8 35.8 63.2 33.9 6.9 79.3 17.1 109.7 40.6 31.4 24.3 63.4 61.8 51.5 120.7 13.5 85.3-13.7 182.6-76 176-52.8-5.5-62.6 22.1-131.6 27.8-132.3 156.7-269.6 151.8-358.9 81.5-128.8-101.4-137.3-431 131.6-663.2z"/>
					</g>
					<g id="&lt;Group&gt;">
						<path id="&lt;Path&gt;" class="s4" d="m1949.1 2507.6c-52.8-5.5-62.5 22.1-131.6 27.8-132.3 156.7-269.6 151.8-358.8 81.5-58.9-46.3-92.7-140.2-86.4-250.7q0 0 0-0.1c7.6-131.4 71.9-286.3 217.9-412.4l-102.4 345.1c81.2-68.7 133.3-70.9 187.1-105.5 58.8-37.8 74.7-72.5 153.2-86.2 16.2-2.8 23.9 60.8 35.8 63.2 33.9 6.9 79.3 17.1 109.7 40.6 14.9 11.6 29.9 26.1 40.3 44.4 11.6 20.3 17.5 45.3 11.2 76.3 13.5 85.3-13.7 182.6-76 176z"/>
					</g>
					<g id="&lt;Group&gt;" style="opacity: .3">
						<path id="&lt;Path&gt;" class="s1" d="m1949.1 2507.6c-52.8-5.5-62.5 22.1-131.6 27.8-132.3 156.7-269.6 151.8-358.8 81.5-58.9-46.3-92.7-140.2-86.4-250.7 3.7 11.5 8.8 20.6 16 21.2 20 1.8 33.6-28 57-50.3 0 0-40.7 209.2 101.3 247.6 101.6 27.4 190-35.4 164.8-107.7 0 0 87.1 18 139.4-0.4 52.3-18.5 77.9-6.8 104.5-15.4 35-11.1 45.9-88.5 31.9-138.9 0 0 30.9-22.5 26.7-67 11.6 20.3 17.5 45.3 11.2 76.3 13.5 85.3-13.7 182.6-76 176z"/>
					</g>
					<g id="&lt;Group&gt;">
						<path id="&lt;Path&gt;" class="s1" d="m1487.8 2298.8c20.6-22.8 44.3-43.2 70.4-59.6 26.1-16.8 55-29 80.7-42.5 25.8-13.2 47.9-30.9 71.2-50.1 11.7-9.7 24.1-19.8 38.2-28.5 22.6-14.4 48.4-23.1 74.6-28.1 35.3-6.8 39.7 43.8 51 65 0.4 1 1 1.7 0.6 1.1-0.4-0.4-0.9-1.2-3.2-2.4-0.8-0.7-2.9-1.1-3.6-1.3 0 0 0.1 0 0.1 0l1.5 0.3c41.6 7.9 84.2 17.7 118.9 44.7 43.7 32.7 68.9 83.1 56.8 138.2 0 0 0.1-7.1 0.1-7.1 10.4 63.1 1.4 176-73 196.9-15.6 4.3-31.4-0.5-46.3 1.1-20.9 2.5-37.6 12.2-60.1 18-15.5 4.2-31.3 6.3-46.9 7.2l11.2-5.8c-56 66.7-133.7 127.3-224.2 133.6-65.6 5.1-132.3-21.2-177.8-68.6-35.7-38.3-55.4-87.9-65.3-138.2-36.5-200.4 66.8-403.4 216.8-531.4 16.8-13.6 37.4 10.2 21.4 24.8-141.7 121-239.9 311.8-206 500.3 8.6 44.5 26.2 89 57 122.1 38.3 39.8 96.1 62.8 151.5 58.3 82.2-6.3 149.5-60.8 201.6-122 2.9-3.5 6.9-5.4 11.2-5.8 29.7-3 51.3-12.6 80-24.1 15.6-5.7 34.2-8.2 50.8-6.7 7.7 0.5 9.5 0.7 15.6-0.7 46.8-17 49.7-110.5 42.5-152.8-0.3-2.4-0.3-4.8 0.2-7.1 2.6-12.7 2.9-25.2 0.6-37.2-5.1-25.3-21.8-45.8-42.2-62.2-29-23.2-67.9-31.7-103.9-40-11.9-2.7-17.7-13.7-21.4-23-6-14.6-9-30.6-16.2-42.8-0.2-0.3-0.1 0.4 2.4 1.5 1.3 0.6 3.3 1 5.1 0.9q0.7 0 1.4-0.2l-0.5 0.1-1.4 0.3-5.2 1c-20.4 3.7-40.3 10.4-58 21.1-24.9 15-47.3 36.8-72.6 52.9-5 3.3-15.3 9.4-20.5 12.3-20.2 10.9-43.3 19.4-64.4 27-42.8 15.1-82 34.8-120.7 59.5z"/>
					</g>
					<g id="&lt;Group&gt;">
						<g id="&lt;Group&gt;">
							<path id="&lt;Path&gt;" class="s4" d="m2892.3 1312.1c-18.1 125-67.8 246.2-148.9 351.1-16.5 21.4-34.3 42.1-53.4 62-9.2 9.7-18.9 19.2-28.8 28.6-30 28.2-61.7 53.6-94.8 76-28.5 19.4-58.1 36.7-88.4 51.9-36.5 18.3-74.3 33.5-112.7 45.6q-21.1 6.6-42.3 12c-259.7 65.9-546.1-4.6-743.4-209-290.6-301.1-277.6-778.8 29-1066.9 59.1-55.4 124.8-99.9 194.5-133.2 8.1-4 16.3-7.8 24.6-11.3q33.3-14.6 67.5-25.9c52.7-17.3 106.9-28.9 161.5-34.6 54.6-5.8 109.6-5.7 164 0.1 17.3 1.8 34.5 4.2 51.7 7.2 25.8 4.5 51.3 10.3 76.6 17.5 126.1 35.4 244.4 103.5 341.2 203.8 167.2 173.2 233.9 404.8 202.1 625.1z"/>
							<path id="&lt;Compound Path&gt;" fill-rule="evenodd" class="s1" d="m2132 1964.8c-206.8 0-407.9-82.4-553.6-233.4-140.3-145.3-214.9-336.1-210-537.3 5-202.8 89.9-391.7 239.1-531.9 58.3-54.6 123.8-99.5 194.9-133.5 7.7-3.8 15.8-7.5 24.7-11.3 22.1-9.7 44.8-18.4 67.6-25.9 52.3-17.3 106.8-28.9 161.8-34.7 54.6-5.8 109.9-5.8 164.4 0 17.5 1.9 34.9 4.3 51.8 7.3 26.3 4.6 52.1 10.5 76.8 17.5 130 36.6 248.3 107.2 341.9 204.2 162 167.8 235.8 396.2 202.5 626.6-18.4 127.7-70 249.4-149.2 351.8-16.8 21.7-34.8 42.6-53.5 62.1-8.6 9-18 18.4-28.9 28.7-29.6 27.9-61.6 53.5-95 76.2-28 19-57.7 36.5-88.5 51.9-36.1 18.1-74.1 33.5-113 45.8-14 4.4-28.3 8.4-42.4 12-63.4 16.1-127.7 23.9-191.4 23.9zm6.5-1509c-27.2 0-54.5 1.4-81.6 4.3-54.9 5.7-109.1 17.3-161.2 34.5-22.6 7.5-45.3 16.1-67.3 25.8-8.8 3.8-16.9 7.5-24.6 11.2-70.8 33.9-136 78.6-194 133-148.6 139.6-233.1 327.7-238.1 529.6-4.8 200.2 69.4 390.2 209.1 535 189.7 196.6 473.9 276.5 741.8 208.6 14.1-3.7 28.3-7.7 42.2-12 38.8-12.3 76.6-27.6 112.5-45.6 30.6-15.4 60.3-32.8 88.1-51.7 33.3-22.6 65.1-48.1 94.7-75.9 10.8-10.2 20.2-19.6 28.7-28.5 18.7-19.5 36.6-40.3 53.3-61.9 78.8-102 130.2-223.1 148.5-350.3 33.2-229.4-40.3-456.7-201.6-623.8-93.2-96.6-210.9-166.9-340.4-203.3-24.6-7-50.3-12.9-76.4-17.5-16.9-2.9-34.2-5.4-51.7-7.2-27.2-2.9-54.6-4.3-82-4.3z"/>
						</g>
						<g id="&lt;Group&gt;" style="opacity: .3">
							<path id="&lt;Path&gt;" class="s1" d="m1579.6 1730.3c197.3 204.5 483.8 274.9 743.4 209q21.3-5.4 42.3-12c38.4-12.1 76.1-27.3 112.7-45.6 30.3-15.2 59.9-32.5 88.3-51.9 33.2-22.4 64.9-47.7 94.9-75.9 9.9-9.5 19.6-19 28.8-28.7 19.1-19.9 36.8-40.6 53.4-62 81.1-104.9 130.9-226.1 148.9-351.1 9.9-68.6 10.3-138.4 1-207.2-20 118.9-68.8 233.8-146.2 333.9q-24.7 32.1-53.3 62c-9.3 9.7-19 19.2-28.9 28.6-30 28.3-61.7 53.6-94.8 76-28.5 19.4-58.1 36.7-88.3 51.9-36.6 18.3-74.3 33.5-112.8 45.6q-21 6.6-42.3 12c-259.6 65.9-546.1-4.6-743.4-209-115.1-119.3-182.5-266.2-203-418.1-38 225.5 27.7 464.8 199.3 642.5z"/>
						</g>
						<g id="&lt;Group&gt;">
							<path id="&lt;Compound Path&gt;" fill-rule="evenodd" class="s1" d="m2132 1975.9c-209.8 0-413.8-83.7-561.5-236.8-142.4-147.5-218.1-341.1-213.1-545.3 5-205.7 91.2-397.4 242.5-539.6 59.1-55.5 125.6-101 197.7-135.5 7.8-3.8 16.1-7.6 25.1-11.5 22.4-9.8 45.4-18.6 68.5-26.2 53.1-17.5 108.3-29.4 164.2-35.2 55.3-5.9 111.4-5.9 166.7 0 17.7 1.9 35.4 4.4 52.5 7.4 26.7 4.7 52.9 10.7 77.9 17.8 131.9 37.1 251.9 108.7 346.9 207.2 164.3 170.2 239.2 401.9 205.5 635.7-18.8 129.6-71.1 253.1-151.4 357.1-17 22-35.3 43.2-54.3 63-8.7 9.1-18.3 18.6-29.3 29.1-30.1 28.3-62.5 54.2-96.4 77.2-28.3 19.3-58.6 37.1-89.8 52.7-36.5 18.3-75.1 34-114.6 46.4-14.2 4.5-28.6 8.6-43 12.3-64.2 16.3-129.4 24.2-194.1 24.2zm6.5-1509.1c-26.9 0-53.7 1.4-80.5 4.3-54 5.6-107.5 17.1-158.8 34-22.3 7.4-44.7 15.9-66.4 25.4-8.7 3.8-16.6 7.4-24.1 11.1-69.9 33.4-134.2 77.5-191.4 131.1-146.4 137.6-229.7 322.9-234.5 521.7-4.8 197.3 68.3 384.5 206 527.1 186.9 193.7 467.1 272.5 731.1 205.5 13.8-3.5 27.9-7.5 41.6-11.8 38.2-12.1 75.5-27.2 110.8-44.9 30.3-15.1 59.5-32.3 86.9-51 32.8-22.2 64.2-47.4 93.3-74.7 10.6-10.1 19.9-19.3 28.3-28.2 18.4-19.2 36.1-39.7 52.6-61 77.6-100.5 128.2-219.8 146.3-345.1 32.6-226-39.8-449.9-198.6-614.5-91.9-95.2-207.9-164.5-335.5-200.4-24.2-6.9-49.6-12.6-75.4-17.2-16.5-2.9-33.6-5.3-50.8-7.1-26.8-2.9-53.9-4.3-80.9-4.3zm753.8 845.3z"/>
						</g>
						<g id="&lt;Group&gt;">
							<path id="&lt;Compound Path&gt;" fill-rule="evenodd" class="s1" d="m2132 1979.6c-210.8 0-415.7-84.1-564.2-237.9-143.1-148.2-219.1-342.8-214.1-548 5-206.7 91.6-399.3 243.7-542.2 59.4-55.7 126.2-101.5 198.6-136.1 7.9-3.9 16.2-7.7 25.3-11.6 22.4-9.8 45.6-18.7 68.8-26.3 53.3-17.6 108.8-29.5 164.9-35.4 55.6-5.9 111.9-5.8 167.5 0.1 17.8 1.8 35.5 4.3 52.8 7.4 26.8 4.7 53.1 10.7 78.2 17.8 132.5 37.3 253.1 109.3 348.5 208.2 165.2 171.1 240.4 403.9 206.5 638.9-18.8 130.2-71.4 254.3-152.1 358.7-17.1 22.1-35.5 43.4-54.5 63.3-8.8 9.2-18.4 18.7-29.4 29.2-30.3 28.5-62.9 54.6-96.9 77.7-28.5 19.4-58.9 37.2-90.2 52.9-36.8 18.4-75.5 34.1-115.2 46.7-14.3 4.4-28.8 8.5-43.2 12.2-64.5 16.4-130 24.4-195 24.4zm6.5-1509.1c-26.7 0-53.5 1.4-80.1 4.2-53.8 5.7-107 17.1-158.1 33.9-22.2 7.3-44.4 15.8-66 25.3-8.7 3.7-16.5 7.3-24 11-69.5 33.2-133.5 77.1-190.4 130.5-145.7 136.9-228.6 321.2-233.4 519.1-4.8 196.3 68 382.6 204.9 524.4 186.1 192.8 464.8 271.2 727.6 204.6 13.8-3.6 27.7-7.5 41.4-11.8 38-12 75.1-27.1 110.3-44.7 30.1-15.1 59.1-32.1 86.4-50.7 32.7-22.2 63.9-47.2 92.9-74.4 10.6-10.1 19.8-19.2 28.2-28 18.3-19.1 35.9-39.5 52.2-60.7 77.3-100 127.7-218.8 145.7-343.4 32.4-224.9-39.6-447.7-197.7-611.4-91.4-94.8-206.8-163.7-333.8-199.4-24.1-6.9-49.3-12.6-75-17.2-16.5-2.8-33.5-5.2-50.6-7-26.7-2.9-53.6-4.3-80.5-4.3zm753.8 841.6z"/>
						</g>
						<g id="&lt;Group&gt;">
							<path id="&lt;Path&gt;" class="s1" d="m2840 1498.7c-311.5 444.7-960.8 450.2-1178.8-37.7-148.3-331.9 67.4-733 400.5-854.6 242.4-88.5 517.8-70.5 758.1 262.3 0 0 83.2 163.7 79 294.7-4.2 131.1-30.7 257.9-30.7 257.9z"/>
						</g>
						<g id="&lt;Group&gt;">
							<path id="&lt;Path&gt;" class="s14" d="m1661.2 1461c218 487.9 867.3 482.4 1178.8 37.7l5.7-15.7c-431.9 252.5-995.3 150.5-1225.1-338.7-16.3 105.3-5.1 214.3 40.6 316.7z"/>
						</g>
						<g id="&lt;Group&gt;">
							<path id="&lt;Compound Path&gt;" fill-rule="evenodd" class="s1" d="m2223.6 1924c-87.9 0-174.4-14.9-255.1-44.9-177.7-65.9-314.6-197-396-379-74.7-167.2-73.3-359.9 4-542.5 85.8-202.9 256.1-367.5 455.5-440.3 110.8-40.4 217.9-57.4 318.2-50.5l1.6 0.2 1.7 0.4c132.5 37.3 253.1 109.3 348.5 208.2 165.2 171.1 240.4 403.9 206.5 638.9-18.8 130.2-71.4 254.3-152.1 358.7-17.1 22.1-35.5 43.4-54.5 63.3-8.8 9.2-18.4 18.7-29.4 29.2-30.3 28.5-62.9 54.6-96.9 77.7l-2.3 1.2c-111.9 52.7-232 79.4-349.7 79.4zm82.3-1425.9c-83.4 0-171.6 16.8-262.6 50-191.1 69.8-354.3 227.6-436.6 422.3-73.7 174.1-75.2 357.5-4.2 516.3 77.7 173.8 208.2 298.9 377.4 361.7 180.3 66.9 391 54.9 578.3-32.9 32.3-21.9 63.1-46.7 91.8-73.6 10.6-10.1 19.8-19.2 28.2-28 18.3-19.1 35.9-39.5 52.2-60.7 77.3-100 127.7-218.8 145.7-343.4 32.4-224.9-39.6-447.7-197.7-611.4-91-94.4-205.8-163.1-332.2-199q-19.9-1.3-40.3-1.3zm586.4 814z"/>
						</g>
						<g id="&lt;Group&gt;">
							<path id="&lt;Compound Path&gt;" fill-rule="evenodd" class="s1" d="m2228.4 1846.2q-32.9 0-65.9-3.2c-231.4-22.1-419.6-158.9-516.3-375.3-66.6-149.2-65.4-321.1 3.5-484 76.6-181 228.5-327.8 406.3-392.7 306.4-111.9 567.9-21.7 777.1 268.1l1.3 2.2c3.5 6.8 85.1 168.9 80.8 302.6-4.2 131-30.8 259.5-31.1 260.8l-0.6 2.2-28.9 79.4-1.2 1.8c-148.8 212.5-383.7 338.1-625 338.1zm70.3-1268.4c-73.9 0-151 14.6-231.4 44-169.5 61.9-314.3 201.9-387.4 374.7-65.3 154.4-66.7 317-3.8 457.8 91.8 205.3 270.2 335.1 489.5 356.1 251.4 24.1 504-98.3 659.7-319.3l26.9-74.3c2.6-12.7 26.3-132.3 30.2-253.9 3.9-119.9-69.5-271.3-76.7-285.7-144.2-199.3-314.1-299.4-507-299.4zm541.3 920.9z"/>
						</g>
						<g id="&lt;Group&gt;">
							<path id="&lt;Path&gt;" class="s4" d="m1299.3 1353c22 147.2 128.5 257.8 238.1 247 109.5-10.8 180.6-138.8 158.7-286-0.2-1-0.3-1.9-0.5-2.9-22.8-145.7-128.8-254.9-237.6-244.2-84.6 8.4-146.2 86.7-159.8 189.7-4 30.4-3.8 62.9 1.1 96.4z"/>
						</g>
						<g id="&lt;Group&gt;" style="opacity: .3">
							<path id="&lt;Path&gt;" class="s1" d="m1299.3 1353c22 147.2 128.5 257.8 238.1 247 109.5-10.8 180.6-138.8 158.7-286-0.2-1-0.3-1.9-0.5-2.9-9.8 16.3-26.3 33.1-52.5 30.5-45.8-4.4-139.7-91.2-139.7-91.2 0 0-89 2.1-205.2 6.2-4 30.4-3.8 62.9 1.1 96.4z"/>
						</g>
						<g id="&lt;Group&gt;">
							<path id="&lt;Compound Path&gt;" fill-rule="evenodd" class="s1" d="m1522.8 1617.1c-112.1 0-217.6-113.3-239.7-261.7-13.4-89.8 5.6-175.4 51.9-234.8 32.1-41.1 74-65.3 121.4-70 118-11.6 232.7 105.5 255.9 260.9 13.3 89.9-5.6 175.5-51.9 234.9-32.1 41.1-74.1 65.3-121.4 69.9q-8.1 0.8-16.2 0.8zm-207.3-266.5c20.6 138.4 119.4 243 220.3 233.1 38.2-3.8 72.3-23.6 98.7-57.5 40.3-51.6 57.2-130 45.3-209.8-20.6-138.5-119.3-243.1-220.2-233.1-38.2 3.7-72.4 23.6-98.8 57.4-40.2 51.6-57.1 130.1-45.3 209.9z"/>
						</g>
						<g id="&lt;Group&gt;">
							<path id="&lt;Path&gt;" class="s4" d="m1283.4 1360.6c18.3 119.9 100.3 211.1 183.1 203.6 82.8-7.5 135.1-110.8 116.7-230.8-18.3-119.9-100.3-211.1-183.1-203.6-82.8 7.5-135.1 110.8-116.7 230.8z"/>
						</g>
						<g id="&lt;Group&gt;" style="opacity: .3">
							<path id="&lt;Path&gt;" class="s1" d="m1466.5 1564.2c-82.8 7.5-164.8-83.7-183.1-203.7-2-13-3.2-25.8-3.5-38.3 34.2 79.4 98 132.1 162.4 126.2 72.7-6.7 122.3-86 121.8-185.5 8.7 21.8 15.3 45.6 19.1 70.5 18.4 120-33.9 223.3-116.7 230.8z"/>
						</g>
						<g id="&lt;Group&gt;">
							<path id="&lt;Compound Path&gt;" fill-rule="evenodd" class="s1" d="m1457.2 1581c-87.4 0-171.2-94.9-190-218-11.7-76 3.7-150 41.1-197.7 24.1-30.7 55.3-48.6 90.3-51.8 91.1-8.3 181.2 89.3 200.8 217.4 11.7 76.1-3.7 150.1-41.1 197.8-24.1 30.7-55.3 48.6-90.3 51.8q-5.4 0.5-10.8 0.5zm-157.6-222.9c17 111.3 91.2 196.4 165.4 189.7 25.8-2.3 49.1-15.9 67.4-39.3 32-40.8 44.9-105.3 34.6-172.6-17-111.4-91.2-196.5-165.4-189.8-25.8 2.4-49.1 16-67.4 39.4-32 40.8-44.9 105.3-34.6 172.6z"/>
						</g>
						<g id="&lt;Group&gt;" style="opacity: .5">
							<path id="&lt;Path&gt;" class="s4" d="m1936.8 793.3c0 0 333.4-98.5 581.1 20.7q0.4 0.2 0.8 0.4c52.1 25.2 96.3 63.8 128.3 111.5 42.2 63.2 61.9 112.8 77.6 157.2 47.5 135 44.1 207.1 44.1 207.1 52.9-98.3 68.3-194.5 29.9-307.4-3.8-11.1-8.2-22.4-13-33.9q-1.7-3.9-3.5-7.8 0.1-0.1-0.1-0.2c-11.5-22.5-27.7-51.6-48.8-82.9-63.5-94.3-170.9-208.9-325.1-225.9-288.4-31.7-487.6 151-471.3 161.2z"/>
						</g>
						<g id="&lt;Group&gt;" style="opacity: .5">
							<path id="&lt;Path&gt;" class="s4" d="m1911.9 1202.5c4.7 64.7-37.1 120.6-93.4 124.9-56.3 4.3-105.8-44.7-110.6-109.4-4.7-64.7 37.1-120.7 93.4-124.9 56.3-4.3 105.8 44.6 110.6 109.4z"/>
						</g>
						<g id="&lt;Group&gt;" style="opacity: .5">
							<path id="&lt;Path&gt;" class="s4" d="m1867.8 1423.5c-0.4 26.8-19.5 48.3-42.9 48.2-23.3-0.2-41.9-22.1-41.6-48.9 0.3-26.8 19.5-48.4 42.8-48.2 23.4 0.2 42 22.1 41.7 48.9z"/>
						</g>
					</g>
					<g id="&lt;Group&gt;">
						<g id="&lt;Group&gt;">
							<path id="&lt;Path&gt;" class="s4" d="m1737.1 2194.6c0 0 100.8-23.6 159.3-17"/>
						</g>
						<g id="&lt;Group&gt;">
							<path id="&lt;Path&gt;" class="s1" d="m1737.1 2194.6c52.3-16.5 105.4-32.6 161.1-33.3 0 0-3.7 32.6-3.7 32.6-51.3-9.7-105.4-4.7-157.4 0.7z"/>
						</g>
					</g>
					<g id="&lt;Group&gt;">
						<path id="&lt;Path&gt;" class="s1" d="m1720.8 2494.2c17.3 12.6 38.2 18.8 58.9 22.1 20.7 3.1 41.6 2.2 62.3-0.6 21.8-1.7 25.3 29.9 3.6 33-45.4-3.7-94.1-19.4-124.8-54.5z"/>
					</g>
					<g id="&lt;Group&gt;">
						<path id="&lt;Path&gt;" class="s1" d="m1449.9 2625.6c-66-66.7-85.4-179.2-47.1-273.5 33.8-83.7 105.6-132.8 196.9-134.8l0.5 24.6c-81 1.7-144.7 45.2-174.7 119.4-34 84.2-16.4 188.1 41.9 247z"/>
					</g>
				</g>
			</g>
		</g>
	</g>
</svg>