<svg version="1.2" xmlns="http://www.w3.org/2000/svg" viewBox="0 0 1000 1000" width="1000" height="1000">
	<title>428153-PE6CDK-907-ai</title>
	<style>
		tspan { white-space:pre } 
		.s0 { opacity: .1;mix-blend-mode: multiply;fill: #000000 } 
		.s1 { fill: #2a7199 } 
		.s2 { fill: #5996ba } 
		.s3 { fill: #77c6f3 } 
		.s4 { fill: #46b5f3 } 
		.s5 { fill: #f3ffff } 
		.s6 { fill: #dfe6e3 } 
		.s7 { fill: #ffffff;stroke: #000000;stroke-miterlimit:10;stroke-width: .6 } 
		.s8 { fill: #215775 } 
		.s9 { mix-blend-mode: multiply;fill: #5996ba } 
		.s10 { fill: none;stroke: #ffffff;stroke-linecap: round;stroke-linejoin: round;stroke-width: 2 } 
		.s11 { fill: #ffffff;stroke: #000000;stroke-miterlimit:10;stroke-width: .4 } 
		.s12 { fill: #c5d660 } 
		.s13 { fill: #818c3e } 
		.s14 { fill: #ffffff } 
		.s15 { fill: #9fad4d } 
		.s16 { fill: #b0bf55 } 
		.s17 { fill: #396987 } 
		.s18 { fill: #528eb3 } 
		.s19 { fill: #2d78a3 } 
		.s20 { fill: #b3d5f8 } 
		.s21 { fill: #851b20 } 
		.s22 { fill: #73181b } 
		.s23 { fill: #c3c9c7 } 
		.s24 { fill: #a62227 } 
		.s25 { fill: #fa343b } 
		.s26 { fill: #bd272d } 
		.s27 { fill: none;stroke: #fa343b;stroke-linecap: round;stroke-linejoin: round;stroke-width: 1.7 } 
		.s28 { fill: #26688c } 
		.s29 { fill: #205675 } 
		.s30 { fill: none;stroke: #ffffff;stroke-linecap: round;stroke-linejoin: round;stroke-width: 3.4 } 
		.s31 { fill: #163c52 } 
		.s32 { fill: #c9d6d2 } 
		.s33 { fill: #7d4841 } 
		.s34 { fill: #eb575c } 
		.s35 { fill: #db4449 } 
		.s36 { fill: #d1373c } 
		.s37 { fill: #fcc42b } 
		.s38 { fill: #967817 } 
		.s39 { fill: #d4aa21 } 
		.s40 { fill: #b5911c } 
		.s41 { fill: #a18119 } 
		.s42 { fill: none;stroke: #d4aa21;stroke-linecap: round;stroke-linejoin: round;stroke-width: 2.6 } 
		.s43 { fill: #636b2f } 
	</style>
	<g id="OBJECTS">
		<path id="&lt;Path&gt;" class="s0" d="m795.4 511.4l123.5-71.3c5.1-2.9 4.4-8.1-1.4-11.5l-207.3-119.6c-5.8-3.4-14.8-3.8-19.8-0.9l-123.5 71.3c-5.1 3-4.4 8.1 1.4 11.5l207.3 119.6c5.8 3.4 14.8 3.8 19.8 0.9z"/>
		<g id="&lt;Group&gt;">
			<path id="&lt;Path&gt;" class="s1" d="m794.3 503.3l120.9-69.8c2.4-1.4 3.5-3.3 3.3-5.3-0.2-2.1 0-20.8 0-20.8l-207.6-110c-5.7-3.3-14.5-3.7-19.4-0.8l-124.2 60.9c0 0-0.2 19.9 0 21.9 0.2 2.1 1.8 4.2 4.7 5.9l202.9 117.2c5.7 3.3 14.5 3.7 19.4 0.8z"/>
			<path id="&lt;Path&gt;" class="s2" d="m794.3 482.5l120.9-69.8c5-2.9 4.3-7.9-1.4-11.2l-202.9-117.2c-5.7-3.3-14.5-3.6-19.4-0.8l-120.9 69.8c-4.9 2.9-4.3 7.9 1.4 11.2l202.9 117.2c5.7 3.3 14.5 3.6 19.4 0.8z"/>
			<path id="&lt;Path&gt;" class="s1" d="m765.4 462.6l115.3-66.6c4.2-2.5 3.7-6.8-1.2-9.6l-154.9-89.4c-4.9-2.8-12.3-3.2-16.5-0.7l-115.4 66.6c-4.2 2.4-3.7 6.7 1.2 9.5l154.9 89.5c4.9 2.8 12.3 3.1 16.6 0.7z"/>
			<path id="&lt;Path&gt;" class="s3" d="m764.8 457.5l107.1-61.8c4-2.3 3.5-6.4-1.1-9l-146.7-84.7c-4.5-2.6-11.5-2.9-15.5-0.6l-107.1 61.8c-3.9 2.3-3.4 6.3 1.1 9l146.7 84.6c4.6 2.7 11.6 3 15.5 0.7z"/>
			<path id="&lt;Path&gt;" class="s4" d="m749.3 456.8c4.6 2.7 11.6 3 15.5 0.7l107.1-61.8c4-2.3 3.5-6.4-1.1-9l-146.7-84.7c-4.5-2.6-11.5-2.9-15.5-0.6z"/>
			<path id="&lt;Path&gt;" class="s5" d="m636.6 327c2.6 1.5 6.7 1.5 9.3 0 2.5-1.5 2.5-3.9 0-5.3-2.6-1.5-6.7-1.5-9.3 0-2.5 1.4-2.5 3.8 0 5.3z"/>
			<path id="&lt;Path&gt;" class="s1" d="m639.2 325.5c1.1 0.6 3 0.6 4.1 0 1.1-0.7 1.1-1.7 0-2.4-1.1-0.6-3-0.6-4.1 0-1.1 0.7-1.1 1.7 0 2.4z"/>
			<path id="&lt;Path&gt;" class="s6" d="m628.8 331.5c1.1 0.7 2.9 0.7 4 0 1.2-0.6 1.2-1.7 0-2.3-1.1-0.7-2.9-0.7-4 0-1.1 0.6-1.1 1.7 0 2.3z"/>
			<path id="&lt;Path&gt;" class="s5" d="m649.7 319.5c1.3 0.8 3.6 0.8 5 0 1.4-0.8 1.4-2.1 0-2.9-1.4-0.8-3.7-0.8-5 0-1.4 0.8-1.4 2.1 0 2.9z"/>
			<path id="&lt;Path&gt;" class="s7" d="m843.8 445.4l7.1-4.2c2.7-1.5 2.3-4.2-0.7-6l-5.7-3.2c-3.1-1.8-7.8-2-10.4-0.5l-7.2 4.1c-2.6 1.6-2.3 4.3 0.8 6.1l5.6 3.2c3.1 1.8 7.8 2 10.5 0.5z"/>
			<g id="&lt;Group&gt;">
				<path id="&lt;Path&gt;" class="s1" d="m844.3 446.1l7.9-4.6c2.9-1.7 2.6-4.7-0.8-6.6l-6.3-3.6c-3.4-2-8.6-2.2-11.5-0.5l-7.9 4.5c-3 1.7-2.6 4.7 0.8 6.7l6.2 3.6c3.4 2 8.6 2.2 11.6 0.5z"/>
				<path id="&lt;Path&gt;" class="s6" d="m843.2 444.6l6.4-3.7c2.4-1.3 2.1-3.8-0.7-5.3l-5-2.9c-2.7-1.6-6.9-1.8-9.3-0.4l-6.4 3.6c-2.3 1.4-2 3.8 0.7 5.4l5 2.9c2.8 1.6 7 1.8 9.3 0.4z"/>
				<path id="&lt;Path&gt;" class="s5" d="m826.7 438c0.1-0.8 0.8-1.6 1.9-2.2l5.7-3.3c2.5-1.5 6.7-1.5 9.3 0l5.7 3.3c1.1 0.6 1.7 1.4 1.9 2.2z"/>
			</g>
			<path id="&lt;Path&gt;" class="s1" d="m793.1 466.8l25.3-14.6c0.8-0.5 0.7-1.3-0.2-1.8-0.9-0.5-2.3-0.6-3.1-0.1l-25.3 14.6c-0.8 0.5-0.7 1.3 0.2 1.8 0.9 0.5 2.3 0.6 3.1 0.1z"/>
			<path id="&lt;Path&gt;" class="s1" d="m862.7 426.6l25.4-14.6c0.8-0.5 0.7-1.3-0.2-1.8-0.9-0.5-2.3-0.6-3.1-0.1l-25.4 14.6c-0.8 0.5-0.7 1.3 0.2 1.8 0.9 0.5 2.3 0.6 3.1 0.1z"/>
			<path id="&lt;Path&gt;" class="s8" d="m618 401.9c0 2-1.2 2.9-2.7 2l-25.1-14.5c-1.5-0.8-2.7-3.2-2.7-5.2 0-2 1.2-2.9 2.7-2l25.1 14.4c1.5 0.9 2.7 3.3 2.7 5.3z"/>
			<path id="&lt;Path&gt;" class="s8" d="m668.2 429.2c0 2-1.3 2.9-2.8 2l-25.1-14.5c-1.5-0.8-2.7-3.2-2.7-5.2 0-2 1.2-2.9 2.7-2l25.1 14.5c1.5 0.8 2.8 3.2 2.8 5.2z"/>
		</g>
		<path id="&lt;Path&gt;" class="s0" d="m385.5 894.5l-80.5-46.4c-3.3-2-2.9-5.3 0.9-7.5l154.6-89.4c3.8-2.2 9.6-2.5 12.9-0.6l80.6 46.5c3.3 1.9 2.8 5.3-1 7.5l-154.6 89.4c-3.8 2.2-9.6 2.5-12.9 0.5z"/>
		<g id="&lt;Group&gt;">
			<path id="&lt;Path&gt;" class="s1" d="m386.2 889.3l-78.8-45.5c-1.6-0.9-2.3-2.2-2.2-3.5 0.2-1.4 0-13.5 0-13.5l150.9-80.4c3.8-2.2 9.5-2.4 12.7-0.6l81 39.8c0 0 0.1 13 0 14.3-0.1 1.3-1.2 2.7-3.1 3.8l-147.8 85.1c-3.7 2.1-9.4 2.3-12.7 0.5z"/>
			<path id="&lt;Path&gt;" class="s2" d="m386.2 875.7l-78.8-45.5c-3.2-1.9-2.8-5.2 0.9-7.3l147.8-85c3.8-2.2 9.5-2.4 12.7-0.6l78.8 45.5c3.2 1.9 2.8 5.2-0.9 7.3l-147.8 85.1c-3.7 2.1-9.4 2.4-12.7 0.5z"/>
			<path id="&lt;Path&gt;" class="s1" d="m405.1 862.7l-75.2-43.4c-2.8-1.6-2.4-4.4 0.8-6.2l116.5-67c3.2-1.8 8-2 10.8-0.4l75.2 43.4c2.8 1.6 2.4 4.4-0.8 6.2l-116.5 67c-3.2 1.8-8 2-10.8 0.4z"/>
			<path id="&lt;Path&gt;" class="s3" d="m405.5 859.4l-69.9-40.3c-2.5-1.5-2.2-4.1 0.8-5.9l111.1-63.8c3-1.7 7.5-1.9 10.1-0.4l69.9 40.3c2.5 1.5 2.2 4.1-0.8 5.8l-111.1 63.9c-3 1.7-7.5 1.9-10.1 0.4z"/>
			<path id="&lt;Path&gt;" class="s4" d="m415.6 859c-3 1.7-7.5 1.9-10.1 0.4l-69.9-40.3c-2.5-1.5-2.2-4.1 0.8-5.9l111.1-63.8c3-1.7 7.5-1.9 10.1-0.4z"/>
			<path id="&lt;Path&gt;" class="s9" d="m475.9 813.4c-18 10.4-47 10.4-65 0-17.9-10.3-17.9-27.1 0-37.5 18-10.3 47-10.3 65 0 17.9 10.4 17.9 27.2 0 37.5z"/>
			<g id="&lt;Group&gt;">
				<path id="&lt;Path&gt;" class="s4" d="m456.6 786.3c0 0 2.1-1.8-3.8-5.2-6-3.4-16.3-6.4-16.3-6.4l-30.3 17.5c0 0 13.5 3.3 20.1 11.6z"/>
				<path id="&lt;Path&gt;" class="s4" d="m459.5 788.4c0 0 3.1-1.2 9.1 2.3 5.9 3.4 11 9.3 11 9.3l-30.4 17.6c0 0-5.7-7.9-20-11.6z"/>
				<path id="&lt;Path&gt;" class="s10" d="m452.7 809.1c-2-1.5-4.1-3.7-7.8-5.3"/>
				<path id="&lt;Path&gt;" class="s10" d="m430.1 794.7c-2.7-2-6.3-3.2-9-4.4"/>
				<path id="&lt;Path&gt;" class="s10" d="m457.8 806.2c-2-1.6-4.1-3.8-7.8-5.4"/>
				<path id="&lt;Path&gt;" class="s10" d="m435.2 791.8c-2.7-2.1-6.4-3.2-9-4.4"/>
				<path id="&lt;Path&gt;" class="s10" d="m462.9 803.3c-2-1.6-4.1-3.8-7.8-5.4"/>
				<path id="&lt;Path&gt;" class="s10" d="m440.3 788.8c-2.7-2-6.4-3.2-9-4.3"/>
				<path id="&lt;Path&gt;" class="s10" d="m468 800.3c-2-1.5-4.1-3.7-7.8-5.4"/>
				<path id="&lt;Path&gt;" class="s10" d="m445.4 785.9c-2.7-2-6.4-3.2-9-4.4"/>
			</g>
			<path id="&lt;Path&gt;" class="s5" d="m504.6 765.7c-1.7 0.9-4.4 0.9-6.1 0-1.6-1-1.6-2.5 0-3.5 1.7-1 4.4-1 6.1 0 1.6 1 1.6 2.5 0 3.5z"/>
			<path id="&lt;Path&gt;" class="s1" d="m502.9 764.7c-0.8 0.4-1.9 0.4-2.7 0-0.7-0.4-0.7-1.1 0-1.5 0.8-0.4 1.9-0.4 2.7 0 0.7 0.4 0.7 1.1 0 1.5z"/>
			<path id="&lt;Path&gt;" class="s6" d="m509.7 768.6c-0.8 0.4-1.9 0.4-2.7 0-0.7-0.4-0.7-1.1 0-1.5 0.8-0.4 1.9-0.4 2.7 0 0.7 0.4 0.7 1.1 0 1.5z"/>
			<path id="&lt;Path&gt;" class="s5" d="m496.1 760.8c-0.9 0.5-2.4 0.5-3.3 0-0.9-0.6-0.9-1.4 0-1.9 0.9-0.6 2.4-0.6 3.3 0 0.9 0.5 0.9 1.3 0 1.9z"/>
			<path id="&lt;Path&gt;" class="s11" d="m354 851.5l-4.7-2.7c-1.7-1-1.5-2.8 0.5-3.9l3.7-2.1c2-1.2 5.1-1.3 6.8-0.3l4.7 2.7c1.7 1 1.5 2.7-0.5 3.9l-3.7 2.1c-2 1.2-5.1 1.3-6.8 0.3z"/>
			<g id="&lt;Group&gt;">
				<path id="&lt;Path&gt;" class="s1" d="m353.6 852l-5.1-3c-1.9-1.1-1.7-3.1 0.5-4.3l4.1-2.4c2.2-1.3 5.6-1.4 7.5-0.3l5.2 3c1.9 1.1 1.7 3-0.5 4.3l-4.1 2.4c-2.2 1.3-5.6 1.4-7.6 0.3z"/>
				<path id="&lt;Path&gt;" class="s6" d="m354.3 851l-4.1-2.4c-1.6-0.9-1.4-2.5 0.4-3.5l3.3-1.9c1.8-1 4.5-1.1 6.1-0.2l4.1 2.4c1.6 0.9 1.4 2.4-0.4 3.5l-3.3 1.9c-1.8 1-4.5 1.1-6.1 0.2z"/>
				<path id="&lt;Path&gt;" class="s5" d="m365.1 846.7c-0.1-0.5-0.5-1-1.2-1.5l-3.7-2.1c-1.7-1-4.4-1-6.1 0l-3.7 2.1c-0.7 0.4-1.1 1-1.2 1.5z"/>
			</g>
			<path id="&lt;Path&gt;" class="s1" d="m387.1 865.5l-16.6-9.6c-0.5-0.3-0.4-0.8 0.1-1.1 0.6-0.4 1.5-0.4 2.1-0.1l16.5 9.6c0.5 0.3 0.5 0.8-0.1 1.1-0.6 0.4-1.5 0.4-2 0.1z"/>
			<path id="&lt;Path&gt;" class="s1" d="m341.6 839.3l-16.5-9.6c-0.5-0.3-0.5-0.8 0.1-1.1 0.6-0.4 1.5-0.4 2-0.1l16.6 9.5c0.5 0.3 0.4 0.9-0.2 1.2-0.5 0.3-1.5 0.4-2 0.1z"/>
			<path id="&lt;Path&gt;" class="s8" d="m516.7 814.5c0 1.3 0.8 1.9 1.8 1.4l16.3-9.5c1-0.6 1.8-2.1 1.8-3.4 0-1.3-0.8-1.9-1.8-1.3l-16.3 9.4c-1 0.6-1.8 2.1-1.8 3.4z"/>
			<path id="&lt;Path&gt;" class="s8" d="m484 832.3c0 1.3 0.8 1.9 1.8 1.4l16.3-9.5c1-0.6 1.8-2.1 1.8-3.4 0-1.3-0.8-1.9-1.8-1.3l-16.3 9.4c-1 0.6-1.8 2.1-1.8 3.4z"/>
		</g>
		<path id="&lt;Path&gt;" class="s0" d="m341.9 554.3l140.6 59.5-204.2 154.3c-4.2 3.2-9.8 3.8-14.6 1.8l-132.7-56.2c-5.7-2.4-5.7-7.9 0-12.2l190.3-143.8c5.7-4.3 14.9-5.8 20.6-3.4z"/>
		<path id="&lt;Path&gt;" class="s0" d="m751.6 557l-326.8 188.7c-10.9 6.3-27.5 7-36.9 1.6l-236.9-136.8c-9.4-5.5-8.2-15 2.6-21.3l326.9-188.7c10.8-6.3 27.4-7 36.8-1.5l237 136.8c9.4 5.4 8.2 15-2.7 21.2z"/>
		<path id="&lt;Path&gt;" class="s0" d="m532.4 367.4l40.1-23.2c3-1.8 3-6.1 0-7.9l-125.8-73.3c-2.5-1.4-5.5-1.4-8 0l-33.2 19.2c-5.4 3.1-5.4 10.8-0.1 13.9l122.4 71.2c1.4 0.9 3.2 0.9 4.6 0.1z"/>
		<g id="&lt;Group&gt;">
			<path id="&lt;Path&gt;" class="s12" d="m461.7 278.4l104.6 61.9 0.1-170-104.5-62c-2.2-1.2-4.1-1.2-5.5-0.1-1.4 1.1-7 4.1-7 4.1l4.6 151c0 5.8 3.5 12.6 7.7 15.1z"/>
			<path id="&lt;Path&gt;" class="s13" d="m454.1 282.9l104.6 61.9 0.1-170-104.5-62c-4.3-2.5-7.7 0.2-7.7 6l-0.2 149c0 5.8 3.4 12.6 7.7 15.1z"/>
			<path id="&lt;Path&gt;" class="s13" d="m452.5 112.1l1.4 87-21.9-74.9z"/>
			<path id="&lt;Path&gt;" class="s12" d="m448.9 112.6c0.5-0.3 1.8-1 3.6-0.5l-23.9 14.1-2-0.5z"/>
			<path id="&lt;Path&gt;" class="s14" d="m457 288.1l98.7 54.1 0.2-165.7-98.9-58.5c-2.1-1.3-3.9-1.1-5.4-0.2-2.1 1.4-17.3 10.2-17.3 10.2l15 145.1c0 5.8 3.4 12.5 7.7 15z"/>
			<path id="&lt;Path&gt;" class="s6" d="m535.2 354.4l20.5-12.2 0.2-165.7-20.6 12.1z"/>
			<path id="&lt;Path&gt;" class="s12" d="m433.5 295l104.6 61.9 0.2-170-104.6-61.9c-1.7-1-3.2-1.2-4.5-0.7-1.9 0.7-9.2 5.5-9.2 5.5l5.9 150.2c0 5.8 3.4 12.5 7.6 15z"/>
			<path id="&lt;Path&gt;" class="s15" d="m558.6 344.8l7.7-4.5 0.1-170-7.6 4.5z"/>
			<path id="&lt;Path&gt;" class="s15" d="m530.5 361.4l7.6-4.5 0.2-170-7.7 4.5z"/>
			<path id="&lt;Path&gt;" class="s16" d="m425.8 299.6l104.5 61.9 0.2-170-104.6-61.9c-4.2-2.6-7.7 0.1-7.7 5.9l-0.1 149c0 5.8 3.4 12.6 7.7 15.1z"/>
			<path id="&lt;Path&gt;" class="s15" d="m451.6 187.2l61.6 35.6c4.2 2.4 9.5-0.6 9.5-5.5l0.1-8.1c0-6.4-3.4-12.3-8.9-15.4l-62.2-36c-2.8-1.7-5.2 0.1-5.2 3.9l-0.1 15.5c0 3.8 2.4 8.3 5.2 10z"/>
			<path id="&lt;Path&gt;" class="s15" d="m469 308.4l28.2 16.3c2 1.1 4.4-0.3 4.4-2.5v-3.7c0.1-2.9-1.5-5.6-4-7.1l-28.5-16.5c-1.4-0.7-2.4 0.1-2.4 1.8l-0.1 7.1c0 1.8 1.1 3.8 2.4 4.6z"/>
			<path id="&lt;Path&gt;" class="s15" d="m469 290.7l28.2 16.4c2 1.1 4.4-0.3 4.4-2.6v-3.7c0.1-2.9-1.5-5.6-4-7l-28.5-16.5c-1.4-0.8-2.4 0-2.4 1.8l-0.1 7.1c0 1.7 1.1 3.8 2.4 4.5z"/>
			<path id="&lt;Path&gt;" class="s15" d="m469 272.7l28.2 16.3c2 1.1 4.4-0.3 4.4-2.5v-3.7c0.1-2.9-1.5-5.6-4-7.1l-28.5-16.5c-1.4-0.8-2.4 0.1-2.4 1.8l-0.1 7.1c0 1.8 1.1 3.8 2.4 4.6z"/>
		</g>
		<g id="&lt;Group&gt;">
			<g id="&lt;Group&gt;">
				<path id="&lt;Path&gt;" class="s8" d="m738.8 556.1l-310.9 179.4c-10.3 6-26.1 6.7-35.1 1.5l-225.3-130.1c-3.9-2.2-5.9-5.2-6-8.4-0.3-4.1 0-16.2 0-16.2l319.4-175.1c10.3-6 26.1-6.7 35-1.5l231.4 122.4c0 0 0.1 13.3 0 16.6 0 3.9-2.9 8.1-8.5 11.4z"/>
				<path id="&lt;Path&gt;" class="s1" d="m738.8 539.8l-310.9 179.5c-10.3 5.9-26.1 6.6-35.1 1.4l-225.3-130.1c-9-5.1-7.8-14.2 2.5-20.2l310.9-179.5c10.3-6 26.1-6.6 35-1.5l225.4 130.2c8.9 5.1 7.8 14.2-2.5 20.2z"/>
				<g id="&lt;Group&gt;">
					<path id="&lt;Path&gt;" class="s8" d="m610.4 596.7l-84 48.5c-4.7 2.6-11.7 2.9-15.7 0.6l-27.9-16.1c-4-2.3-3.5-6.4 1.2-9l84-48.5c4.6-2.7 11.7-3 15.7-0.7l27.8 16.1c4 2.3 3.5 6.4-1.1 9.1z"/>
					<path id="&lt;Path&gt;" class="s1" d="m526.9 640.6l27.8-16.1c4.4-2.5 4.9-6.4 1.1-8.6l-1-0.6c-3.8-2.1-10.5-1.9-14.9 0.7l-27.8 16c-4.4 2.5-4.9 6.4-1.1 8.6l1.1 0.6c3.8 2.2 10.5 1.9 14.8-0.6z"/>
					<path id="&lt;Path&gt;" class="s1" d="m574.6 613l27.8-16c4.4-2.6 4.9-6.4 1.1-8.6l-1-0.6c-3.8-2.2-10.5-1.9-14.9 0.6l-27.8 16.1c-4.4 2.5-4.8 6.4-1.1 8.5l1.1 0.6c3.8 2.2 10.5 2 14.8-0.6z"/>
				</g>
				<g id="&lt;Group&gt;">
					<path id="&lt;Path&gt;" class="s8" d="m358.1 517l-136.7 78.9c-5.6 3.2-14 3.5-18.8 0.8l-15.7-9.1c-7.4-4.2-6.5-11.8 2.1-16.7l131.3-75.8c5.5-3.2 14-3.5 18.8-0.8l20.3 11.8c4.8 2.8 4.2 7.7-1.3 10.9z"/>
					<path id="&lt;Path&gt;" class="s8" d="m525 420.6l-136.7 78.9c-5.5 3.2-14 3.5-18.8 0.8l-20.3-11.8c-4.8-2.8-4.2-7.7 1.3-10.9l131.3-75.7c8.5-5 21.6-5.5 29-1.2l15.6 9c4.8 2.8 4.2 7.7-1.4 10.9z"/>
				</g>
				<path id="&lt;Path&gt;" class="s8" d="m665.8 501.4l-304.4 175.8c-5.4 3-13.5 3.4-18.1 0.7l-108.3-62.5c-4.6-2.7-4-7.4 1.3-10.4l304.5-175.8c5.3-3.1 13.4-3.4 18.1-0.8l108.2 62.5c4.6 2.7 4 7.4-1.3 10.5z"/>
				<g id="&lt;Group&gt;">
					<path id="&lt;Path&gt;" class="s1" d="m257.6 600.1l-11 6.3c-1.7 1-1.7 2.5 0 3.5l11 6.3c1.7 1 4.4 1 6.1 0l11-6.3c1.6-1 1.6-2.5 0-3.5l-11-6.3c-1.7-1-4.4-1-6.1 0z"/>
					<path id="&lt;Path&gt;" class="s1" d="m279.6 587.4l-11 6.3c-1.7 1-1.7 2.6 0 3.5l11 6.4c1.6 0.9 4.4 0.9 6 0l11-6.4c1.7-0.9 1.7-2.5 0-3.5l-11-6.3c-1.6-1-4.4-1-6 0z"/>
					<path id="&lt;Path&gt;" class="s1" d="m301.6 574.7l-11 6.3c-1.7 1-1.7 2.6 0 3.5l11 6.4c1.6 0.9 4.3 0.9 6 0l11-6.4c1.7-0.9 1.7-2.5 0-3.5l-11-6.3c-1.7-1-4.4-1-6 0z"/>
					<path id="&lt;Path&gt;" class="s1" d="m345.5 549.3l-11 6.4c-1.7 0.9-1.7 2.5 0 3.5l11 6.3c1.7 1 4.4 1 6.1 0l11-6.3c1.6-1 1.6-2.6 0-3.5l-11-6.4c-1.7-1-4.4-1-6.1 0z"/>
					<path id="&lt;Path&gt;" class="s1" d="m455.4 485.9l-11 6.3c-1.7 1-1.7 2.6 0 3.5l11 6.4c1.6 0.9 4.4 0.9 6 0l11-6.4c1.7-0.9 1.7-2.5 0-3.5l-11-6.3c-1.6-1-4.4-1-6 0z"/>
					<path id="&lt;Path&gt;" class="s1" d="m367.5 536.6l-11 6.4c-1.7 0.9-1.7 2.5 0 3.5l11 6.3c1.6 1 4.4 1 6 0l11-6.3c1.7-1 1.7-2.6 0-3.5l-11-6.4c-1.6-0.9-4.4-0.9-6 0z"/>
					<path id="&lt;Path&gt;" class="s1" d="m389.4 523.9l-10.9 6.4c-1.7 0.9-1.7 2.5 0 3.5l10.9 6.3c1.7 1 4.4 1 6.1 0l11-6.3c1.7-1 1.7-2.6 0-3.5l-11-6.4c-1.7-0.9-4.4-0.9-6.1 0z"/>
					<path id="&lt;Path&gt;" class="s1" d="m433.4 498.6l-11 6.3c-1.7 1-1.7 2.5 0 3.5l11 6.4c1.7 0.9 4.4 0.9 6.1 0l10.9-6.4c1.7-1 1.7-2.5 0-3.5l-10.9-6.3c-1.7-1-4.4-1-6.1 0z"/>
					<path id="&lt;Path&gt;" class="s1" d="m477.3 473.2l-11 6.3c-1.6 1-1.6 2.6 0 3.5l11 6.4c1.7 0.9 4.4 0.9 6.1 0l11-6.4c1.7-0.9 1.7-2.5 0-3.5l-11-6.3c-1.7-1-4.4-1-6.1 0z"/>
					<path id="&lt;Path&gt;" class="s1" d="m521.3 447.8l-11 6.4c-1.7 0.9-1.7 2.5 0 3.5l11 6.3c1.7 1 4.4 1 6 0l11-6.3c1.7-1 1.7-2.6 0-3.5l-11-6.4c-1.6-0.9-4.3-0.9-6 0z"/>
					<path id="&lt;Path&gt;" class="s1" d="m543.3 435.1l-11 6.4c-1.7 0.9-1.7 2.5 0 3.5l11 6.3c1.6 1 4.4 1 6 0l11-6.3c1.7-1 1.7-2.6 0-3.5l-11-6.4c-1.6-0.9-4.4-0.9-6 0z"/>
					<path id="&lt;Path&gt;" class="s1" d="m301.5 600l-32.9 19.1c-1.7 0.9-1.7 2.5 0 3.5l10.9 6.3c1.7 1 4.4 1 6.1 0l33-19c1.6-1 1.6-2.6 0-3.5l-11-6.4c-1.7-0.9-4.4-0.9-6.1 0z"/>
					<path id="&lt;Path&gt;" class="s1" d="m323.5 587.4l-11 6.3c-1.7 1-1.7 2.5 0 3.5l11 6.3c1.7 1 4.4 1 6.1 0l10.9-6.3c1.7-1 1.7-2.5 0-3.5l-10.9-6.3c-1.7-1-4.4-1-6.1 0z"/>
					<path id="&lt;Path&gt;" class="s1" d="m345.5 574.7l-11 6.3c-1.7 1-1.7 2.5 0 3.5l11 6.4c1.6 0.9 4.4 0.9 6 0l11-6.4c1.7-1 1.7-2.5 0-3.5l-11-6.3c-1.6-1-4.4-1-6 0z"/>
					<path id="&lt;Path&gt;" class="s1" d="m367.4 562l-11 6.3c-1.6 1-1.6 2.6 0 3.5l11 6.4c1.7 0.9 4.4 0.9 6.1 0l11-6.4c1.7-0.9 1.7-2.5 0-3.5l-11-6.3c-1.7-1-4.4-1-6.1 0z"/>
					<path id="&lt;Path&gt;" class="s1" d="m477.3 498.5l-11 6.4c-1.7 1-1.7 2.5 0 3.5l11 6.3c1.7 1 4.4 1 6.1 0l11-6.3c1.6-1 1.6-2.5 0-3.5l-11-6.4c-1.7-0.9-4.4-0.9-6.1 0z"/>
					<path id="&lt;Path&gt;" class="s1" d="m389.4 549.3l-11 6.3c-1.6 1-1.6 2.6 0 3.5l11 6.4c1.7 0.9 4.4 0.9 6.1 0l11-6.4c1.6-0.9 1.6-2.5 0-3.5l-11-6.3c-1.7-1-4.4-1-6.1 0z"/>
					<path id="&lt;Path&gt;" class="s1" d="m411.4 536.6l-11 6.4c-1.7 0.9-1.7 2.5 0 3.5l11 6.3c1.7 1 4.4 1 6 0l11-6.3c1.7-1 1.7-2.6 0-3.5l-11-6.4c-1.6-1-4.3-1-6 0z"/>
					<path id="&lt;Path&gt;" class="s1" d="m433.4 523.9l-11 6.4c-1.7 0.9-1.7 2.5 0 3.5l11 6.3c1.6 1 4.4 1 6 0l11-6.3c1.7-1 1.7-2.6 0-3.5l-11-6.4c-1.6-0.9-4.4-0.9-6 0z"/>
					<path id="&lt;Path&gt;" class="s1" d="m455.3 511.2l-11 6.4c-1.6 0.9-1.6 2.5 0 3.5l11 6.3c1.7 1 4.4 1 6.1 0l11-6.3c1.7-1 1.7-2.6 0-3.5l-11-6.4c-1.7-0.9-4.4-0.9-6.1 0z"/>
					<path id="&lt;Path&gt;" class="s1" d="m499.3 485.9l-11 6.3c-1.7 1-1.7 2.5 0 3.5l11 6.4c1.6 0.9 4.4 0.9 6 0l11-6.4c1.7-1 1.7-2.5 0-3.5l-11-6.3c-1.6-1-4.4-1-6 0z"/>
					<path id="&lt;Path&gt;" class="s1" d="m521.3 473.2l-11 6.3c-1.7 1-1.7 2.6 0 3.5l11 6.4c1.6 0.9 4.3 0.9 6 0l11-6.4c1.7-0.9 1.7-2.5 0-3.5l-11-6.3c-1.7-1-4.4-1-6 0z"/>
					<path id="&lt;Path&gt;" class="s1" d="m543.2 460.5l-11 6.3c-1.6 1-1.6 2.6 0 3.5l11 6.4c1.7 0.9 4.4 0.9 6.1 0l11-6.4c1.6-0.9 1.6-2.5 0-3.5l-11-6.3c-1.7-1-4.4-1-6.1 0z"/>
					<path id="&lt;Path&gt;" class="s1" d="m565.2 447.8l-11 6.3c-1.7 1-1.7 2.6 0 3.5l11 6.4c1.7 1 4.4 1 6.1 0l11-6.4c1.6-0.9 1.6-2.5 0-3.5l-11-6.3c-1.7-1-4.4-1-6.1 0z"/>
					<path id="&lt;Path&gt;" class="s1" d="m345.4 600l-54.9 31.7c-1.7 1-1.7 2.6 0 3.5l11 6.4c1.7 0.9 4.4 0.9 6 0l55-31.7c1.6-1 1.6-2.6 0-3.5l-11-6.4c-1.7-0.9-4.4-0.9-6.1 0z"/>
					<path id="&lt;Path&gt;" class="s1" d="m367.4 587.3l-11 6.4c-1.7 0.9-1.7 2.5 0 3.5l11 6.3c1.7 1 4.4 1 6.1 0l11-6.3c1.6-1 1.6-2.6 0-3.5l-11-6.4c-1.7-0.9-4.4-0.9-6.1 0z"/>
					<path id="&lt;Path&gt;" class="s1" d="m389.4 574.6l-11 6.4c-1.7 1-1.7 2.5 0 3.5l11 6.3c1.6 1 4.4 1 6 0l11-6.3c1.7-1 1.7-2.5 0-3.5l-11-6.4c-1.6-0.9-4.4-0.9-6 0z"/>
					<path id="&lt;Path&gt;" class="s1" d="m499.2 511.2l-10.9 6.4c-1.7 0.9-1.7 2.5 0 3.5l10.9 6.3c1.7 1 4.4 1 6.1 0l11-6.3c1.7-1 1.7-2.6 0-3.5l-11-6.4c-1.7-0.9-4.4-0.9-6.1 0z"/>
					<path id="&lt;Path&gt;" class="s1" d="m411.4 562l-11 6.3c-1.7 1-1.7 2.5 0 3.5l10.9 6.3c1.7 1 4.4 1 6.1 0l11-6.3c1.7-1 1.7-2.5 0-3.5l-11-6.3c-1.7-1-4.4-1-6 0z"/>
					<path id="&lt;Path&gt;" class="s1" d="m433.3 549.3l-11 6.3c-1.6 1-1.6 2.6 0 3.5l11 6.4c1.7 0.9 4.4 0.9 6.1 0l11-6.4c1.6-0.9 1.6-2.5 0-3.5l-11-6.3c-1.7-1-4.4-1-6.1 0z"/>
					<path id="&lt;Path&gt;" class="s1" d="m455.3 536.6l-11 6.3c-1.7 1-1.7 2.6 0 3.5l11 6.4c1.7 0.9 4.4 0.9 6.1 0l10.9-6.4c1.7-0.9 1.7-2.5 0-3.5l-10.9-6.3c-1.7-1-4.4-1-6.1 0z"/>
					<path id="&lt;Path&gt;" class="s1" d="m477.3 523.9l-11 6.3c-1.7 1-1.7 2.6 0 3.5l11 6.4c1.6 1 4.4 1 6 0l11-6.4c1.7-0.9 1.7-2.5 0-3.5l-11-6.3c-1.6-1-4.4-1-6 0z"/>
					<path id="&lt;Path&gt;" class="s1" d="m521.2 498.5l-11 6.4c-1.6 0.9-1.6 2.5 0 3.5l33 19c1.6 0.9 4.4 0.9 6 0l11-6.4c1.7-0.9 1.7-2.5 0-3.5l-32.9-19c-1.7-0.9-4.4-0.9-6.1 0z"/>
					<path id="&lt;Path&gt;" class="s1" d="m543.2 485.8l-11 6.4c-1.7 0.9-1.7 2.5 0 3.5l11 6.3c1.7 1 4.4 1 6.1 0l10.9-6.3c1.7-1 1.7-2.6 0-3.5l-10.9-6.4c-1.7-0.9-4.4-0.9-6.1 0z"/>
					<path id="&lt;Path&gt;" class="s1" d="m565.2 473.2l-11 6.3c-1.7 1-1.7 2.5 0 3.5l11 6.3c1.6 1 4.4 1 6 0l11-6.3c1.7-1 1.7-2.5 0-3.5l-11-6.3c-1.6-1-4.4-1-6 0z"/>
					<path id="&lt;Path&gt;" class="s1" d="m587.1 460.5l-11 6.3c-1.6 1-1.6 2.6 0 3.5l33 19c1.6 1 4.4 1 6 0l11-6.3c1.7-1 1.7-2.6 0-3.5l-32.9-19c-1.7-1-4.4-1-6.1 0z"/>
					<path id="&lt;Path&gt;" class="s1" d="m323.4 638.1l-11 6.3c-1.6 1-1.6 2.5 0 3.5l11 6.3c1.7 1 4.4 1 6.1 0l11-6.3c1.6-1 1.6-2.5 0-3.5l-11-6.3c-1.7-1-4.4-1-6.1 0z"/>
					<path id="&lt;Path&gt;" class="s1" d="m345.4 625.4l-11 6.3c-1.7 1-1.7 2.6 0 3.5l11 6.4c1.7 0.9 4.4 0.9 6.1 0l10.9-6.4c1.7-0.9 1.7-2.5 0-3.5l-10.9-6.3c-1.7-1-4.4-1-6.1 0z"/>
					<path id="&lt;Path&gt;" class="s1" d="m367.4 612.7l-11 6.3c-1.7 1-1.7 2.6 0 3.5l11 6.4c1.6 0.9 4.4 0.9 6 0l11-6.4c1.7-0.9 1.7-2.5 0-3.5l-11-6.3c-1.6-1-4.4-1-6 0z"/>
					<path id="&lt;Path&gt;" class="s1" d="m389.3 600l-10.9 6.3c-1.7 1-1.7 2.6 0 3.5l10.9 6.4c1.7 1 4.4 1 6.1 0l11-6.4c1.7-0.9 1.7-2.5 0-3.5l-11-6.3c-1.7-1-4.4-1-6.1 0z"/>
					<path id="&lt;Path&gt;" class="s1" d="m411.3 587.3l-11 6.4c-1.6 0.9-1.6 2.5 0 3.5l11 6.3c1.7 1 4.4 1 6.1 0l11-6.3c1.6-1 1.6-2.6 0-3.5l-11-6.4c-1.7-1-4.4-1-6.1 0z"/>
					<path id="&lt;Path&gt;" class="s1" d="m521.2 523.9l-11 6.3c-1.7 1-1.7 2.6 0 3.5l11 6.4c1.6 0.9 4.4 0.9 6 0l11-6.4c1.7-0.9 1.7-2.5 0-3.5l-11-6.3c-1.6-1-4.4-1-6 0z"/>
					<path id="&lt;Path&gt;" class="s1" d="m433.3 574.6l-11 6.4c-1.7 0.9-1.7 2.5 0 3.5l11 6.3c1.7 1 4.4 1 6.1 0l10.9-6.3c1.7-1 1.7-2.6 0-3.5l-10.9-6.4c-1.7-0.9-4.4-0.9-6.1 0z"/>
					<path id="&lt;Path&gt;" class="s1" d="m455.3 561.9l-11 6.4c-1.7 0.9-1.7 2.5 0 3.5l11 6.3c1.6 1 4.4 1 6 0l11-6.3c1.7-1 1.7-2.6 0-3.5l-11-6.4c-1.6-0.9-4.4-0.9-6 0z"/>
					<path id="&lt;Path&gt;" class="s1" d="m477.2 549.3l-11 6.3c-1.6 1-1.6 2.5 0 3.5l11 6.3c1.7 1 4.4 1 6.1 0l11-6.3c1.7-1 1.7-2.5 0-3.5l-11-6.3c-1.7-1-4.4-1-6.1 0z"/>
					<path id="&lt;Path&gt;" class="s1" d="m499.2 536.6l-11 6.3c-1.6 1-1.6 2.5 0 3.5l11 6.4c1.7 0.9 4.4 0.9 6.1 0l11-6.4c1.6-1 1.6-2.5 0-3.5l-11-6.3c-1.7-1-4.4-1-6.1 0z"/>
					<path id="&lt;Path&gt;" class="s1" d="m565.1 498.5l-11 6.4c-1.6 0.9-1.6 2.5 0 3.5l11 6.3c1.7 1 4.4 1 6.1 0l11-6.3c1.6-1 1.6-2.6 0-3.5l-11-6.4c-1.7-1-4.4-1-6.1 0z"/>
					<path id="&lt;Path&gt;" class="s1" d="m587.1 485.8l-11 6.4c-1.7 0.9-1.7 2.5 0 3.5l11 6.3c1.7 1 4.4 1 6.1 0l11-6.3c1.6-1 1.6-2.6 0-3.5l-11-6.4c-1.7-0.9-4.4-0.9-6.1 0z"/>
					<path id="&lt;Path&gt;" class="s1" d="m367.3 638l-32.9 19.1c-1.7 0.9-1.7 2.5 0 3.5l11 6.3c1.6 1 4.4 1 6 0l33-19c1.7-1 1.7-2.6 0-3.5l-11-6.4c-1.7-0.9-4.4-0.9-6.1 0z"/>
					<path id="&lt;Path&gt;" class="s1" d="m411.3 612.7l-33 19c-1.6 1-1.6 2.5 0 3.5l11 6.3c1.7 1 4.4 1 6.1 0l32.9-19c1.7-1 1.7-2.5 0-3.5l-11-6.3c-1.6-1-4.4-1-6 0z"/>
					<path id="&lt;Path&gt;" class="s1" d="m521.1 549.2l-98.8 57.1c-1.7 1-1.7 2.6 0 3.5l11 6.4c1.6 0.9 4.4 0.9 6 0l98.9-57.1c1.7-1 1.7-2.6 0-3.5l-11-6.4c-1.7-0.9-4.4-0.9-6.1 0z"/>
					<path id="&lt;Path&gt;" class="s1" d="m565.1 523.9l-33 19c-1.6 1-1.6 2.5 0 3.5l11 6.3c1.7 1 4.4 1 6.1 0l32.9-19c1.7-1 1.7-2.5 0-3.5l-10.9-6.3c-1.7-1-4.4-1-6.1 0z"/>
					<path id="&lt;Path&gt;" class="s1" d="m587.1 511.2l-11 6.3c-1.7 1-1.7 2.6 0 3.5l11 6.4c1.6 0.9 4.4 0.9 6 0l11-6.4c1.7-0.9 1.7-2.5 0-3.5l-11-6.3c-1.6-1-4.4-1-6 0z"/>
					<path id="&lt;Path&gt;" class="s1" d="m631 485.8l-32.9 19c-1.7 1-1.7 2.6 0 3.5l10.9 6.4c1.7 0.9 4.4 0.9 6.1 0l33-19.1c1.6-0.9 1.6-2.5 0-3.5l-11-6.3c-1.7-1-4.4-1-6.1 0z"/>
				</g>
			</g>
			<g id="&lt;Group&gt;">
				<path id="&lt;Path&gt;" class="s17" d="m475.2 386.8l-307.2 184.6c-8.9 5.1-26.8-2-29-13.2l-46.6-239.4c-2.2-11.3 3.4-24.7 12.3-29.8l315.9-182.4c9-5.2 23.8-4.7 28.9 7l38 243.4c2.2 11.2-3.4 24.7-12.3 29.8z"/>
				<path id="&lt;Path&gt;" class="s18" d="m485.6 388.1l-315.9 182.4c-9 5.2-18.1 0.2-20.3-11l-46.6-239.4c-2.2-11.3 3.4-24.7 12.3-29.8l315.9-182.4c9-5.2 18.1-0.2 20.3 11l46.6 239.4c2.2 11.2-3.4 24.7-12.3 29.8z"/>
				<path id="&lt;Path&gt;" class="s19" d="m477.8 380.5l-304.6 175.8c-6.6 3.9-13.3 0.2-15-8.1l-41.9-215.6c-1.6-8.3 2.5-18.2 9.1-22l304.5-175.9c6.7-3.8 13.4-0.1 15 8.2l42 215.5c1.6 8.3-2.5 18.3-9.1 22.1z"/>
				<path id="&lt;Path&gt;" class="s3" d="m470.3 375.7l-292.7 169c-6.3 3.6-12.7 0.2-14.2-7.7l-39.1-200.8c-1.5-7.9 2.3-17.3 8.6-20.9l292.7-169c6.3-3.6 12.6-0.1 14.2 7.8l39.1 200.8c1.5 7.8-2.4 17.2-8.6 20.8z"/>
				<path id="&lt;Path&gt;" class="s4" d="m439.8 154.1l39.1 200.8c1.5 7.8-2.4 17.2-8.6 20.8l-292.7 169c-6.3 3.6-12.7 0.2-14.2-7.7z"/>
				<path id="&lt;Path&gt;" class="s17" d="m280.4 207.9c0.6 3-1.2 6.8-4 8.4-2.8 1.6-5.5 0.5-6.1-2.6-0.6-3 1.2-6.8 4-8.4 2.8-1.6 5.5-0.4 6.1 2.6z"/>
				<path id="&lt;Path&gt;" class="s5" d="m277.5 209.6c0.2 1.3-0.5 2.9-1.7 3.5-1.2 0.7-2.3 0.2-2.6-1.1-0.2-1.2 0.5-2.8 1.7-3.5 1.2-0.7 2.3-0.2 2.6 1.1z"/>
				<path id="&lt;Path&gt;" class="s20" d="m291.3 201.6c0.3 1.6-0.7 3.6-2.1 4.4-1.4 0.8-2.9 0.2-3.2-1.3-0.3-1.6 0.7-3.6 2.1-4.4 1.4-0.8 2.9-0.2 3.2 1.3z"/>
			</g>
		</g>
		<path id="&lt;Path&gt;" class="s0" d="m346.1 693.7l140.2-109.5c4.7-3.7 3.7-11.1-1.9-13.3l-129-52.2c-5.7-2.4-14.9-0.7-20.6 3.7l-121.3 94.8z"/>
		<g id="&lt;Group&gt;">
			<path id="&lt;Path&gt;" class="s21" d="m332.5 531.3l144.5 49.1-198.8 174.3-144.5-49c-2.9-1-4.5-2.9-4.7-5.1-0.1-2.2-2-10-2-10l185.1-154.3c5.4-4.7 14.5-7 20.4-5z"/>
			<path id="&lt;Path&gt;" class="s22" d="m330.3 520.5l144.5 49-198.8 174.3-144.5-49c-5.8-2-6.2-7.4-0.9-12.2l179.4-157.2c5.3-4.7 14.5-6.9 20.3-4.9z"/>
			<path id="&lt;Path&gt;" class="s22" d="m129.4 693.8l81.8-69.4-87.6 40z"/>
			<path id="&lt;Path&gt;" class="s21" d="m126.9 689.9c0.1 0.7 0.5 2.5 2.5 3.9l-6.8-34.3-2.2-1.4z"/>
			<path id="&lt;Path&gt;" class="s23" d="m337.6 518.9l132.4 49.9-194.8 170.8-136.6-46.3c-2.9-1-4.3-2.9-4.6-5.1-0.5-3-5-24.7-5-24.7l188.2-139.7c5.4-4.7 14.5-6.9 20.4-4.9z"/>
			<path id="&lt;Path&gt;" class="s6" d="m464.1 539.4l5.9 29.4-194.8 170.8-5.9-29.4z"/>
			<path id="&lt;Path&gt;" class="s21" d="m324.5 491.1l144.4 49-198.7 174.3-144.5-49c-2.3-0.8-3.8-2.1-4.4-3.7-0.9-2.5-2.5-13.3-2.5-13.3l185.3-152.4c5.4-4.7 14.5-6.9 20.4-4.9z"/>
			<path id="&lt;Path&gt;" class="s24" d="m474.8 569.5l2.2 10.9-198.8 174.3-2.2-10.9z"/>
			<path id="&lt;Path&gt;" class="s24" d="m466.8 529.1l2.1 11-198.7 174.3-2.2-11z"/>
			<path id="&lt;Path&gt;" class="s25" d="m322.3 480l144.5 49.1-198.8 174.3-144.5-49.1c-5.9-2-6.3-7.4-0.9-12.1l179.3-157.3c5.4-4.7 14.5-6.9 20.4-4.9z"/>
			<g id="&lt;Group&gt;">
				<path id="&lt;Path&gt;" class="s26" d="m291.3 654.2c-24.3 14-63.6 14-87.8 0-24.3-14-24.3-36.7 0-50.7 24.2-14 63.5-14 87.8 0 24.2 14 24.2 36.7 0 50.7z"/>
				<path id="&lt;Path&gt;" class="s25" d="m251.5 631.3c-2.3 1.3-6 1.3-8.3 0-2.3-1.3-2.3-3.5 0-4.8 2.3-1.3 6-1.3 8.3 0 2.3 1.3 2.3 3.5 0 4.8z"/>
				<path id="&lt;Path&gt;" class="s25" d="m282.6 613.6c-2.4 1.5-6.4 1.5-8.8 0-2.5-1.4-2.5-3.7 0-5.1 2.4-1.4 6.4-1.4 8.8 0 2.5 1.4 2.5 3.7 0 5.1z"/>
				<path id="&lt;Path&gt;" class="s27" d="m256.1 633.9c-17 9.8-34.8 15.6-39.6 12.8-4.8-2.8 5.1-13 22.1-22.8 17.1-9.9 34.8-15.6 39.6-12.8 4.8 2.8-5.1 13-22.1 22.8z"/>
				<path id="&lt;Path&gt;" class="s25" d="m209.6 629.5c-3.8 0-6.9-1.8-6.9-4 0-2.2 3.1-4 6.9-4 3.8 0 6.9 1.8 6.9 4 0 2.2-3.1 4-6.9 4z"/>
				<path id="&lt;Path&gt;" class="s27" d="m247.4 636c-24.1 0-43.6-3.2-43.6-7.1 0-3.9 19.5-7.1 43.6-7.1 24.1 0 43.6 3.2 43.6 7.1 0 3.9-19.5 7.1-43.6 7.1z"/>
				<path id="&lt;Path&gt;" class="s25" d="m247.4 649.3c0-1.7 2.5-3.1 5.5-3.1 3 0 5.4 1.4 5.4 3.1 0 1.7-2.4 3.1-5.4 3.1-3 0-5.5-1.4-5.5-3.1z"/>
				<path id="&lt;Path&gt;" class="s27" d="m235 628.9c0-13.9 5.5-25.1 12.3-25.1 6.8 0 12.3 11.2 12.3 25.1 0 14-5.5 25.2-12.3 25.2-6.8 0-12.3-11.2-12.3-25.2z"/>
				<path id="&lt;Path&gt;" class="s25" d="m272 642c-2.6-1.5-2.6-3.9 0-5.3 2.5-1.5 6.7-1.5 9.2 0 2.6 1.4 2.6 3.8 0 5.3-2.5 1.5-6.7 1.5-9.2 0z"/>
				<path id="&lt;Path&gt;" class="s27" d="m238.6 634c-17-9.9-26.9-20.1-22.1-22.9 4.8-2.7 22.6 3 39.6 12.8 17 9.8 26.9 20.1 22.1 22.8-4.8 2.8-22.5-2.9-39.6-12.7z"/>
			</g>
			<path id="&lt;Path&gt;" class="s26" d="m317.4 497.7l110.1 37.4c5 1.7 6.3 8.1 2.3 11.6l-18.4 16.2c-1.8 1.6-4.4 2.1-6.7 1.3l-117.6-39.9c-4.9-1.7-5.2-6.2-0.7-10.2l14-12.3c4.5-3.9 12.1-5.8 17-4.1z"/>
		</g>
		<path id="&lt;Path&gt;" class="s0" d="m812.3 882.1c-50 28.8-130.9 28.8-180.8 0-50-28.8-50-75.6 0-104.4 49.9-28.8 130.8-28.8 180.8 0 49.9 28.8 49.9 75.6 0 104.4z"/>
		<g id="&lt;Group&gt;">
			<path id="&lt;Path&gt;" class="s19" d="m721.9 889.6c-69 0-125.4-53.9-125.4-53.9v-98.7h250.7v98.7c0 0-56.4 53.9-125.3 53.9z"/>
			<path id="&lt;Path&gt;" class="s28" d="m842.4 829c-0.3 3.3-2 6.3-4.6 8.4-14.2 11-62.9 45.9-115.9 45.9-53 0-101.8-34.9-115.9-45.9-2.6-2.1-4.3-5.1-4.7-8.4l-4.8-43.2v49.9c0 0 56.4 53.9 125.4 53.9 68.9 0 125.3-53.9 125.3-53.9v-49.9z"/>
			<path id="&lt;Path&gt;" class="s29" d="m890.7 740.2l-165.6-95.6c-2-1.1-4.5-1.1-6.5 0l-165.6 95.6c-2.1 1.3-3.2 3.5-3.2 5.7v11.9c0 2.2 1.1 4.4 3.2 5.7l165.6 95.6c2 1.2 4.5 1.2 6.5 0l165.6-95.6c2.2-1.3 3.3-3.5 3.3-5.7v-11.9c0-2.2-1.1-4.4-3.3-5.7z"/>
			<path id="&lt;Path&gt;" class="s19" d="m718.6 847.1l-165.6-95.6c-4.3-2.5-4.3-8.7 0-11.3l165.6-95.6c2-1.1 4.5-1.1 6.5 0l165.6 95.6c4.4 2.6 4.4 8.8 0 11.3l-165.6 95.6c-2 1.2-4.5 1.2-6.5 0z"/>
			<path id="&lt;Path&gt;" class="s29" d="m730.1 750.3c-4.6 2.6-11.9 2.6-16.4 0-4.5-2.6-4.5-6.9 0-9.5 4.5-2.6 11.8-2.6 16.4 0 4.5 2.6 4.5 6.9 0 9.5z"/>
			<path id="&lt;Path&gt;" class="s30" d="m721.9 745.6l80.3 57.6 0.2 27.4"/>
			<path id="&lt;Path&gt;" class="s31" d="m801.7 824.6c-3.8 0.3-6.5 3.7-6.5 7.5v13.8c0 2.7 2.9 4.4 5.3 3l7.3-4.2c1.1-0.6 1.7-1.8 1.7-3v-10c0-4.2-3.6-7.5-7.8-7.1z"/>
		</g>
		<path id="&lt;Path&gt;" class="s0" d="m247.2 887.8c-28.3 16.3-74.1 16.3-102.4 0-28.3-16.4-28.3-42.8 0-59.1 28.3-16.4 74.1-16.4 102.4 0 28.3 16.3 28.3 42.7 0 59.1z"/>
		<g id="&lt;Group&gt;">
			<path id="&lt;Path&gt;" class="s6" d="m242.5 694.1c-25.7-14.8-67.4-14.8-93 0-12.9 7.5-19.3 17.2-19.3 26.9v131.8c0 9.7 6.4 19.5 19.3 26.9 25.6 14.8 67.3 14.8 93 0 12.8-7.4 19.3-17.2 19.3-26.9v-131.8c0-9.7-6.5-19.4-19.3-26.9z"/>
			<path id="&lt;Path&gt;" class="s14" d="m130.2 721v7.1c2.4 7.4 8.5 14.5 18.4 20.2 26.2 15.1 68.6 15.1 94.7 0 9.9-5.7 16.1-12.8 18.5-20.2v-7.1c0-9.7-6.5-19.4-19.3-26.9-25.7-14.8-67.4-14.8-93 0-12.9 7.5-19.3 17.2-19.3 26.9z"/>
			<path id="&lt;Path&gt;" class="s32" d="m239.1 745.9c-23.8 13.8-62.4 13.8-86.2 0-23.9-13.7-23.9-36 0-49.8 23.8-13.7 62.4-13.7 86.2 0 23.8 13.8 23.8 36.1 0 49.8z"/>
			<path id="&lt;Path&gt;" class="s33" d="m239.1 727.4c-23.8-13.7-62.4-13.7-86.2 0-4.9 2.8-8.7 5.9-11.5 9.3 2.8 3.3 6.6 6.4 11.5 9.2 23.8 13.8 62.4 13.8 86.2 0 4.8-2.8 8.6-5.9 11.5-9.2-2.9-3.4-6.7-6.5-11.5-9.3z"/>
			<path id="&lt;Path&gt;" class="s32" d="m247.3 773.6l0.1-4.2c0 0 10.2-2.5 13.1-8 0 0 22.6 3.8 22.6 30.5 0 20.6-23.1 46.6-23.1 46.6l-12.1 6.2-0.2-3.7c0 0 31.7-26.1 26.2-48-5.5-22-26.6-19.4-26.6-19.4z"/>
			<path id="&lt;Path&gt;" class="s14" d="m247.4 769.4c0 0 7.9-1.3 14.4-13.2 0 0 29.3 9.7 27 39.6-1.9 26-27.6 41.8-27.6 41.8 0 0-5.2 5.6-13.3 7.1 0 0 34.9-28.6 28.9-52.3-6-23.8-29.4-23-29.4-23z"/>
		</g>
		<path id="&lt;Path&gt;" class="s0" d="m795.3 412.6l39.3-21.8c2.3-1.3 2.3-4.6 0-5.9l-93.2-53.6c-1.9-1.1-4.2-1.1-6.1 0l-34.1 18.8c-4 2.3-4 8.1 0 10.4l90.6 52.1c1.1 0.6 2.4 0.6 3.5 0z"/>
		<g id="&lt;Group&gt;">
			<path id="&lt;Path&gt;" class="s34" d="m723 325.5l108.1 62.6 0.2-237.3-108.1-62.6c-2.2-1.2-4.2-1.2-5.7-0.1-1.4 1.1-7.2 4.1-7.2 4.1l4.8 218.1c0 5.9 3.5 12.7 7.9 15.2z"/>
			<path id="&lt;Path&gt;" class="s22" d="m715.1 330.1l108.2 62.5 0.1-237.3-108.1-62.5c-4.4-2.6-8 0.1-8 6l-0.1 216.1c0 5.8 3.5 12.6 7.9 15.2z"/>
			<path id="&lt;Path&gt;" class="s22" d="m713.5 92l1.4 87.9-22.6-75.6z"/>
			<path id="&lt;Path&gt;" class="s34" d="m709.8 92.6c0.5-0.4 1.8-1.1 3.7-0.6l-24.7 14.3-2.1-0.5z"/>
			<path id="&lt;Path&gt;" class="s14" d="m718.1 335.4l102.1 54.6 0.2-232.9-102.2-59.1c-2.2-1.3-4.1-1.1-5.6-0.2-2.2 1.4-18 10.3-18 10.3l15.5 212.1c0 5.8 3.6 12.6 8 15.2z"/>
			<path id="&lt;Path&gt;" class="s6" d="m799 402.3l21.2-12.3 0.2-232.9-21.3 12.2z"/>
			<path id="&lt;Path&gt;" class="s34" d="m693.9 342.3l108.1 62.6 0.2-237.3-108.2-62.6c-1.7-1-3.3-1.2-4.6-0.7-2 0.8-9.5 5.7-9.5 5.7l6 217.1c0 5.9 3.6 12.7 8 15.2z"/>
			<path id="&lt;Path&gt;" class="s24" d="m823.3 392.6l7.8-4.5 0.2-237.3-7.9 4.5z"/>
			<path id="&lt;Path&gt;" class="s24" d="m794.1 409.5l7.9-4.6 0.2-237.3-8 4.6z"/>
			<path id="&lt;Path&gt;" class="s35" d="m685.8 346.9l108.3 62.6 0.1-237.3-108.2-62.5c-4.4-2.6-7.9 0.1-8 6l-0.1 216.1c0 5.8 3.5 12.6 7.9 15.1z"/>
			<path id="&lt;Path&gt;" class="s26" d="m697.1 178.8l69.6 40.3c4.8 2.7 10.8-0.7 10.8-6.2l0.1-9.2c0-7.2-3.8-13.8-10.1-17.4l-70.3-40.7c-3.2-1.9-5.9 0.1-5.9 4.5l-0.1 17.4c0 4.4 2.6 9.4 5.9 11.3z"/>
			<path id="&lt;Path&gt;" class="s36" d="m680 195.1l-0.1 144.8c1.4 3 3.6 5.7 5.9 7l85.5 49.4 0.1-156.7-85.1-49.3c-3.5-2-6.3 0.2-6.3 4.8z"/>
		</g>
		<path id="&lt;Path&gt;" class="s0" d="m732.2 432.9l30.3-17.5c2.3-1.4 2.3-4.7 0-6l-93.2-53.5c-1.9-1.1-4.2-1.1-6.1 0l-25 14.4c-4.1 2.4-4.1 8.2-0.1 10.5l90.7 52c1 0.7 2.4 0.7 3.4 0.1z"/>
		<g id="&lt;Group&gt;">
			<path id="&lt;Path&gt;" class="s37" d="m675.2 362l85.2 49.3 0.1-170.5-85.2-49.3c-1.7-1-3.2-0.9-4.4-0.1-1.1 0.9-5.7 3.3-5.7 3.3l3.8 155.4c0 4.6 2.8 9.9 6.2 11.9z"/>
			<path id="&lt;Path&gt;" class="s38" d="m669 365.6l85.2 49.3 0.1-170.5-85.2-49.3c-3.4-2-6.2 0.1-6.2 4.7l-0.1 153.8c0 4.6 2.8 10 6.2 12z"/>
			<path id="&lt;Path&gt;" class="s38" d="m667.8 194.5l1 69.2-17.8-59.5z"/>
			<path id="&lt;Path&gt;" class="s37" d="m664.8 194.9c0.4-0.2 1.4-0.8 3-0.4l-19.5 11.3-1.7-0.5z"/>
			<path id="&lt;Path&gt;" class="s14" d="m671.3 369.8l80.5 43 0.1-167-80.5-46.6c-1.7-1-3.2-0.9-4.4-0.1-1.7 1-14.1 8.1-14.1 8.1l12.2 150.6c0 4.6 2.8 10 6.2 12z"/>
			<path id="&lt;Path&gt;" class="s6" d="m735 422.4l16.8-9.6 0.1-167-16.7 9.6z"/>
			<path id="&lt;Path&gt;" class="s37" d="m652.3 375.2l85.1 49.3 0.2-170.5-85.2-49.2c-1.4-0.8-2.6-1-3.6-0.6-1.6 0.6-7.5 4.4-7.5 4.4l4.7 154.7c0 4.6 2.8 9.9 6.3 11.9z"/>
			<path id="&lt;Path&gt;" class="s39" d="m754.2 414.9l6.2-3.6 0.1-170.5-6.2 3.6z"/>
			<path id="&lt;Path&gt;" class="s39" d="m731.2 428.1l6.2-3.6 0.2-170.5-6.2 3.6z"/>
			<path id="&lt;Path&gt;" class="s40" d="m646 378.9l85.1 49.2 0.1-170.4-85.1-49.3c-3.5-2-6.3 0.1-6.3 4.7l-0.1 153.8c0 4.6 2.8 10 6.3 12z"/>
			<g id="&lt;Group&gt;">
				<path id="&lt;Path&gt;" class="s41" d="m708.3 372.5c0 15.8-11.1 22.2-24.9 14.3-13.7-7.9-24.8-27.2-24.8-43 0-15.9 11.1-22.3 24.8-14.4 13.8 8 24.9 27.2 24.9 43.1z"/>
				<g id="&lt;Group&gt;">
					<path id="&lt;Path&gt;" class="s40" d="m668.8 366.6l5.7-9.3 17.4-10c1.4-0.8 3.7 0.5 5.1 3 1.5 2.4 1.5 5.1 0 5.9l-17.3 10.1z"/>
					<path id="&lt;Path&gt;" class="s41" d="m690 359.2l4.5-2.6q-2.1-3.7-4.2-7.3l-4.5 2.6z"/>
					<path id="&lt;Path&gt;" class="s41" d="m675 359l-2.1 3.3q0.9 1.4 1.7 2.8l3.9-0.1z"/>
				</g>
			</g>
			<path id="&lt;Path&gt;" class="s41" d="m652.7 255.7l61.6 35.7c4.2 2.4 9.5-0.6 9.5-5.5l0.1-8.1c0-6.4-3.4-12.3-8.9-15.4l-62.2-36c-2.9-1.7-5.2 0.1-5.2 3.9l-0.1 15.5c0 3.8 2.3 8.3 5.2 9.9z"/>
			<path id="&lt;Path&gt;" class="s41" d="m652.7 296.6l61.6 35.6c4.2 2.4 9.5-0.6 9.5-5.5l0.1-8.1c0-6.3-3.4-12.2-8.9-15.4l-62.2-36c-2.9-1.6-5.2 0.1-5.2 4l-0.1 15.4c0 3.8 2.3 8.3 5.2 10z"/>
		</g>
		<path id="&lt;Path&gt;" class="s0" d="m807.6 670.5l-35.1-20.3c-2.6-1.5-2.6-5.3 0-6.9l110-64.1c2.2-1.2 4.9-1.2 7.1 0l29 16.8c4.7 2.7 4.7 9.4 0 12.1l-107 62.4c-1.2 0.7-2.7 0.7-4 0z"/>
		<g id="&lt;Group&gt;">
			<path id="&lt;Path&gt;" class="s37" d="m869.4 592.7l-91.4 54.1-0.1-187.4 91.4-54.2c1.8-1.1 3.5-1 4.7-0.1 1.3 1 6.2 3.6 6.2 3.6l-4.1 170.8c0 5.1-3 11-6.7 13.2z"/>
			<path id="&lt;Path&gt;" class="s38" d="m876.1 596.6l-91.4 54.1-0.2-187.4 91.4-54.1c3.8-2.2 6.8 0.1 6.8 5.2l0.1 169c0 5.1-3 11-6.7 13.2z"/>
			<path id="&lt;Path&gt;" class="s38" d="m877.4 408.5l-1.1 76.1 19.1-65.5z"/>
			<path id="&lt;Path&gt;" class="s39" d="m880.6 409c-0.4-0.3-1.5-0.9-3.2-0.5l21 12.4 1.7-0.5z"/>
			<path id="&lt;Path&gt;" class="s14" d="m873.6 601.2l-86.4 47.3-0.1-183.7 86.4-51.1c1.9-1.1 3.5-1 4.8-0.2 1.8 1.2 15.1 9 15.1 9l-13.1 165.5c0 5.1-3 11-6.7 13.2z"/>
			<path id="&lt;Path&gt;" class="s6" d="m805.2 659.1l-18-10.6-0.1-183.7 18 10.6z"/>
			<path id="&lt;Path&gt;" class="s37" d="m894.1 607.2l-91.5 54.2-0.1-187.5 91.4-54.1c1.5-0.9 2.8-1.1 3.9-0.6 1.7 0.6 8.1 4.8 8.1 4.8l-5.1 170c0 5.1-3 11-6.7 13.2z"/>
			<path id="&lt;Path&gt;" class="s40" d="m784.7 650.7l-6.7-3.9-0.1-187.4 6.6 3.9z"/>
			<path id="&lt;Path&gt;" class="s40" d="m809.4 665.3l-6.8-3.9-0.1-187.5 6.7 4z"/>
			<path id="&lt;Path&gt;" class="s39" d="m900.9 611.2l-91.5 54.1-0.2-187.4 91.5-54.1c3.7-2.2 6.7 0.1 6.7 5.2l0.2 169.1c0 5-3 10.9-6.7 13.1z"/>
			<path id="&lt;Path&gt;" class="s40" d="m894 560.4c0 20.6-14.5 45.7-32.4 56-17.8 10.3-32.3 1.9-32.3-18.7 0-20.6 14.5-45.7 32.3-56 17.9-10.3 32.4-2 32.4 18.7z"/>
			<g id="&lt;Group&gt;">
				<path id="&lt;Path&gt;" class="s39" d="m855.6 593.6c0.8 3.4-2.2 9.1-6.6 12.9-4.4 3.8-8.6 4.2-9.4 0.8-0.8-3.3 2.1-9.1 6.6-12.8 4.4-3.8 8.6-4.2 9.4-0.9z"/>
				<path id="&lt;Path&gt;" class="s39" d="m879.7 577.4c0.8 3.4-2.2 9.1-6.6 12.9-4.4 3.8-8.6 4.2-9.4 0.8-0.8-3.3 2.1-9.1 6.5-12.8 4.5-3.8 8.7-4.2 9.5-0.9z"/>
				<path id="&lt;Path&gt;" class="s42" d="m853.9 594.5v-29.8l24.6-14.2-0.4 27.2"/>
				<path id="&lt;Path&gt;" class="s39" d="m853.9 574.2l23.8-13.7 0.8-10-24.6 14.2z"/>
			</g>
			<path id="&lt;Path&gt;" class="s40" d="m895 469.6l-71.1 42.1c-3.6 2.1-8.1-0.4-8.1-4.6l-0.1-15.5c0-3.5 1.8-6.7 4.8-8.5l74.3-44c3.2-1.9 5.9 0.1 5.9 4.5l0.1 14.7c0 4.3-2.6 9.4-5.8 11.3z"/>
		</g>
		<path id="&lt;Path&gt;" class="s0" d="m590.1 432.3l-133.5 72.1c-4.2 2.3-4.8 5.9-1.2 8.1l82.9 51.2c3.2 1.9 7.1 2 10.3 0.3l136.7-73.9q1.3-0.6 2.2-1.6z"/>
		<g id="&lt;Group&gt;">
			<path id="&lt;Path&gt;" class="s13" d="m603.4 430.7l76.2 49.1-139.5 71.8-76.2-49c-1.6-1-2.2-2.3-2-3.6 0.3-1.2 0.3-6 0.3-6l128.8-62.3c3.8-2 9.4-1.9 12.4 0z"/>
			<path id="&lt;Path&gt;" class="s43" d="m603.8 424.2l76.1 49-139.5 71.8-76.2-49c-3.1-1.9-2.5-5.1 1.2-7.1l125.9-64.8c3.8-2 9.4-1.9 12.5 0.1z"/>
			<path id="&lt;Path&gt;" class="s43" d="m463.1 495.2l57.1-28.3-56.2 10.5z"/>
			<path id="&lt;Path&gt;" class="s13" d="m462.2 492.5c0 0.5-0.1 1.6 0.9 2.7l1-20.7-1-1.2z"/>
			<path id="&lt;Path&gt;" class="s23" d="m608.2 424.3l69.1 47.8-136.8 70.4-72-46.3c-1.5-1-2-2.3-1.9-3.6 0.1-1.8 0.7-15 0.7-15l128.4-53.4c3.8-1.9 9.4-1.9 12.5 0.1z"/>
			<path id="&lt;Path&gt;" class="s6" d="m678.1 454.3l-0.8 17.8-136.8 70.4 0.9-17.8z"/>
			<path id="&lt;Path&gt;" class="s13" d="m604.6 406.4l76.2 49-139.6 71.9-76.1-49c-1.3-0.8-1.9-1.8-2-2.8-0.2-1.5 0.4-8 0.4-8l128.7-61.2c3.8-1.9 9.3-1.9 12.4 0.1z"/>
			<path id="&lt;Path&gt;" class="s15" d="m679.9 473.2l-0.3 6.6-139.5 71.8 0.3-6.6z"/>
			<path id="&lt;Path&gt;" class="s15" d="m681.1 448.7l-0.3 6.7-139.6 71.9 0.4-6.7z"/>
			<path id="&lt;Path&gt;" class="s12" d="m604.9 399.7l76.2 49-139.5 71.9-76.2-49c-3.1-2-2.6-5.2 1.2-7.2l125.9-64.8c3.8-1.9 9.3-1.9 12.4 0.1z"/>
			<path id="&lt;Path&gt;" class="s15" d="m598.9 410.5l56.9 36.3c2.5 1.6 2.4 5.4-0.3 6.8l-12.7 6.6c-1.2 0.7-2.7 0.6-3.9-0.1l-60.8-38.8c-2.5-1.6-2.1-4.2 1-5.8l9.6-5c3.1-1.6 7.6-1.6 10.2 0z"/>
			<path id="&lt;Path&gt;" class="s15" d="m571.7 423.5l56.9 36.2c2.6 1.7 2.4 5.5-0.3 6.9l-12.6 6.6c-1.3 0.7-2.8 0.6-4-0.2l-60.8-38.7c-2.5-1.6-2.1-4.2 1-5.8l9.6-5c3.1-1.6 7.6-1.6 10.2 0z"/>
			<g id="&lt;Group&gt;">
				<path id="&lt;Path&gt;" class="s15" d="m571.3 488.2c-14.3 8.2-37.3 8.2-51.6 0-14.2-8.2-14.2-21.6 0-29.8 14.3-8.2 37.3-8.2 51.6 0 14.2 8.2 14.2 21.6 0 29.8z"/>
				<path id="&lt;Path&gt;" class="s12" d="m564.4 462.4c-48.4-0.1-42.4 15.7-39.3 20.7 5.4-3.1 12.6-6.6 22-10.7-7.1 5.4-13.3 9.6-18.5 12.7 8.6 1.8 36 5.2 35.8-22.7z"/>
			</g>
		</g>
	</g>
</svg>