<svg version="1.2" xmlns="http://www.w3.org/2000/svg" viewBox="0 0 1000 1000" width="1000" height="1000">
	<title>2821893-ai</title>
	<style>
		.s0 { fill: #fc694b } 
		.s1 { fill: #ff8f78 } 
		.s2 { fill: #000000 } 
		.s3 { fill: #ffffff } 
		.s4 { fill: #bc69fe } 
		.s5 { fill: #ddb4ff } 
		.s6 { fill: #d199ff } 
		.s7 { fill: #3c8eab } 
		.s8 { fill: #55adaa } 
		.s9 { fill: #71c9c6 } 
	</style>
	<g id="OBJECTS">
		<g id="&lt;Group&gt;">
			<path id="&lt;Path&gt;" class="s0" d="m614.3 692.1c-2.6-5.8-5.7-11.4-9.1-16.8-2.2-3.4-4.6-6.6-7.1-9.9-4.4-5.4-9.1-10.5-14.3-15.2h-0.1c-13.9-12.5-30.7-21.7-48.7-26.8-15.7-4.5-32.3-5.8-48.5-3.9-16.7 1.9-33 7.4-47.5 15.8-14 8.1-26.3 18.9-36.1 31.7l-0.1-0.1c-3.5 4.8-6.9 9.7-9.7 14.9-9.1 16-14.4 34.1-15.7 52.5-0.4 5.3-0.2 10.7-0.2 16 0.4 2.9 0.6 5.8 1 8.7 0.7 5.3 1.8 10.6 3.1 15.7q0.2 0.5 0.3 1c2.2 7.9 5.2 15.5 8.8 22.8 2.5 4.9 5.4 9.6 8.5 14.1 13.7 20 33.4 35.9 56 44.9 2.5 1 5 2 7.6 2.7h-0.2c7.1 2.3 14.4 4.1 21.8 5 3.8 0.6 7.7 1.1 11.5 1.1 3.8 0.3 7.6 0.2 11.3 0q3.2 0 6.3-0.5c25-2.4 49.3-12.6 68.3-29.1l0.1 0.1c6.3-5.5 12.1-11.5 17.2-18.1 7.3-9.5 13.4-19.9 17.7-31.1 1.5-3.6 2.7-7.4 3.8-11.2 0.3-1 0.6-2.1 0.8-3.2 1-3.5 1.7-7.1 2.3-10.7 0.5-3.6 1-7.1 1.2-10.7 1.6-20.3-2-41.1-10.3-59.7z"/>
			<g id="&lt;Group&gt;">
				<path id="&lt;Path&gt;" class="s1" d="m583.7 650.2h0.1c5.2 4.7 9.9 9.8 14.3 15.2-1.3 0.1-2.4 0.9-3.6 1.4-12.7 5.6-25.5 10.8-38.7 14.9-9.1 2.8-18.3 5.1-27.5 7.1-8.1 0.9-16.1 2.7-24.2 3.2-18.6 2.1-37.3 1.2-55.8-0.4-9.6-1-19.2-2.4-28.6-4.1-9-1.6-17.8-3.7-26.6-5.7 2.8-5.2 6.2-10.1 9.7-14.9l0.1 0.1c1.7 0.5 3.5 0.6 5.2 0.8 6.1 0.7 12.1 1.3 18.2 1.7 4.6 0.5 9.2 0.8 13.9 1 2.6 0.3 5.3 0.1 7.9 0.3 3.7 0.3 7.4 0.2 11.1 0.2 5.9 0 11.7 0.1 17.6 0 2-0.3 4-0.3 6-0.3 7.4-0.5 14.8-0.7 22.2-1.8 6.4-0.4 12.8-1.6 19.2-2.6 7.2-1.2 14.4-2.6 21.6-4.5 12.8-3.2 25.6-6.9 37.9-11.6z"/>
				<path id="&lt;Path&gt;" class="s1" d="m605.2 675.3c3.4 5.4 6.5 11 9.1 16.8-0.2 0-0.5-0.1-0.7-0.1-1.8 1.7-3.5 3.4-5.2 5.1-4.6 4.2-9.2 8.3-14.1 12.2-2.6 2-5.1 4.3-8.1 5.8-9.5 6.8-19.5 13-29.9 18.4-11 5.6-22.2 10.8-33.8 15.1-5.6 2.2-11.2 4.1-16.9 6.1-12.9 4.1-25.9 7.9-39.2 10.5-6.3 1.3-12.7 2.3-19.1 3.3-17 2.6-34.2 4.1-51.4 5-4.8 0.2-9.6 0.4-14.4 0.4 0 0.2-0.1 0.6-0.2 0.8-1.3-5.1-2.4-10.4-3.1-15.7-0.4-2.9-0.6-5.8-1-8.7 0.9 0.8 2.2 0.5 3.3 0.5 14.1-0.7 28.3-1.5 42.3-3.1 9.1-0.9 18.1-2.1 27-3.7 14.1-2.4 28-5.6 41.7-9.4 2.6-0.8 5.2-1.2 7.7-2.1 4.3-1.2 8.6-2.4 12.7-3.9 2.8-0.9 5.5-1.9 8.4-2.7 8.5-2.9 16.9-6.4 25.2-10.2 10.5-5.1 20.8-10.6 30.5-17.1 9.6-6.1 18.7-13 27.1-20.6 0.7-0.8 2-1.4 2.1-2.7z"/>
				<path id="&lt;Path&gt;" class="s1" d="m618 754.4c2.2-1 4.5-1.7 6.5-3.1 0 0.2 0.1 0.4 0.1 0.5-0.2 3.6-0.7 7.1-1.2 10.7-0.6 3.6-1.3 7.2-2.3 10.7-0.1-0.2-0.1-0.6-0.1-0.9-24.3 10.5-49.6 18.8-75.5 24.1-13.4 2.9-27 5.2-40.6 6.5-4.1 0.4-8.3 0.8-12.4 1.1-1.9 0-3.8 0.5-5.7 0.4-2.2-0.2-4.3 0.4-6.6 0.3-7.4 0.4-14.8 0.2-22.2 0.2-4.3 0-8.6-0.5-12.9-0.5-16.8-1.2-33.6-2.8-50.2-5.7-1.4-0.3-2.8-0.6-4.2-0.7-0.1 0.2-0.2 0.4-0.3 0.5-3.6-7.3-6.6-14.9-8.8-22.8 21.2 3.8 42.4 6.7 63.9 8.1q3.7 0.4 7.4 0.5c1.8 0.3 3.6 0.3 5.4 0.3 5.7 0.5 11.5 0.2 17.2 0.3 4.1-0.1 8.2 0.1 12.3-0.3 2.1-0.1 4.2 0 6.4-0.3 3.9 0 7.9-0.5 11.8-0.9 11-1 22-2.6 32.9-4.4 14.4-2.7 28.7-6.1 42.6-10.5 12.4-4 24.6-8.9 36.5-14.1z"/>
				<path id="&lt;Path&gt;" class="s1" d="m587 805.3c10-5.7 19.6-11.8 29.5-17.7-4.3 11.2-10.4 21.6-17.7 31.1-5.1 6.6-10.9 12.6-17.2 18.1l-0.1-0.1c-1-0.1-1.9 0.6-2.8 1-5.7 3.2-11.6 6-17.6 8.8-10.5 5.1-21.4 9.4-32.5 13.3-5.4 1.8-10.8 3.7-16.4 5.2-0.5 0.2-0.9 0.4-1.4 0.7q1.2 0.1 2.4 0.1-3.1 0.5-6.3 0.5c-3.7 0.2-7.5 0.3-11.3 0-3.8 0-7.7-0.5-11.5-1.1-7.4-0.9-14.7-2.7-21.8-5h0.2c7.9-2.3 15.7-4.6 23.5-7.3 23.2-7.6 45.2-18.4 67-29.3 11.6-5.7 22.8-11.9 34-18.3z"/>
			</g>
			<g id="&lt;Group&gt;" style="opacity: .3;mix-blend-mode: overlay">
				<path id="&lt;Path&gt;" class="s2" d="m588.2 654.4c11.9 11.7 21.3 25.8 27.6 41.2 0.7 1.7 1.5 3.5 2.1 5.2 0.6 1.9 1.3 3.8 1.8 5.7q2.1 6.8 3.4 13.9c0.7 4.1 1.3 8.3 1.7 12.5 0.2 1.6 0 3.3 0.3 5 0.1 2.4 0 4.8 0 7.2 0 0.9 0.1 1.9-0.1 2.8 0 5.1-0.8 10.1-1.5 15.1-0.9 5.4-2.2 10.8-3.8 16-2 6.6-4.5 13-7.6 19.1-11.9 23.9-31.8 43.8-55.8 55.6-1.5 0.7-3 1.6-4.6 2.2-2.7 1.2-5.5 2.3-8.3 3.3q-6.3 2.3-12.8 3.9c-7.1 1.7-14.3 2.8-21.6 3.3-2.2 0-4.2 0.3-6.3 0.3-7.4 0-14.7-0.5-21.9-1.8-3.3-0.4-6.5-1.3-9.7-2q-3.7-0.9-7.3-2.1-0.6-0.2-1.1-0.3c0.5-0.1 1-0.1 1.5-0.1 0-0.2 0-0.4 0-0.6 1.5 0 2.9-0.9 4.3-1.4 1.1-0.4 2.1-0.8 3.2-1.2q0.8-0.4 1.8-0.8 0.9-0.4 1.9-0.8c17.9-7.5 34.7-17.9 49.5-30.5 9.3-8.2 18.1-16.9 25.8-26.6 8.3-10.5 15.8-21.7 21.5-33.8 0.4-1.1 1.1-2 1.3-3.2 0.7-0.5 0.9-1.4 1.3-2.1 0.7-1.7 1.6-3.2 1.9-5l0.1-0.1c0.5-1.3 1.1-2.5 1.5-3.8q0.3-0.9 0.6-1.7c0.5-1.3 1.1-2.7 1.5-4 1.3-3.8 2.5-7.7 3.6-11.6 0.4-1.5 0.8-2.9 1.1-4.4 0.4-1.8 0.9-3.5 1.3-5.3 0.2-1 0.4-1.9 0.6-2.8 0.3-1.3 0.4-2.6 0.8-3.8 0.9-4.9 1.5-9.9 2.2-14.8 0.1-0.9 0-1.9 0.3-2.8 0-2.2 0.4-4.4 0.4-6.5 0.1-5.3 0.1-10.5 0-15.8 0-7.6-1.1-15.1-2.5-22.6z"/>
			</g>
			<g id="&lt;Group&gt;" style="opacity: .3">
				<path id="&lt;Path&gt;" class="s3" d="m427.8 672.4c4.1 6 15.2 5.7 24.8-0.8 9.7-6.5 14.2-16.7 10.1-22.7-4.1-6.1-15.2-5.7-24.8 0.8-9.6 6.5-14.1 16.6-10.1 22.7z"/>
				<path id="&lt;Path&gt;" class="s3" d="m413.6 688c1.5 2.3 5.1 2.5 7.9 0.6 2.9-1.9 3.9-5.3 2.4-7.5-1.5-2.2-5-2.5-7.9-0.6-2.8 1.9-3.9 5.3-2.4 7.5z"/>
			</g>
		</g>
		<g id="&lt;Group&gt;">
			<path id="&lt;Path&gt;" class="s4" d="m375.2 245.8c-0.3-1.5-0.2-3.2-0.7-4.8-1.4-8.4-3.5-16.6-6.2-24.7-1-2.6-1.8-5.2-2.9-7.7-2-5.1-4.3-10.2-6.9-15-0.8-1.6-1.6-3.2-2.5-4.8-7.8-13.5-17.6-25.9-29-36.6-2.1-1.9-4.2-3.9-6.4-5.7-3.3-2.8-6.7-5.6-10.4-7.9-1-1-2.4-1.7-3.5-2.6h-0.1c-13.4-9-28.3-15.9-43.9-20.3-4-1.2-8.1-2-12.1-3-13.7-2.6-27.7-3.7-41.5-2.7-2.6 0.1-5.1 0.3-7.6 0.7-3.4 0.3-6.7 1.1-10.2 1.3v0.2c-23.1 4.3-45.4 13.7-64.4 27.7l-0.2-0.1c-2.1 1.8-4.3 3.4-6.3 5.2-5.4 4.1-10.2 8.8-14.9 13.6-2.1 2.4-4.3 4.7-6.3 7.1-3.9 4.6-7.4 9.4-10.7 14.4h-0.1q-0.8 1.5-1.8 3c-1.8 2.7-3.4 5.6-5.1 8.5-0.9 1.9-2 3.8-2.9 5.7-1.6 3.2-2.9 6.4-4.4 9.6-0.5 1.1-0.8 2.3-1.2 3.4-1.7 3.9-2.8 7.9-4.2 11.9-0.4 1.8-0.9 3.5-1.4 5.3-0.4 1.6-0.8 3.2-1.1 4.8-0.5 1.7-0.7 3.5-1.2 5.2-0.2 1.9-0.7 3.7-0.9 5.6-0.5 3-0.8 6.1-1.2 9.1-0.1 1.5-0.2 2.9-0.2 4.3-0.1 0.2-0.3 0.4-0.3 0.6-0.2 3-0.1 6-0.1 9 0.1 2.4 0 4.9 0.1 7.4 0.2 6.6 1.2 13.1 2.1 19.6 0.3 2.5 1 4.9 1.4 7.4h0.1c0.9 5.1 2.5 9.9 4 14.8 0.9 2.3 1.4 4.8 2.5 6.9 0.4 1.4 1.1 2.8 1.4 4.2h0.2c0.6 1.5 1.2 3.1 2 4.6 2.1 5 4.7 9.7 7.3 14.5q0.7 1.1 1.4 2.2c5.3 8.8 11.5 17.1 18.4 24.7 2.9 3 5.8 6.3 9.1 9 2.4 2.7 5.4 4.8 7.9 7.3 0.3 0.2 0.6 0.5 1 0.5 7.7 6.3 16 11.7 24.7 16.3 27.9 14.8 60.3 21 91.7 17.2 4.8-0.6 9.7-1.2 14.5-2.4 1.7-0.2 3.3-0.8 5-1.1 1.2-0.3 2.7-0.4 3.8-1.2 0.7 0.1 1.4-0.2 2.1-0.4 7.3-2.1 14.5-4.7 21.4-7.9h0.1c5-2.5 10.1-4.8 14.8-7.7 7.2-4.2 13.9-9.1 20.4-14.3 1.6-1.4 3.2-2.8 4.8-4.1 4.7-4.5 9.3-8.9 13.5-13.8 4.9-5.8 9.6-11.8 13.6-18.3l0.1 0.1c1.2-2.1 2.6-4.1 3.7-6.3 2.2-3.6 4.1-7.5 6-11.3 0.6-1.2 1.1-2.4 1.6-3.7 2.2-4.6 3.9-9.5 5.6-14.3 2.9-8.9 5.1-18.1 6.3-27.4h0.1c0.4-3.5 0.9-7 1.1-10.6 0.7-10.7 0.5-21.5-1-32.2z"/>
			<g id="&lt;Group&gt;">
				<g id="&lt;Group&gt;">
					<path id="&lt;Path&gt;" class="s5" d="m191.3 112c3.5-0.2 6.8-1 10.2-1.3-14 9.1-29.1 16.5-44.4 23.1-11.8 5-23.9 10-36.7 11.2 2-1.8 4.2-3.4 6.3-5.2l0.2 0.1c1 0.2 2 0 2.9-0.3 12.2-3.2 23.8-8.4 35.3-13.6q11.7-5.4 23-11.5c1.1-0.7 2.3-1.1 3.2-1.9 0-0.1 0-0.3 0-0.4z"/>
					<path id="&lt;Path&gt;" class="s5" d="m306.6 136h0.1c1.1 0.9 2.5 1.6 3.5 2.6-13.7 6.8-27.9 12.5-42.2 18-15.4 5.7-30.9 11.1-46.9 15.1-25.1 6.5-51 10.4-76.9 12-13.1 1-26.2 0.7-39.4 0.7-6.1-0.4-12.2-0.6-18.2-1.3q1-1.5 1.8-3h0.1c2.4 0.3 4.8 0.5 7.2 0.5q10.4 0 20.7 0c4-0.1 7.9-0.4 11.9-0.4 26-1.2 52.1-4.2 77.5-9.9 16.3-3.6 32.4-8 48.2-13.4 16-5.6 31.8-11.6 47.3-18.3 1.8-0.9 3.7-1.4 5.3-2.6z"/>
					<path id="&lt;Path&gt;" class="s5" d="m356 188.8c0.9 1.6 1.7 3.2 2.5 4.8-14.8 5.2-29.8 10.1-45 14.4-26 7.7-53.1 11.7-80.2 12.8-3.9 0.4-7.7 0.2-11.5 0.4-4.9 0.3-9.8 0.2-14.8 0.2-6.3 0-12.7 0.1-19-0.1-5.3-0.4-10.7 0-16-0.5-15.6-0.4-31.2-1.6-46.8-3-17.5-1.8-35-3.9-52.2-7.5 0.4-1.1 0.7-2.3 1.2-3.4 0 0.3-0.1 0.9-0.1 1.2 17 2.4 34 4 51.1 5.3 10.8 0.8 21.7 1.5 32.5 1.8 6.1 0.5 12.2 0.2 18.3 0.6 13.3 0 26.6 0.2 39.8-0.3 3.3-0.1 6.6 0.1 9.9-0.2 2.9-0.3 5.9-0.1 8.8-0.5 23.5-1.2 47-4.3 69.9-10 16.7-4.3 33.1-9.4 49.4-14.9q1.2-0.3 2.2-1.1z"/>
					<path id="&lt;Path&gt;" class="s5" d="m65.1 237.5c0.5-1.7 0.7-3.5 1.2-5.2-0.1 0.3-0.1 1-0.1 1.3 10.4 4.1 21 7.6 31.7 10.9 13.2 3.9 26.6 7.4 39.9 11 14.1 3.7 28.2 7.2 42.6 9.2 30.1 4.5 60.8 5.4 91 1.6 18.8-2.3 37.3-6.5 55.7-11 15.6-3.7 31.2-7.8 46.7-12 1.2-0.1 0.6-1.5 0.7-2.3 0.5 1.6 0.4 3.3 0.7 4.8-17.4 5.3-34.9 10-52.5 14.4-15.9 4-31.8 7.7-48.1 10-20.8 2.9-41.8 4-62.8 2.6-11.8-0.8-23.6-2.1-35.3-4-12.9-2-25.6-5.2-38.2-8.6-13.9-3.8-27.7-7.7-41.4-11.9-10.5-3.3-20.9-7-31-11.2-0.2 0.1-0.6 0.3-0.8 0.4z"/>
					<path id="&lt;Path&gt;" class="s5" d="m62.5 257.1c0-0.2 0.2-0.4 0.3-0.6 0.1 2.2-0.4 4.4-0.2 6.5 0.5 0.6 1.2 1 1.9 1.4 15.1 9.3 31.1 17.3 47.4 24.2 22.4 9.4 45.7 16.2 69.2 22.3 15.6 4 31.3 7.6 47 11 18.2 3.7 36.5 6.9 54.9 8.8 17 1.8 34.2 2 51.3 1.7 4.1-0.4 8.2-0.2 12.3-0.6 5.5-0.2 11-1.1 16.5-1.5-0.5 1.3-1 2.5-1.6 3.7-1.8-0.2-3.5 0.3-5.3 0.5-5.4 0.6-10.9 1-16.4 1.4-3.7-0.1-7.4 0.5-11.1 0.4-6.3 0.1-12.6 0.2-18.9 0-3.9-0.1-7.8 0.1-11.7-0.3-9.5-0.2-18.9-1.3-28.2-2.3-17.6-2.3-35-5.5-52.3-9.3-18.9-4.2-37.8-8.9-56.4-14.3-22.4-6.5-44.3-14.4-65.2-24.7-11.6-5.8-23-12-33.6-19.3 0-3-0.1-6 0.1-9z"/>
					<path id="&lt;Path&gt;" class="s5" d="m72.6 322.2q10.2 4.2 20.6 7.7c19.6 6.6 39.2 13.3 58.9 19.5 33.9 10.6 68.5 18.8 103.5 24.6 18.9 3.1 37.8 5.9 56.8 8.3 4.1 0.4 8.1 1.1 12.2 1.3-1.6 1.3-3.2 2.7-4.8 4.1-4-0.8-8.1-0.9-12.2-1.5-20.5-2.5-40.9-5.5-61.3-8.9-34.1-5.6-67.6-14.2-100.4-25q-29-9.8-57.7-20.6c-3.7-1.4-7.4-2.8-11-4.4-1-0.5-2-1-3-0.9h-0.2c-0.3-1.4-1-2.8-1.4-4.2z"/>
					<path id="&lt;Path&gt;" class="s5" d="m112.4 381.4c7.5 3 14.9 6 22.6 8.6q10.9 3.6 21.9 6.6c16.2 4.4 32.5 8.4 49 11.6 18.3 3.7 36.6 6.9 55.1 9.8-1.1 0.8-2.6 0.9-3.8 1.2-1.7 0.3-3.3 0.9-5 1.1-17.4-2.6-34.7-5.5-51.9-8.9-25.5-4.9-50.9-11.2-75-20.9-1.3-0.5-2.6-1.2-4-1.3-0.4 0-0.7-0.3-1-0.5-2.5-2.5-5.5-4.6-7.9-7.3z"/>
				</g>
				<g id="&lt;Group&gt;">
					<path id="&lt;Path&gt;" class="s6" d="m250.6 112.7c4 1 8.1 1.8 12.1 3-11.7 9.2-24.4 17.1-37.3 24.5-8.4 4.6-16.7 9.7-25.5 13.5-31.4 13.8-66.9 17.2-100.7 12 2-2.4 4.2-4.7 6.3-7.1q0.3 0.6 0.9 0.5c22 1 44.3-0.9 65.5-7.2 6.7-2.1 13.4-4.4 20-7.1 8.3-3.5 16.7-7.1 24.6-11.6 8.8-4.7 17.5-9.8 26.1-15.1 2.6-1.8 5.6-3.2 8-5.4z"/>
					<path id="&lt;Path&gt;" class="s6" d="m320.6 146.5c2.2 1.8 4.3 3.8 6.4 5.7-2.5 1.4-4.7 3.4-7.2 4.9-13.2 8.7-27.2 16-41.5 22.9-16.5 7.5-34 12.3-51.8 15.8-10.5 2.2-21.1 3.8-31.8 5.1-10.6 1.2-21.4 2.1-32.1 2.3-6 0.5-12 0.2-18 0.2-4.8 0.1-9.5-0.4-14.3-0.3-4.2-0.4-8.5-0.4-12.7-0.8-12.8-0.9-25.8-1.9-38.2-5.4-0.2 0.1-0.6 0.3-0.8 0.4 0.9-1.9 2-3.8 2.9-5.7 1.2 0.7 2.6 0.7 3.9 0.9 7.9 1.1 15.9 1.5 23.8 1.9 10 0.1 19.9 0.2 29.9 0.1 3.1 0 6.3-0.5 9.5-0.4 18.4-1.1 36.7-3 54.9-5.8 17.7-2.8 35.3-6.4 52.5-11.6 9.2-2.7 18.4-5.8 27.1-9.9 3.3-1.5 6.6-3.2 9.9-4.7 9.4-4.8 18.8-9.7 27.6-15.6z"/>
					<path id="&lt;Path&gt;" class="s6" d="m365.4 208.6c1.1 2.5 1.9 5.1 2.9 7.7-1.5 0.5-2.8 1.3-4.2 2.1-14.3 7.7-29.1 14.8-44.9 18.8-19.4 4.8-39.3 7.4-59.3 8.9-3.9 0.3-7.9 0.3-11.9 0.7-4.6 0-9.3 0.5-13.9 0.4-12.1 0-24.2 0.2-36.2-0.4-21.8-0.5-43.6-2-65.3-4.3-8.3-0.9-16.6-2.2-24.8-3.5-10.4-1.9-20.9-3.9-30.8-7.4-3.3-1.1-6.4-2.7-9.6-4.1 0.5-1.8 1-3.5 1.4-5.3 0.5 0.4 1 0.8 1.6 0.9 4.6 1.5 9.4 2.7 14.2 3.8 15.2 3.2 30.6 5 46.1 6.4 12.7 1 25.4 1.9 38.2 2.2 3.4 0.4 6.9 0.3 10.3 0.4 2.8 0 5.5 0.4 8.3 0.3 6.9 0 13.8 0.3 20.7 0.3 9.9 0.1 19.7-0.2 29.5-0.3 9.4-0.4 18.8-1 28.2-1.8 19-1.8 38-4 56.6-8.6 7.8-2 15.6-4.4 23.1-7.7 6.7-2.8 13.4-6 19.8-9.5z"/>
					<path id="&lt;Path&gt;" class="s6" d="m63 252.2c0.4-3 0.7-6.1 1.2-9.1 0 0.6-0.1 1.3 0.1 1.9 2 1.4 4.3 2.4 6.5 3.6 13.9 7.2 28.6 12.5 43.5 17.3 24.5 7.8 49.5 13.7 74.8 18.2 17.2 3.1 34.4 5.4 51.7 7 8.5 0.7 17 1.6 25.5 1.7 4.4 0.4 8.7 0.2 13.1 0.3 6.1 0 12.2 0.2 18.3-0.4 4.5 0.1 9-0.6 13.6-0.8q8.3-0.7 16.6-1.9c6.7-1.1 13.4-2.1 19.9-3.8 9.6-2.4 19-5.4 28.4-8.2-0.2 3.6-0.7 7.1-1.1 10.6h-0.1c-1.1-0.2-2.2 0.3-3.3 0.7-8.6 3.2-17.4 5.7-26.2 8.4-15.5 4.9-31.6 8-47.8 9.1-2.3 0-4.5 0.1-6.7 0.5-7.1 0.1-14.1 0.3-21.1 0.1-2.4-0.1-4.8 0.2-7.1-0.3-1.7-0.3-3.5-0.2-5.3-0.3-19.6-1.3-39.2-3.8-58.5-7.5-21.4-4-42.6-9-63.3-15.5-20.1-6.5-40-13.7-58.8-23.4-4.8-2.4-9.4-5.3-13.9-8.2z"/>
					<path id="&lt;Path&gt;" class="s6" d="m64.6 293.1c0.4 1.7 2.1 2.3 3.5 3 17 9.6 35.5 15.9 54.1 21.6 20.8 6.2 42 11.2 63.2 15.9 17.8 3.6 35.6 6.9 53.5 9.2 9.8 1.3 19.6 2.6 29.4 3.3 19.3 1.8 38.7 2.2 58 1.2 3.9-0.4 7.8-0.3 11.7-0.6 5.8-0.4 11.6-1 17.5-1.4-1.1 2.2-2.5 4.2-3.7 6.3l-0.1-0.1c-0.9-0.1-1.7-0.2-2.6 0-16.3 1.8-32.6 2.8-49 3.5-3.6-0.1-7.1 0.4-10.7 0.3-16.2 0.4-32.4-0.2-48.5-1.5-19.3-1.8-38.4-4.8-57.3-8.9-30.4-6.8-60.5-15.3-89-27.9-9.6-4.3-19-9.1-27.1-15.8-0.4-0.3-0.9-0.5-1.4-0.7h-0.1c-0.4-2.5-1.1-4.9-1.4-7.4z"/>
					<path id="&lt;Path&gt;" class="s6" d="m76.2 331c7 4.8 14.1 9.3 21.4 13.6 7.9 4.7 16 9.2 24.5 12.9 16.1 7.2 32.9 12.9 49.7 18.3 15.6 4.7 31.3 9.2 47.2 12.9 7.3 1.9 14.8 3.4 22.2 4.7q16.1 2.8 32.3 5.2c8.6 1.2 17.2 2.2 25.9 3.4-4.7 2.9-9.8 5.2-14.8 7.7h-0.1c-1.3-0.6-2.8-0.6-4.3-0.8-19.4-1.8-38.7-4.9-58-8-25.2-4.1-49.8-11.1-73.7-20.1-7.7-3.1-15.3-6.3-22.8-9.8-14.4-7-27.9-15.7-40.8-25.2-0.4-0.4-0.9-0.4-1.4-0.3-2.6-4.8-5.2-9.5-7.3-14.5z"/>
				</g>
			</g>
			<g id="&lt;Group&gt;" style="opacity: .3;mix-blend-mode: overlay">
				<path id="&lt;Path&gt;" class="s2" d="m329.9 154.4c15.1 14.8 27.1 32.6 35.1 52.2 0.9 2.2 1.8 4.4 2.6 6.6 0.7 2.4 1.7 4.7 2.3 7.2 1.8 5.7 3.2 11.6 4.3 17.6 0.9 5.2 1.7 10.5 2.1 15.8 0.4 2.1 0 4.3 0.4 6.3 0.2 3.1 0.1 6.2 0.1 9.2-0.1 1.2 0.1 2.4-0.2 3.6 0 6.4-1 12.8-1.9 19.1-1.2 6.9-2.8 13.7-4.8 20.3-2.5 8.3-5.8 16.4-9.7 24.2-15 30.3-40.3 55.5-70.6 70.5-2 0.9-3.9 2-6 2.8-3.4 1.5-6.9 2.9-10.4 4.2q-8 2.9-16.2 4.9c-9 2.2-18.2 3.6-27.5 4.2-2.7-0.1-5.3 0.3-8 0.3-9.3 0-18.6-0.6-27.7-2.2-4.2-0.5-8.2-1.7-12.3-2.5-3.1-0.8-6.2-1.7-9.2-2.7q-0.8-0.3-1.5-0.5c0.7 0 1.3-0.1 2-0.1 0-0.2 0-0.5 0-0.6 1.9-0.2 3.6-1.3 5.5-1.8 1.3-0.6 2.6-1.1 3.9-1.6q1.2-0.5 2.3-1 1.2-0.5 2.5-1c22.7-9.6 43.9-22.7 62.7-38.7 11.8-10.4 23-21.5 32.7-33.8 10.5-13.2 20.1-27.4 27.3-42.7 0.5-1.4 1.4-2.6 1.6-4.1 0.9-0.6 1.2-1.7 1.6-2.7 0.9-2.1 2-4.1 2.5-6.3l0.1-0.1c0.6-1.7 1.4-3.3 2-4.9q0.3-1.1 0.7-2c0.6-1.8 1.3-3.5 1.9-5.2 1.7-4.8 3.1-9.7 4.5-14.7 0.5-1.8 1-3.7 1.5-5.5 0.5-2.3 1.1-4.5 1.5-6.8 0.4-1.2 0.6-2.4 0.8-3.6 0.4-1.6 0.6-3.2 1-4.8 1.2-6.1 1.9-12.4 2.8-18.7 0.1-1.2 0-2.4 0.4-3.5 0-2.8 0.6-5.6 0.5-8.3 0.2-6.7 0.2-13.3 0.1-20-0.1-9.6-1.4-19.2-3.3-28.6z"/>
			</g>
			<g id="&lt;Group&gt;" style="opacity: .3">
				<path id="&lt;Path&gt;" class="s3" d="m126.7 178.6c5.1 7.7 19.2 7.2 31.4-1 12.2-8.2 17.9-21.1 12.8-28.8-5.2-7.7-19.3-7.2-31.5 1-12.2 8.3-17.9 21.2-12.7 28.8z"/>
				<path id="&lt;Path&gt;" class="s3" d="m108.7 198.5c1.9 2.8 6.3 3.2 10 0.7 3.6-2.4 4.9-6.7 3-9.5-1.9-2.8-6.4-3.2-10-0.8-3.6 2.5-4.9 6.7-3 9.6z"/>
			</g>
		</g>
		<g id="&lt;Group&gt;">
			<path id="&lt;Path&gt;" class="s7" d="m902.9 199.3c-11.1-18.2-27.9-32.9-47.4-41.5-22.3-10-48.3-11.9-71.8-5.1-2.6 0.8-5.3 1.5-7.7 2.6-1.2 0.2-2.3 0.9-3.5 1.3-5.2 2.1-10.3 4.6-15 7.6h-0.1c-16.3 10-29.9 24.5-38.6 41.4-0.5 1-1.2 2-1.5 3-1.5 3-2.8 6.2-4 9.3-4.4 12.2-6.8 25.1-6.5 38.1 0 3.3 0.2 6.7 0.6 10.1q0.4 3.5 1 7c0.4 2.6 1.2 5.1 1.6 7.7h0.1-0.1c0.3 0.7 0.5 1.5 0.7 2.2 1.4 5.1 3.2 10 5.4 14.8 1.4 3.1 3 6.2 4.6 9.2h0.1c1.6 2.9 3.4 5.6 5.3 8.3 2.9 4.1 6 8.1 9.5 11.6 3.7 4.1 7.8 7.7 12.1 11.1 3.9 2.9 7.9 5.8 12.3 8.2 2.3 1.5 4.9 2.7 7.4 3.9 10.9 5.1 22.6 8.4 34.6 9.6 2.2 0.3 4.3 0.3 6.5 0.4 3.6 0.4 7.3 0 11-0.1 14.8-1 29.5-5.1 42.6-12.1 0.7-0.4 1.5-0.6 2.1-1.2 2.8-1.3 5.4-3.1 8-4.8 13.1-9 24.2-20.9 32.1-34.7 9.1-15.8 14-34 14.1-52.3 0.1-19.5-5.3-39-15.5-55.6z"/>
			<g id="&lt;Group&gt;">
				<g id="&lt;Group&gt;">
					<path id="&lt;Path&gt;" class="s8" d="m783.7 152.7c23.5-6.8 49.5-4.9 71.8 5.1 19.5 8.6 36.3 23.3 47.4 41.5 10.2 16.6 15.6 36.1 15.5 55.6-0.1 18.3-5 36.5-14.1 52.3-1.1 0.1-1.6 1.4-2.5 2-1.4 1-2.5 2.4-3.9 3.5-4 3.6-8.3 6.9-12.8 10-8.5 5.5-17.6 10.1-27.1 13.8-10.7 4.1-21.8 7.4-33.2 9.4-6.3 1.2-12.8 2-19.3 2.5-1.7 0.2-3.4 0.1-5.1 0.3-3.7 0.1-7.5 0.1-11.2 0.1-2 0-3.9 0.1-5.9-0.2-6.7-0.2-13.3-1-19.8-2.1-1.2-0.1-2.3-0.6-3.5-0.3-4.4-2.4-8.4-5.3-12.3-8.2-4.3-3.4-8.4-7-12.1-11.1 9.8 3.3 20 5.3 30.3 6 1.7 0.2 3.4 0 5.1 0.2 1.9 0.3 3.9 0.1 5.9 0.1 1.7 0 3.4 0.2 5.1-0.1 2.1-0.2 4.3 0 6.4-0.3 6.2-0.3 12.3-1.1 18.4-2 6.6-1 13.1-2.4 19.5-4 10.2-2.6 20.2-6 30-9.9 3.1-1.3 6.1-2.6 9-4.1 6.6-3.2 13-6.9 19-11.3 2-1.5 4-3.1 5.9-4.8 1.9-2.2 4-4.1 6.1-6.2 0.8-1 1.8-1.7 2.7-2.6 2.8-3.4 5.3-7 7.4-10.8 2.4-4.4 4.5-8.9 5.9-13.7 1.8-6.5 2.8-13.3 2.9-20-0.3-3.1-0.2-6.3-0.8-9.3-0.4-2.9-1-5.9-1.7-8.7-0.6-2.1-1.4-4.1-2-6.1-0.9-3-2.5-5.6-3.8-8.4-2-4.6-4.9-8.7-8-12.7-1.4-1.7-2.9-3.5-4.5-5.1-1.6-1.6-3.2-3.3-4.8-4.8-3.7-4-8.1-7.2-12.5-10.3-8.5-5.7-17.8-10.4-27.5-13.8-5.3-1.8-10.6-3.5-16-4.8q-3.7-0.8-7.4-1.5c-2.4-0.5-4.9-0.7-7.2-1.1-3-0.7-6.1-0.8-9.1-1.3-4.3-0.4-8.6-0.7-12.9-0.7-2.7-0.2-5.4-0.3-8.1-0.1-2.4 0.2-4.8 0.1-7.2 0.2-1.9 0.3-3.8 0.2-5.7 0.4 2.4-1.1 5.1-1.8 7.7-2.6z"/>
					<path id="&lt;Path&gt;" class="s8" d="m790.8 178q2.4 0 4.8-0.3c7.4-0.1 14.9-0.1 22.3 0.9 10.4 1.5 20.8 4.2 29.9 9.7 7.9 4.8 14.7 12 17.6 20.9 2 5.8 2.3 12.1 1.1 18.1-2.2 10.4-8.6 19.6-16.5 26.6-7.5 6.5-16.2 11.5-25.2 15.8-15 6.9-30.9 11.8-47.1 15-6.9 1.2-13.9 2.1-20.9 2.4-1.6 0-3.2 0.3-4.8 0.3-2.1-0.1-4.2 0.1-6.3-0.2-6.8-0.1-13.7-1-20.5-2.2-5.1-1-10-2.6-14.9-4.4 0 0.1-0.1 0.1-0.2 0.2h-0.1c-0.4-2.6-1.2-5.1-1.6-7.7q-0.6-3.5-1-7c2.8 1.1 5.6 2.3 8.5 3.1 2.2 0.6 4.3 1.4 6.6 1.8 6.8 1.4 13.7 2.4 20.6 2.3 2.4 0 4.9 0 7.3 0 4.4-0.3 8.8-0.6 13.2-1.2 11.1-1.6 22.1-4.2 32.7-7.7 6-2 11.9-4.1 17.7-6.7 4.7-2 9.3-4.4 13.9-6.7 2-1 3.9-2.4 5.8-3.5 2-1.3 4-2.6 5.9-4 4.2-3 8.1-6.4 11.1-10.6 2.8-3.9 4.8-8.5 5.1-13.3 0.4-5.3-1.4-10.5-4.6-14.7-2.7-3.5-6.1-6.5-10-8.7-3.2-2-6.8-3.4-10.3-4.7-5.8-1.9-11.8-2.9-17.9-3.5-13-1.1-26.2-0.1-38.8 3.1-9.8 2.5-19.3 6.1-27.7 11.8-3.8 2.6-7.5 5.5-10 9.5-1.1 1.8-2.1 4-1.8 6.2 0.4 2.2 2.1 3.8 3.8 5 4 2.6 8.6 3.9 13.2 4.7 6.4 1.1 12.8 1.1 19.3 0.9 6.6-0.4 13.3-1.4 19.7-3.3 4.5-1.5 9-3.1 13-5.8 1.5-1.1 3.2-2.2 3.9-4.1 0.1-1.3-1-2.3-2.1-2.9-3.3-1.8-7.2-2-11-1.9-9.7-0.3-19.3 2.1-28.9 3.8-1.5 0.3-3.1-1.1-2.9-2.7 0.1-1.1 1.2-1.9 2.1-2.4 1.9-1.1 3.9-2.1 6-2.8q5.6-1.9 11.3-2.9c6-1.1 12-2.2 18.1-1.8 4.6 0.3 9.3 1.7 12.9 4.8 3.3 2.8 5.1 7.5 4 11.8-1.1 4.3-4.3 7.7-7.8 10.2-4.7 3.3-10.1 5.5-15.5 7.2-12.2 3.7-25.2 4.6-37.8 3.3-5-0.6-10-1.6-14.7-3.3-3.4-1.3-6.8-3-9.6-5.4-4.2-3.2-7-8.5-6.8-13.8 0.2-5 2.5-9.5 5.6-13.2 3.4-4.3 7.8-7.7 12.4-10.7 4-2.7 8.3-4.8 12.7-6.8 11.2-4.8 23.2-7.4 35.2-8.5z"/>
				</g>
				<path id="&lt;Path&gt;" class="s9" d="m775.2 159.4c13.1-2.2 26.5-2 39.5 0.6 5.7 1 11.2 2.5 16.6 4.3 9.6 3.3 18.9 7.4 27.5 12.7 3.5 2.2 6.9 4.5 10 7.1 7.7 6.5 14 14.5 18.8 23.3 4.6 8.3 7.7 17.5 9.2 26.9 0.9 6.5 1 13.3-0.6 19.7-1.2 5-3.3 9.7-6.2 13.9-2.6 3.7-5.7 7.1-9.2 10.1-3.9 3.2-8 6.2-12.4 8.7-1.7 0.9-3.3 2-5 2.7-2.5 1.1-4.8 2.3-7.2 3.3-2.2 1-4.4 1.7-6.5 2.8-8.4 3.1-17 5.9-25.7 8-14 3.7-28.4 5.7-42.8 6.4-1.8-0.1-3.6 0.3-5.4 0.3-8 0.1-16 0.1-24-0.1-2.2-0.3-4.4 0-6.5-0.4q-6.2-0.3-12.3-1-3.5-0.5-7-0.9c-1.8-0.2-3.5-0.7-5.2-0.8h-0.1c-1.6-3-3.2-6.1-4.6-9.2 1.7 0.5 3.6 0.3 5.4 0.6 6 0.2 12.1 0.1 18.2 0 2.3-0.3 4.6-0.1 6.9-0.4 8.6-0.5 17.2-1.1 25.7-1.9 18.6-1.4 37.2-3.2 55.3-7.7 4-1.1 8.1-2 12-3.2 4.9-1.9 10.1-3.2 15-5.2 2-0.8 4.1-1.6 6-2.7 4.5-2.2 9.1-4.4 13.1-7.5 3.5-2.6 6.8-5.5 9.4-9.1 3.2-4.3 5.3-9.3 6.1-14.6 0.5-2.9 0.3-5.9 0.3-8.9-0.4-5.9-1.7-11.8-3.6-17.4-3-9-8-17.3-14.2-24.3-6-6.9-13.4-12.3-21.4-16.7-15.4-8.6-32.8-13.7-50.4-14.8-2.8 0-5.7-0.3-8.6-0.1-11.7 0.2-23.5 2.4-34.3 7.1-4.5 1.9-8.7 4.4-12.7 7.2-6.5 4.7-12.4 10.6-16.2 17.7-2.6 4.9-4.4 10.2-5.3 15.6q-0.6 3.2-0.5 6.4c-0.2 5.2 1.2 10.5 4.1 14.9 2.3 3.5 5.3 6.4 8.7 8.7 4.6 3.2 9.9 5 15.3 6.1 5.3 1.1 10.6 1.7 16 1.6 6.8 0.1 13.5-0.6 20.1-1.7 10.4-1.8 20.5-4.9 30-9.2 4.7-2.2 9.3-4.8 13.4-8.1 3-2.5 5.7-5.4 7.2-9 1.4-3 1.8-6.6 0.2-9.6-1.8-3.5-5.1-5.8-8.4-7.7-6.9-3.6-14.7-5.2-22.5-5.8-12.8-0.8-25.7 1.2-37.7 5.7-4.5 1.7-9.1 3.6-12.4 7.2-0.5 1.2-0.5 2.6-0.1 3.8 0.2 0.9 1.3 1.2 2.1 1.7 3.3 1.7 7.1 2.2 10.8 2.6 1.6 0.2 3.2-0.1 4.8-0.2 0.4 0 1.1-0.1 1.1 0.4 0.1 0.6-0.6 0.9-1 1.1-3.1 1.3-6.4 1.7-9.7 1.6-3.8 0-7.9-0.6-11.1-2.9-2-1.4-3.9-3.4-4-6 0.3-2.5 1.8-4.7 3.7-6.2 3.4-3.1 7.5-5.2 11.7-6.8 5.3-2.1 10.7-3.8 16.3-5 5.2-1.1 10.5-1.7 15.8-2.1 11.5-0.6 23.2 0.9 33.7 5.7 4.6 2.2 9.1 5.2 11.8 9.6 2.3 3.4 2.7 7.8 2 11.8-1 4.8-3.6 9-6.8 12.6-6.7 7-15.3 11.8-24.1 15.5-5.4 2.3-11.1 4-16.8 5.5-12.7 2.9-25.9 4-38.9 2.5-9.2-1.1-18.5-3.4-26.2-8.8-7.2-5-12.7-12.7-14.4-21.4-0.9-4.4-0.9-9-0.2-13.4 0.1-1.3 0.6-2.6 0.5-4 0.3-1 1-2 1.5-3 8.7-16.9 22.3-31.4 38.6-41.4h0.1c1.1 0 2.1-0.7 3.2-1 4.7-1.6 9.6-2.9 14.5-3.8z"/>
				<path id="&lt;Path&gt;" class="s9" d="m847.7 351.4c5.5-1.5 11-3.2 16.5-4.7-0.6 0.6-1.4 0.8-2.1 1.2-13.1 7-27.8 11.1-42.6 12.1-3.7 0.1-7.4 0.5-11 0.1-2.2-0.1-4.3-0.1-6.5-0.4 6.8-0.1 13.5-1.3 20.1-2.4 8.6-1.7 17.1-3.5 25.6-5.9z"/>
			</g>
			<g id="&lt;Group&gt;" style="opacity: .3;mix-blend-mode: overlay">
				<path id="&lt;Path&gt;" class="s2" d="m886.6 179.3c10.2 9.9 18.3 21.9 23.6 35.1 0.6 1.5 1.3 3 1.8 4.5 0.5 1.6 1.1 3.2 1.6 4.8q1.8 5.8 2.8 11.8c0.7 3.6 1.2 7.1 1.5 10.7 0.2 1.4 0 2.9 0.2 4.3 0.1 2 0.1 4.1 0.1 6.2-0.1 0.8 0 1.6-0.2 2.4 0 4.3-0.6 8.6-1.2 12.9-0.8 4.6-1.9 9.1-3.3 13.6-1.7 5.6-3.8 11.1-6.5 16.3-10.1 20.4-27.1 37.4-47.5 47.5-1.4 0.6-2.7 1.3-4 1.8-2.4 1.1-4.7 2-7.1 2.9q-5.4 1.9-10.9 3.3c-6.1 1.4-12.3 2.4-18.5 2.8-1.8 0-3.6 0.2-5.4 0.2-6.2 0-12.5-0.4-18.7-1.5-2.8-0.3-5.5-1.1-8.2-1.7q-3.2-0.8-6.2-1.8-0.5-0.1-1-0.3 0.6 0 1.3-0.1c0-0.1 0-0.3 0-0.4 1.3-0.1 2.5-0.8 3.7-1.2 0.9-0.4 1.8-0.7 2.7-1.1q0.7-0.3 1.5-0.6 0.8-0.4 1.6-0.7c15.4-6.4 29.7-15.3 42.3-26.1 7.9-7 15.5-14.4 22-22.7 7.1-8.9 13.5-18.5 18.4-28.8 0.4-0.9 0.9-1.7 1.1-2.7 0.6-0.5 0.8-1.2 1.1-1.8 0.6-1.5 1.3-2.8 1.6-4.3l0.1-0.1c0.4-1.1 0.9-2.2 1.3-3.3q0.2-0.7 0.5-1.3c0.4-1.2 0.9-2.4 1.3-3.5 1.1-3.3 2.1-6.6 3.1-9.9 0.3-1.3 0.6-2.5 0.9-3.8 0.4-1.5 0.8-3 1.1-4.5 0.2-0.8 0.4-1.6 0.5-2.4 0.3-1.1 0.4-2.2 0.7-3.2 0.8-4.2 1.3-8.4 1.8-12.6 0.1-0.8 0.1-1.7 0.3-2.4 0-1.9 0.4-3.8 0.4-5.6 0.1-4.5 0.1-9 0-13.4 0-6.5-0.9-13-2.2-19.3z"/>
			</g>
			<g id="&lt;Group&gt;" style="opacity: .3">
				<path id="&lt;Path&gt;" class="s3" d="m759.7 192.4c3.5 5.1 13 4.8 21.2-0.7 8.2-5.6 12.1-14.2 8.6-19.4-3.5-5.2-13-4.8-21.2 0.7-8.2 5.5-12.1 14.2-8.6 19.4z"/>
				<path id="&lt;Path&gt;" class="s3" d="m747.6 205.8c1.3 1.9 4.3 2.1 6.7 0.5 2.4-1.7 3.4-4.6 2.1-6.5-1.3-1.9-4.3-2.1-6.7-0.5-2.5 1.7-3.4 4.5-2.1 6.5z"/>
			</g>
		</g>
		<g id="&lt;Group&gt;" style="mix-blend-mode: overlay">
			<path id="&lt;Path&gt;" class="s3" d="m314.2 56.5c0 3.4-2.7 6.1-6.1 6.1-3.3 0-6-2.7-6-6.1 0-3.3 2.7-6 6-6 3.4 0 6.1 2.7 6.1 6z"/>
			<path id="&lt;Path&gt;" class="s3" d="m596.1 116.4c0 5.4-4.4 9.9-9.8 9.9-5.4 0-9.9-4.5-9.9-9.9 0-5.4 4.5-9.9 9.9-9.9 5.4 0 9.8 4.5 9.8 9.9z"/>
			<path id="&lt;Path&gt;" class="s3" d="m872.8 98.2c0 2.1-1.7 3.8-3.8 3.8-2.1 0-3.8-1.7-3.8-3.8 0-2.1 1.7-3.8 3.8-3.8 2.1 0 3.8 1.7 3.8 3.8z"/>
			<path id="&lt;Path&gt;" class="s3" d="m859.9 917.5c0 4.2-3.4 7.6-7.6 7.6-4.2 0-7.6-3.4-7.6-7.6 0-4.2 3.4-7.6 7.6-7.6 4.2 0 7.6 3.4 7.6 7.6z"/>
			<path id="&lt;Path&gt;" class="s3" d="m941.7 821.2c0 3-2.3 5.3-5.3 5.3-2.9 0-5.3-2.3-5.3-5.3 0-2.9 2.4-5.3 5.3-5.3 3 0 5.3 2.4 5.3 5.3z"/>
			<path id="&lt;Path&gt;" class="s3" d="m531 571.1c0 1.3-1 2.3-2.3 2.3-1.3 0-2.3-1-2.3-2.3 0-1.2 1-2.2 2.3-2.2 1.3 0 2.3 1 2.3 2.2z"/>
			<path id="&lt;Path&gt;" class="s3" d="m80.8 847c0 2.9-2.4 5.3-5.3 5.3-3 0-5.3-2.4-5.3-5.3 0-2.9 2.3-5.3 5.3-5.3 2.9 0 5.3 2.4 5.3 5.3z"/>
			<path id="&lt;Path&gt;" class="s3" d="m221.7 881.9c0 5.4-4.4 9.8-9.8 9.8-5.4 0-9.9-4.4-9.9-9.8 0-5.5 4.5-9.9 9.9-9.9 5.4 0 9.8 4.4 9.8 9.9z"/>
			<path id="&lt;Path&gt;" class="s3" d="m206.6 770.5c0 0.8-0.7 1.5-1.5 1.5-0.9 0-1.5-0.7-1.5-1.5 0-0.9 0.6-1.6 1.5-1.6 0.8 0 1.5 0.7 1.5 1.6z"/>
			<path id="&lt;Path&gt;" class="s3" d="m890.2 403.6c0 0.9-0.7 1.6-1.5 1.6-0.8 0-1.5-0.7-1.5-1.6 0-0.8 0.7-1.5 1.5-1.5 0.8 0 1.5 0.7 1.5 1.5z"/>
			<path id="&lt;Path&gt;" class="s3" d="m440 196c0 0.8-0.7 1.5-1.5 1.5-0.8 0-1.5-0.7-1.5-1.5 0-0.9 0.7-1.5 1.5-1.5 0.8 0 1.5 0.6 1.5 1.5z"/>
			<path id="&lt;Path&gt;" class="s3" d="m707.6 818.2c0 1.3-1.1 2.3-2.3 2.3-1.3 0-2.3-1-2.3-2.3 0-1.2 1-2.3 2.3-2.3 1.2 0 2.3 1.1 2.3 2.3z"/>
		</g>
	</g>
</svg>